<svg width="191" height="26" viewBox="0 0 191 26" fill="none" xmlns="http://www.w3.org/2000/svg">
<path d="M13.056 13.768C10.9867 13.768 9.97333 13.2453 10.016 12.2C10.016 11.2187 11.008 10.728 12.992 10.728C13.4613 10.728 13.9093 10.7813 14.336 10.888C15.04 10.184 15.392 9.11733 15.392 7.688C15.392 5.21333 13.7387 3.976 10.432 3.976C8.704 3.976 7.06133 4.34933 5.504 5.096C4.928 5.37333 4.40533 5.62933 3.936 5.864C3.488 6.09867 3.072 6.216 2.688 6.216C2.304 6.216 2.112 6.09867 2.112 5.864C2.112 5.58667 2.32533 5.18133 2.752 4.648C3.17867 4.09333 3.776 3.53867 4.544 2.984C6.50667 1.61867 8.736 0.925332 11.232 0.903999C14.496 0.903999 16.896 1.55467 18.432 2.856C19.7547 3.944 20.416 5.42667 20.416 7.304C20.416 9.48 19.3493 11.144 17.216 12.296C19.264 13.4693 20.48 14.9093 20.864 16.616C20.992 17.2133 21.056 18.0027 21.056 18.984C21.056 19.9653 20.7893 20.8933 20.256 21.768C19.7227 22.6427 19.008 23.3787 18.112 23.976C16.32 25.128 14.0267 25.704 11.232 25.704C9.248 25.704 7.04 25.256 4.608 24.36C2.98667 23.7627 1.792 23.048 1.024 22.216C0.64 21.8107 0.448 21.4053 0.448 21C0.469333 20.5947 0.672 20.392 1.056 20.392C1.46133 20.392 2.21867 20.5307 3.328 20.808V20.776C3.328 19.112 3.52 17.4053 3.904 15.656C4.56533 12.6053 5.33333 10.216 6.208 8.488C7.14667 6.568 8.11733 5.608 9.12 5.608C9.39733 5.608 9.536 6.088 9.536 7.048C9.536 8.008 9.44 8.98933 9.248 9.992C9.07733 10.9947 8.88533 11.9867 8.672 12.968C8.48 13.928 8.288 14.8027 8.096 15.592C7.92533 16.3813 7.84 16.9467 7.84 17.288L7.52 22.12C8.77867 22.4613 9.84533 22.632 10.72 22.632C11.5947 22.632 12.384 22.4827 13.088 22.184C14.8587 21.4373 15.744 20.136 15.744 18.28C15.744 17.1707 15.6373 16.2533 15.424 15.528C15.2107 14.8027 14.8267 14.1627 14.272 13.608C13.7813 13.7147 13.376 13.768 13.056 13.768ZM43.2643 17.448C43.6483 17.448 43.8403 17.9387 43.8403 18.92C43.8403 19.4533 43.6163 20.104 43.1683 20.872C42.7203 21.6187 42.1336 22.312 41.4083 22.952C40.7043 23.5707 39.9149 24.0827 39.0403 24.488C38.1656 24.8933 37.3123 25.096 36.4803 25.096C35.3496 25.096 34.5923 24.104 34.2083 22.12C33.6536 23.0373 32.9283 23.7947 32.0323 24.392C31.1363 24.968 29.9309 25.256 28.4163 25.256C26.9229 25.256 25.7176 24.7867 24.8003 23.848C23.8829 22.9093 23.4349 21.768 23.4563 20.424C23.4563 16.7973 24.6616 13.9387 27.0723 11.848C28.0963 10.9733 29.0456 10.3973 29.9203 10.12C30.8163 9.84267 31.7549 9.704 32.7363 9.704C33.7176 9.704 34.5176 9.87467 35.1363 10.216C35.4349 9.59733 35.7763 9.288 36.1603 9.288C36.9069 9.288 37.6109 9.61867 38.2723 10.28C38.9549 10.92 39.2963 11.528 39.2963 12.104C38.9976 12.808 38.5603 13.6507 37.9843 14.632C37.8136 15.6133 37.7283 16.9893 37.7283 18.76C37.7283 20.5307 37.9523 21.416 38.4003 21.416C38.9549 21.416 40.2989 20.3067 42.4323 18.088C42.8163 17.6613 43.0936 17.448 43.2643 17.448ZM28.1603 19.368C28.1603 21.0107 28.7683 21.832 29.9843 21.832C31.2856 21.8107 32.3629 21.1173 33.2163 19.752C33.5149 19.2827 33.7603 18.7067 33.9523 18.024C33.9523 15.6347 34.1656 13.5867 34.5923 11.88C32.8643 12.2213 31.3603 13.0533 30.0803 14.376C28.8003 15.6987 28.1603 17.3627 28.1603 19.368ZM51.5853 17.992C52.1613 20.2747 53.1319 21.416 54.4973 21.416C55.1586 21.416 55.7559 21.2133 56.2893 20.808C56.8226 20.4027 57.3026 19.9653 57.7292 19.496C58.1559 19.0053 58.5293 18.5573 58.8493 18.152C59.1693 17.7467 59.4679 17.544 59.7453 17.544C60.0226 17.544 60.1613 17.9067 60.1613 18.632C60.1613 20.1467 59.4573 21.608 58.0493 23.016C56.6413 24.424 55.0626 25.1173 53.3133 25.096C51.5853 25.096 50.0386 23.5707 48.6733 20.52C48.2893 19.6667 47.9266 18.8027 47.5853 17.928L47.3613 22.312C47.3613 22.7173 47.3399 23.1227 47.2973 23.528C47.2546 23.912 47.0733 24.232 46.7533 24.488C45.9213 25.1493 45.0786 25.48 44.2253 25.48C43.2226 25.48 42.7213 24.4453 42.7213 22.376C42.7213 19.3893 43.0733 16.264 43.7773 13C44.4813 9.736 45.1639 7.28267 45.8253 5.64C46.5079 3.976 47.0306 2.86667 47.3933 2.312C47.7773 1.75733 48.0759 1.416 48.2893 1.288C48.5026 1.16 48.7373 1.096 48.9933 1.096C49.2706 1.096 49.5586 1.23467 49.8573 1.512C50.1559 1.768 50.4759 2.17333 50.8173 2.728C51.1586 3.26133 51.3293 3.79467 51.3293 4.328C51.3506 4.84 51.2653 5.352 51.0733 5.864C50.9026 6.35467 50.6679 6.84533 50.3693 7.336C50.0706 7.80533 49.7399 8.296 49.3773 8.808C49.0146 9.29867 48.6519 9.832 48.2893 10.408L47.9693 13.096C48.7159 11.5387 49.8146 10.4933 51.2653 9.96C51.7773 9.768 52.3746 9.672 53.0573 9.672C54.4226 9.672 55.4679 10.0027 56.1933 10.664C56.9186 11.304 57.2812 12.2533 57.2812 13.512C57.2812 14.7707 56.6519 15.8373 55.3933 16.712C54.1346 17.5867 52.8653 18.0133 51.5853 17.992ZM52.8013 14.248C52.8013 13.48 52.3639 13.096 51.4893 13.096C50.6146 13.096 49.6653 13.9387 48.6413 15.624C48.3426 16.1147 48.0866 16.616 47.8733 17.128C50.0919 17 51.6066 16.4027 52.4173 15.336C52.6733 14.9947 52.8013 14.632 52.8013 14.248ZM66.0098 21.512C67.6738 21.512 69.2844 20.8507 70.8418 19.528C71.4178 19.0373 71.8871 18.5893 72.2498 18.184C72.6124 17.7573 72.8898 17.544 73.0818 17.544C73.3804 17.544 73.5298 17.8427 73.5298 18.44C73.5298 19.0373 73.3698 19.7093 73.0498 20.456C72.7298 21.1813 72.1964 21.896 71.4498 22.6C69.6151 24.328 67.0978 25.192 63.8978 25.192C61.3591 25.192 59.6311 24.2747 58.7138 22.44C58.3938 21.8 58.2338 20.8827 58.2338 19.688C58.2338 18.4933 58.4684 17.256 58.9378 15.976C59.4071 14.6747 60.0258 13.5547 60.7938 12.616C61.5831 11.6773 62.4898 10.952 63.5138 10.44C64.5378 9.90667 65.6258 9.64 66.7778 9.64C67.9511 9.64 68.8471 9.928 69.4658 10.504C70.1058 11.08 70.4258 11.8267 70.4258 12.744C70.4258 13.6613 70.1911 14.4187 69.7218 15.016C69.2738 15.592 68.6871 16.0827 67.9618 16.488C67.2364 16.872 66.4258 17.224 65.5298 17.544C64.6551 17.8427 63.7911 18.184 62.9378 18.568V19.368C62.9591 20.136 63.2791 20.68 63.8978 21C64.5164 21.32 65.2204 21.4907 66.0098 21.512ZM65.4658 12.488C64.3564 12.488 63.5884 13.7787 63.1618 16.36C63.6098 16.0613 64.0258 15.7947 64.4098 15.56C64.8151 15.3253 65.1671 15.1013 65.4658 14.888C66.1058 14.4187 66.4364 13.8853 66.4578 13.288C66.4578 12.7547 66.1271 12.488 65.4658 12.488ZM76.6008 19.624L76.7928 23.528C76.7928 24.04 76.5261 24.4987 75.9928 24.904C75.4594 25.3093 74.7341 25.512 73.8168 25.512C73.2834 25.512 72.9101 25.2347 72.6968 24.68C72.5048 24.1253 72.4088 23.3147 72.4088 22.248C72.4088 20.008 72.5154 18.2587 72.7288 17C72.9634 15.72 73.4114 14.4293 74.0728 13.128C73.0914 12.1893 72.6008 11.3787 72.6008 10.696C72.6008 9.26667 73.3688 8.552 74.9048 8.552C75.6941 8.552 76.3874 8.968 76.9848 9.8C77.4114 10.376 77.7208 11.048 77.9128 11.816C78.2114 11.9227 78.5848 11.976 79.0328 11.976C79.6514 11.976 80.3661 11.7733 81.1768 11.368L82.0088 10.952C82.2648 10.824 82.4888 10.76 82.6808 10.76C83.2994 10.76 83.9181 11.6667 84.5368 13.48C84.3448 14.312 84.1314 15.112 83.8968 15.88C83.6834 16.648 83.4274 17.576 83.1288 18.664C82.8301 19.752 82.6701 20.488 82.6488 20.872C82.6488 21.2347 82.7661 21.416 83.0008 21.416C83.3208 21.416 83.7154 21.2133 84.1848 20.808C84.6541 20.4027 85.1234 19.9653 85.5928 19.496C86.0621 19.0053 86.4888 18.5573 86.8728 18.152C87.2781 17.7467 87.5554 17.544 87.7048 17.544C88.0034 17.544 88.1528 17.9067 88.1528 18.632C88.1528 20.104 87.5021 21.5547 86.2008 22.984C84.9208 24.4133 83.4488 25.1173 81.7848 25.096C80.8034 25.096 80.0674 24.7013 79.5768 23.912C79.0861 23.1227 78.8301 22.1627 78.8088 21.032C78.8088 18.792 79.3101 16.6693 80.3128 14.664C79.8434 14.856 79.3101 14.952 78.7128 14.952C78.1368 14.952 77.7208 14.9307 77.4648 14.888C77.2728 15.6987 77.0808 16.52 76.8888 17.352C76.6968 18.1627 76.6008 18.92 76.6008 19.624ZM93.8498 9.512C95.2791 9.49067 96.3458 9.75733 97.0498 10.312C97.7538 10.8453 98.1058 11.624 98.1058 12.648C98.1058 13.6507 97.7964 14.5147 97.1778 15.24C96.5804 15.944 95.8444 16.4453 94.9698 16.744C95.5884 17.384 96.1431 18.0347 96.6338 18.696C97.1458 19.3573 97.4018 20.0507 97.4018 20.776C97.4018 22.2053 96.8364 23.3147 95.7058 24.104C94.5751 24.872 92.9964 25.256 90.9698 25.256C88.9644 25.256 87.4604 24.8613 86.4578 24.072C85.4551 23.2613 84.9537 22.3547 84.9537 21.352C84.9537 20.328 85.1991 19.4 85.6898 18.568C86.2018 17.736 86.7458 17.32 87.3218 17.32C87.6631 17.32 87.9084 17.448 88.0578 17.704C88.2071 17.9387 88.4844 18.6427 88.8898 19.816C89.0391 20.2427 89.2844 20.648 89.6258 21.032C90.4151 21.9067 91.6631 22.344 93.3698 22.344C93.1138 21.5333 92.6978 20.84 92.1218 20.264C91.5671 19.6667 91.0124 19.0907 90.4578 18.536C89.9031 17.9813 89.4124 17.3947 88.9858 16.776C88.5591 16.136 88.3458 15.3893 88.3458 14.536C88.3458 13 88.9218 11.752 90.0738 10.792C91.1618 9.93867 92.4204 9.512 93.8498 9.512ZM93.7218 15.432C94.5751 14.5147 95.0017 13.7787 95.0017 13.224C95.0017 12.968 94.9058 12.744 94.7138 12.552C94.5431 12.3387 94.2871 12.232 93.9458 12.232C93.6044 12.232 93.2738 12.2747 92.9538 12.36C92.6551 12.4453 92.4098 12.5093 92.2178 12.552C92.2178 13.3627 92.7191 14.3227 93.7218 15.432ZM128.274 19.816C128.829 19.4107 129.33 18.92 129.778 18.344C130.226 17.7467 130.599 17.448 130.898 17.448C131.218 17.448 131.378 17.9173 131.378 18.856C131.378 19.7733 131.111 20.648 130.578 21.48C130.066 22.2907 129.383 22.9733 128.53 23.528C126.781 24.68 124.711 25.256 122.322 25.256C119.421 25.256 117.17 24.5307 115.57 23.08C113.97 21.6293 113.17 19.6133 113.17 17.032C113.17 13.8533 113.938 10.8347 115.474 7.976C115.986 7.03733 116.562 6.17333 117.202 5.384C116.711 4.808 116.317 4.21067 116.018 3.592C115.741 2.952 115.602 2.472 115.602 2.152C115.602 1.576 115.815 1.288 116.242 1.288C116.541 1.30933 116.882 1.512 117.266 1.896L118.258 2.856C118.514 3.112 118.781 3.32533 119.058 3.496C121.17 1.704 123.442 0.807999 125.874 0.807999C128.327 0.807999 129.917 1.49067 130.642 2.856C130.898 3.368 131.026 3.99733 131.026 4.744C131.026 5.87467 130.535 6.824 129.554 7.592C128.573 8.36 127.25 8.744 125.586 8.744C123.943 8.744 122.237 8.40267 120.466 7.72C118.951 10.3013 118.194 13 118.194 15.816C118.194 19.72 119.751 21.672 122.866 21.672C124.786 21.672 126.589 21.0533 128.274 19.816ZM122.002 5.736C123.09 6.09867 124.274 6.28 125.554 6.28C126.834 6.28 127.474 5.928 127.474 5.224C127.474 4.392 126.951 3.976 125.906 3.976C124.477 3.976 123.175 4.56267 122.002 5.736ZM142.701 22.28C141.015 24.264 138.989 25.256 136.621 25.256C134.274 25.256 132.514 24.6587 131.341 23.464C130.167 22.248 129.591 20.744 129.613 18.952C129.591 16.4133 130.391 14.2267 132.013 12.392C133.634 10.5573 135.757 9.64 138.381 9.64C139.575 9.64 140.535 9.78933 141.261 10.088C142.519 10.6 143.149 11.08 143.149 11.528C143.149 11.8693 142.263 12.0507 140.493 12.072C138.743 12.072 137.271 12.68 136.077 13.896C134.903 15.0907 134.317 16.6053 134.317 18.44C134.317 19.4 134.594 20.2107 135.149 20.872C135.725 21.512 136.525 21.832 137.549 21.832C138.594 21.832 139.458 21.6187 140.141 21.192C138.626 20.168 137.869 18.6853 137.869 16.744C137.847 15.72 138.21 14.792 138.957 13.96C139.725 13.1067 140.695 12.68 141.869 12.68C143.063 12.6587 143.917 12.9787 144.429 13.64C144.941 14.3013 145.197 15.1547 145.197 16.2C145.197 17.224 144.951 18.312 144.461 19.464H144.653C145.591 19.4427 146.402 19.112 147.085 18.472C147.341 18.216 147.554 17.992 147.725 17.8C147.917 17.608 148.109 17.512 148.301 17.512C148.599 17.512 148.749 17.864 148.749 18.568C148.749 19.8693 148.365 20.8507 147.597 21.512C146.829 22.152 145.975 22.472 145.037 22.472C144.119 22.472 143.341 22.408 142.701 22.28ZM142.413 18.568C142.775 17.8 142.957 17.0533 142.957 16.328C142.957 15.6027 142.722 15.24 142.253 15.24C142.061 15.24 141.901 15.3787 141.773 15.656C141.645 15.9333 141.581 16.2 141.581 16.456C141.581 17.3093 141.858 18.0133 142.413 18.568ZM157.1 11.496C157.1 10.0667 158.209 9.352 160.428 9.352C160.982 9.352 161.324 9.53333 161.452 9.896C161.601 10.2587 161.676 10.8133 161.676 11.56C161.676 12.6053 161.441 14.2267 160.972 16.424C160.502 18.6213 160.278 20.104 160.3 20.872C160.3 21.2347 160.417 21.416 160.652 21.416C160.972 21.416 161.366 21.2133 161.836 20.808C162.305 20.4027 162.774 19.9653 163.244 19.496C163.713 19.0053 164.14 18.5573 164.524 18.152C164.929 17.7467 165.206 17.544 165.356 17.544C165.654 17.544 165.804 17.9067 165.804 18.632C165.804 20.1253 165.068 21.5653 163.596 22.952C161.121 24.4027 159.553 25.128 158.892 25.128C158.828 25.128 158.774 25.1173 158.732 25.096C157.921 25.096 157.345 24.8293 157.004 24.296C156.684 23.7627 156.481 23.0907 156.396 22.28C155.969 23.0693 155.382 23.752 154.635 24.328C153.889 24.8827 153.036 25.16 152.076 25.16C150.39 25.16 149.089 24.84 148.172 24.2C147.276 23.56 146.828 22.6107 146.828 21.352C146.828 20.7973 146.902 20.2853 147.052 19.816C147.222 19.3467 147.489 18.7707 147.852 18.088L148.78 10.216C149.441 9.704 150.39 9.448 151.628 9.448C152.609 9.448 153.164 10.088 153.292 11.368C153.398 12.4133 153.345 13.352 153.132 14.184C152.94 14.9947 152.673 16.0293 152.332 17.288C151.99 18.5253 151.82 19.624 151.82 20.584C151.82 21.352 152.3 21.736 153.26 21.736C154.305 21.736 155.212 20.8187 155.98 18.984C156.577 17.576 156.982 16.008 157.196 14.28C157.174 14.1093 157.153 13.896 157.132 13.64C157.132 13.3627 157.121 13.096 157.1 12.84C157.1 12.584 157.1 12.328 157.1 12.072V11.496ZM168.882 19.624L169.074 23.528C169.074 24.04 168.807 24.4987 168.274 24.904C167.741 25.3093 167.015 25.512 166.098 25.512C165.565 25.512 165.191 25.2347 164.978 24.68C164.786 24.1253 164.69 23.3147 164.69 22.248C164.69 20.008 164.797 18.2587 165.01 17C165.245 15.72 165.693 14.4293 166.354 13.128C165.373 12.1893 164.882 11.3787 164.882 10.696C164.882 9.26667 165.65 8.552 167.186 8.552C167.975 8.552 168.669 8.968 169.266 9.8C169.693 10.376 170.002 11.048 170.194 11.816C170.493 11.9227 170.866 11.976 171.314 11.976C171.933 11.976 172.647 11.7733 173.458 11.368L174.29 10.952C174.546 10.824 174.77 10.76 174.962 10.76C175.581 10.76 176.199 11.6667 176.818 13.48C176.626 14.312 176.413 15.112 176.178 15.88C175.965 16.648 175.709 17.576 175.41 18.664C175.111 19.752 174.951 20.488 174.93 20.872C174.93 21.2347 175.047 21.416 175.282 21.416C175.602 21.416 175.997 21.2133 176.466 20.808C176.935 20.4027 177.405 19.9653 177.874 19.496C178.343 19.0053 178.77 18.5573 179.154 18.152C179.559 17.7467 179.837 17.544 179.986 17.544C180.285 17.544 180.434 17.9067 180.434 18.632C180.434 20.104 179.783 21.5547 178.482 22.984C177.202 24.4133 175.73 25.1173 174.066 25.096C173.085 25.096 172.349 24.7013 171.858 23.912C171.367 23.1227 171.111 22.1627 171.09 21.032C171.09 18.792 171.591 16.6693 172.594 14.664C172.125 14.856 171.591 14.952 170.994 14.952C170.418 14.952 170.002 14.9307 169.746 14.888C169.554 15.6987 169.362 16.52 169.17 17.352C168.978 18.1627 168.882 18.92 168.882 19.624ZM180.243 23.272C180.008 22.696 179.838 22.0347 179.731 21.288C179.624 20.52 179.571 19.4533 179.571 18.088C179.571 16.7227 179.827 14.8773 180.339 12.552H178.899C178.643 12.552 178.515 12.4453 178.515 12.232C178.515 11.72 178.558 11.304 178.643 10.984C178.75 10.6427 178.984 10.2587 179.347 9.832H180.115C180.414 9.832 180.734 9.82133 181.075 9.8C182.099 6.51467 183.144 4.872 184.211 4.872C185.064 4.89333 185.662 5.43733 186.003 6.504C186.088 6.80267 186.184 7.12267 186.291 7.464L184.979 9.768C186.472 9.81067 187.411 9.832 187.795 9.832C188.2 9.832 188.414 9.87467 188.435 9.96C188.478 10.024 188.499 10.1307 188.499 10.28C188.499 10.664 188.403 11.144 188.211 11.72C188.04 12.296 187.838 12.5733 187.603 12.552L184.403 12.392C183.955 14.9947 183.731 17.1493 183.731 18.856C183.731 20.5627 183.976 21.416 184.467 21.416C184.872 21.416 185.608 21.0853 186.675 20.424C187.742 19.7413 188.51 19.0907 188.979 18.472C189.448 17.8533 189.832 17.544 190.131 17.544C190.43 17.544 190.579 17.9067 190.579 18.632C190.579 19.3573 190.323 20.104 189.811 20.872C189.299 21.6187 188.648 22.312 187.859 22.952C187.091 23.5707 186.227 24.0827 185.267 24.488C184.328 24.8933 183.507 25.096 182.803 25.096C182.099 25.096 181.555 24.936 181.171 24.616C180.808 24.2747 180.499 23.8267 180.243 23.272Z" fill="#4F1114"/>
</svg>
