<svg width="67" height="49" viewBox="0 0 67 49" fill="none" xmlns="http://www.w3.org/2000/svg">
<path d="M39.75 27.5508C37.25 27.5508 35.125 26.6758 33.375 24.9258C31.625 23.1758 30.75 21.0508 30.75 18.5508C30.75 16.0508 31.625 13.9258 33.375 12.1758C35.125 10.4258 37.25 9.55079 39.75 9.55079C42.25 9.55079 44.375 10.4258 46.125 12.1758C47.875 13.9258 48.75 16.0508 48.75 18.5508C48.75 21.0508 47.875 23.1758 46.125 24.9258C44.375 26.6758 42.25 27.5508 39.75 27.5508ZM18.75 36.5508C17.1 36.5508 15.687 35.9628 14.511 34.7868C13.335 33.6108 12.748 32.1988 12.75 30.5508V6.55079C12.75 4.90079 13.338 3.48779 14.514 2.31179C15.69 1.13579 17.102 0.548786 18.75 0.550786H60.75C62.4 0.550786 63.813 1.13879 64.989 2.31479C66.165 3.49079 66.752 4.90279 66.75 6.55079V30.5508C66.75 32.2008 66.162 33.6138 64.986 34.7898C63.81 35.9658 62.398 36.5528 60.75 36.5508H18.75ZM24.75 30.5508H54.75C54.75 28.9008 55.338 27.4878 56.514 26.3118C57.69 25.1358 59.102 24.5488 60.75 24.5508V12.5508C59.1 12.5508 57.687 11.9628 56.511 10.7868C55.335 9.61079 54.748 8.19879 54.75 6.55079H24.75C24.75 8.20079 24.162 9.61379 22.986 10.7898C21.81 11.9658 20.398 12.5528 18.75 12.5508V24.5508C20.4 24.5508 21.813 25.1388 22.989 26.3148C24.165 27.4908 24.752 28.9028 24.75 30.5508ZM57.75 48.5508H6.75001C5.10001 48.5508 3.68701 47.9628 2.51101 46.7868C1.33501 45.6108 0.748005 44.1988 0.750005 42.5508V9.55079H6.75001V42.5508H57.75V48.5508Z" fill="#323232"/>
</svg>
