<svg width="56" height="56" viewBox="0 0 56 56" fill="none" xmlns="http://www.w3.org/2000/svg">
<path fill-rule="evenodd" clip-rule="evenodd" d="M45.5 9.33333H10.5C10.1906 9.33333 9.89383 9.45625 9.67504 9.67504C9.45625 9.89383 9.33333 10.1906 9.33333 10.5V45.5C9.33333 45.8094 9.45625 46.1062 9.67504 46.325C9.89383 46.5438 10.1906 46.6667 10.5 46.6667H45.5C45.8094 46.6667 46.1062 46.5438 46.325 46.325C46.5438 46.1062 46.6667 45.8094 46.6667 45.5V10.5C46.6667 10.1906 46.5438 9.89383 46.325 9.67504C46.1062 9.45625 45.8094 9.33333 45.5 9.33333ZM10.5 7C9.57174 7 8.6815 7.36875 8.02513 8.02513C7.36875 8.6815 7 9.57174 7 10.5V45.5C7 46.4283 7.36875 47.3185 8.02513 47.9749C8.6815 48.6312 9.57174 49 10.5 49H45.5C46.4283 49 47.3185 48.6312 47.9749 47.9749C48.6312 47.3185 49 46.4283 49 45.5V10.5C49 9.57174 48.6312 8.6815 47.9749 8.02513C47.3185 7.36875 46.4283 7 45.5 7H10.5Z" fill="#EF3C45"/>
<path fill-rule="evenodd" clip-rule="evenodd" d="M23.9042 19.0516C21.9873 19.3829 20.5908 21.0069 20.3622 22.9389L18.667 37.3332H37.3337L35.635 22.9191C35.4087 20.9964 34.025 19.3759 32.1187 19.0422C29.2603 18.5417 26.878 18.5371 23.9042 19.0516ZM25.352 24.0892C25.3826 23.7861 25.2935 23.4831 25.1036 23.2448C24.9137 23.0066 24.6382 22.8521 24.3359 22.8143C24.0337 22.7765 23.7286 22.8585 23.4859 23.0426C23.2433 23.2268 23.0823 23.4986 23.0373 23.7999L21.9815 32.2442C21.9586 32.3981 21.9666 32.5549 22.0052 32.7056C22.0437 32.8563 22.1121 32.9977 22.2061 33.1216C22.3001 33.2455 22.418 33.3493 22.5527 33.427C22.6874 33.5047 22.8364 33.5546 22.9907 33.5739C23.145 33.5932 23.3017 33.5815 23.4514 33.5393C23.6011 33.4972 23.7409 33.4256 23.8625 33.3287C23.9841 33.2317 24.0852 33.1114 24.1596 32.9749C24.2341 32.8384 24.2805 32.6883 24.2962 32.5336L25.352 24.0892Z" fill="#EF3C45"/>
<path fill-rule="evenodd" clip-rule="evenodd" d="M26.2197 21.0897C26.7355 21.456 27.1425 21.9552 27.3972 22.5343C27.652 23.1135 27.745 23.7508 27.6663 24.3786L26.6117 32.8229C26.502 33.6979 26.0797 34.4562 25.4683 34.9999H34.7083L33.3177 23.1921C33.1987 22.1771 32.4963 21.4771 31.717 21.3406C29.7675 20.9999 28.0887 20.9124 26.2197 21.0897ZM35.6347 22.9191C35.4083 20.9964 34.0247 19.3759 32.1183 19.0422C29.26 18.5417 26.8777 18.5371 23.9038 19.0516C21.987 19.3829 20.5905 21.0069 20.3618 22.9389L18.6667 37.3332H37.3333L35.6347 22.9191ZM25.3517 24.0892L24.2958 32.5336C24.2802 32.6883 24.2338 32.8384 24.1593 32.9749C24.0848 33.1114 23.9838 33.2317 23.8622 33.3287C23.7406 33.4256 23.6008 33.4972 23.4511 33.5393C23.3013 33.5815 23.1447 33.5932 22.9904 33.5739C22.836 33.5546 22.6871 33.5047 22.5524 33.427C22.4176 33.3493 22.2998 33.2455 22.2058 33.1216C22.1117 32.9977 22.0434 32.8563 22.0048 32.7056C21.9663 32.5549 21.9582 32.3981 21.9812 32.2442L23.037 23.7999C23.0526 23.6451 23.0991 23.4951 23.1735 23.3585C23.248 23.222 23.349 23.1017 23.4706 23.0048C23.5923 22.9079 23.7321 22.8362 23.8818 22.7941C24.0315 22.752 24.1881 22.7402 24.3425 22.7595C24.4968 22.7788 24.6457 22.8287 24.7805 22.9064C24.9152 22.9841 25.0331 23.088 25.1271 23.2118C25.2211 23.3357 25.2894 23.4772 25.328 23.6278C25.3666 23.7785 25.3746 23.9354 25.3517 24.0892ZM38.5 41.9999H17.5V39.6666H38.5V41.9999Z" fill="#EF3C45"/>
<path d="M15.167 28.0001C15.167 28.3932 15.1845 28.7817 15.2195 29.1667H11.667V26.8334H15.2195C15.1845 27.2184 15.167 27.6069 15.167 28.0001ZM17.5143 20.5987C17.0644 21.2354 16.6735 21.9117 16.3465 22.6194L13.2723 20.8437L14.439 18.8231L17.5143 20.5987ZM22.6185 16.3451C21.908 16.6752 21.2325 17.0672 20.6002 17.5141L18.8233 14.4387L20.844 13.2721L22.6185 16.3451ZM28.0003 15.1667C27.6072 15.1667 27.2187 15.1842 26.8337 15.2192V11.6667H29.167V15.2192C28.7791 15.1843 28.3898 15.1668 28.0003 15.1667ZM35.4017 17.5141C34.765 17.0642 34.0887 16.6733 33.381 16.3462L35.1567 13.2721L37.1773 14.4387L35.4017 17.5141ZM39.6553 22.6182C39.3278 21.9113 38.9366 21.2357 38.4863 20.5999L41.5617 18.8231L42.7283 20.8437L39.6542 22.6182H39.6553ZM40.8337 28.0001C40.8337 27.6069 40.8162 27.2184 40.7812 26.8334H44.3337V29.1667H40.7812C40.8162 28.7817 40.8337 28.3932 40.8337 28.0001Z" fill="#EF3C45"/>
</svg>
