<svg width="52" height="49" viewBox="0 0 52 49" fill="none" xmlns="http://www.w3.org/2000/svg">
<path fill-rule="evenodd" clip-rule="evenodd" d="M35.917 3.75V7.69333L40.5837 11.4267V3.75H35.917ZM44.0837 14.2267V3.16667C44.0837 1.55667 42.777 0.25 41.167 0.25H35.3337C33.7237 0.25 32.417 1.55667 32.417 3.16667V4.89333L31.4673 4.13267C29.9157 2.89101 27.9876 2.21453 26.0003 2.21453C24.013 2.21453 22.085 2.89101 20.5333 4.13267L1.57499 19.2993C1.21235 19.5893 0.979739 20.0114 0.928323 20.4728C0.876906 20.9342 1.0109 21.3972 1.30083 21.7598C1.59075 22.1225 2.01286 22.3551 2.47429 22.4065C2.93573 22.4579 3.39869 22.3239 3.76133 22.034L5.58366 20.5733V44.5833H2.66699C2.20286 44.5833 1.75774 44.7677 1.42956 45.0959C1.10137 45.4241 0.916992 45.8692 0.916992 46.3333C0.916992 46.7975 1.10137 47.2426 1.42956 47.5708C1.75774 47.899 2.20286 48.0833 2.66699 48.0833H49.3337C49.7978 48.0833 50.2429 47.899 50.5711 47.5708C50.8993 47.2426 51.0837 46.7975 51.0837 46.3333C51.0837 45.8692 50.8993 45.4241 50.5711 45.0959C50.2429 44.7677 49.7978 44.5833 49.3337 44.5833H46.417V20.5733L48.2417 22.034C48.6049 22.3171 49.0651 22.4455 49.5224 22.3916C49.9798 22.3376 50.3974 22.1056 50.6848 21.7457C50.9722 21.3859 51.1061 20.9273 51.0576 20.4693C51.0091 20.0114 50.782 19.591 50.4257 19.2993L44.0837 14.2267ZM42.917 17.7733L29.281 6.865C28.3499 6.11977 27.1929 5.71375 26.0003 5.71375C24.8078 5.71375 23.6507 6.11977 22.7197 6.865L9.08366 17.7733V44.5833H17.2503V34.55C17.2503 33.0007 17.2503 31.6637 17.395 30.5927C17.549 29.4447 17.8967 28.3457 18.788 27.4543C19.6793 26.563 20.7807 26.2153 21.9263 26.0613C22.9973 25.9167 24.3343 25.9167 25.886 25.9167H26.1147C27.6663 25.9167 29.0033 25.9167 30.0743 26.0613C31.2223 26.2153 32.3213 26.563 33.2127 27.4543C34.104 28.3457 34.4517 29.4447 34.6057 30.5927C34.7503 31.6637 34.7503 33.0007 34.7503 34.5523V44.5833H42.917V17.7733ZM31.2503 44.5833V34.6667C31.2503 32.968 31.2457 31.8667 31.1383 31.0593C31.0357 30.301 30.8723 30.063 30.737 29.93C30.604 29.797 30.366 29.6313 29.6077 29.5287C28.798 29.4213 27.699 29.4167 26.0003 29.4167C24.3017 29.4167 23.2003 29.4213 22.393 29.5287C21.6347 29.6313 21.3967 29.797 21.2637 29.93C21.1307 30.063 20.965 30.301 20.8623 31.0593C20.755 31.869 20.7503 32.968 20.7503 34.6667V44.5833H31.2503ZM26.0003 14.25C25.6173 14.25 25.238 14.3254 24.8842 14.472C24.5303 14.6186 24.2088 14.8334 23.9379 15.1043C23.6671 15.3751 23.4523 15.6966 23.3057 16.0505C23.1591 16.4044 23.0837 16.7836 23.0837 17.1667C23.0837 17.5497 23.1591 17.929 23.3057 18.2828C23.4523 18.6367 23.6671 18.9582 23.9379 19.2291C24.2088 19.4999 24.5303 19.7147 24.8842 19.8613C25.238 20.0079 25.6173 20.0833 26.0003 20.0833C26.7739 20.0833 27.5157 19.776 28.0627 19.2291C28.6097 18.6821 28.917 17.9402 28.917 17.1667C28.917 16.3931 28.6097 15.6513 28.0627 15.1043C27.5157 14.5573 26.7739 14.25 26.0003 14.25ZM19.5837 17.1667C19.5837 15.4649 20.2597 13.8328 21.4631 12.6294C22.6664 11.426 24.2985 10.75 26.0003 10.75C27.7021 10.75 29.3342 11.426 30.5376 12.6294C31.741 13.8328 32.417 15.4649 32.417 17.1667C32.417 18.8685 31.741 20.5006 30.5376 21.7039C29.3342 22.9073 27.7021 23.5833 26.0003 23.5833C24.2985 23.5833 22.6664 22.9073 21.4631 21.7039C20.2597 20.5006 19.5837 18.8685 19.5837 17.1667Z" fill="#ED8A09"/>
</svg>
