<svg width="214" height="30" viewBox="0 0 214 30" fill="none" xmlns="http://www.w3.org/2000/svg">
<path d="M15.36 20.152C15.36 21.24 15.2427 22.2107 15.008 23.064C14.0693 23.064 12.6827 23.0853 10.848 23.128L6.656 23.16C4.75733 23.16 2.85867 23.096 0.96 22.968C0.981333 22.2853 0.949333 19.6293 0.864 15C0.8 12.376 0.768 10.36 0.768 8.952C0.768 6.02933 0.842667 3.30933 0.992 0.792L3.808 0.695999C6.96533 0.568 9.376 0.504 11.04 0.504C12.4693 0.504 13.856 0.557333 15.2 0.664C15.2853 1.112 15.328 1.63467 15.328 2.232C15.328 2.552 15.3067 3.07467 15.264 3.8C15.2213 4.48267 15.2 5.016 15.2 5.4C13.92 5.67733 12.4907 5.816 10.912 5.816L6.752 5.848C6.64533 6.85067 6.592 7.68267 6.592 8.344C6.592 8.856 6.656 9.304 6.784 9.688L8.896 9.432C9.19467 9.432 9.64267 9.45333 10.24 9.496L10.656 9.528C10.7627 10.168 10.816 10.8613 10.816 11.608L10.752 14.168C10.0693 14.36 9.152 14.456 8 14.456L7.168 14.424C7.01867 14.424 6.92267 14.4453 6.88 14.488L6.752 16.152C6.752 17.0267 6.79467 17.752 6.88 18.328C7.98933 18.328 9.06667 18.36 10.112 18.424C10.4747 18.4453 10.9227 18.4667 11.456 18.488C11.9893 18.5093 12.6187 18.52 13.344 18.52L15.296 18.456C15.3387 19.4373 15.36 20.0027 15.36 20.152ZM21.412 16.44C21.6253 15.4373 21.8493 14.232 22.084 12.824C22.5747 10.0933 23.044 8.14133 23.492 6.968L25.124 6.936C25.9347 6.89333 26.564 6.872 27.012 6.872C27.7373 6.872 28.3027 6.89333 28.708 6.936C28.2173 8.30133 27.78 9.74133 27.396 11.256C27.012 12.7707 26.564 14.7227 26.052 17.112C25.4547 19.8427 24.9853 21.848 24.644 23.128C23.8973 23.256 22.98 23.32 21.892 23.32L17.732 23.256C16.708 17.0267 15.556 11.5227 14.276 6.744C14.8307 6.85067 15.4493 6.904 16.132 6.904C16.58 6.904 16.9213 6.89333 17.156 6.872L18.244 6.84C18.692 6.84 19.1933 6.872 19.748 6.936L20.42 10.84C20.7827 13.2507 21.1133 15.1173 21.412 16.44ZM33.2845 15.896C33.3058 16.6 33.3378 17.1227 33.3805 17.464C33.4445 17.784 33.5938 18.1253 33.8285 18.488C33.9992 18.808 34.2232 19.0533 34.5005 19.224C34.7778 19.3947 35.0658 19.48 35.3645 19.48C35.8125 19.48 36.1752 19.2453 36.4525 18.776C36.7298 18.2853 36.8472 17.5707 36.8045 16.632C37.4232 16.7173 38.0845 16.7387 38.7885 16.696L41.7965 16.856C41.7965 17.816 41.7218 18.7867 41.5725 19.768C41.4445 20.7493 41.1885 21.496 40.8045 22.008C40.3778 22.6053 39.7592 23.0107 38.9485 23.224C38.1592 23.4587 37.2312 23.576 36.1645 23.576C35.7592 23.576 35.1938 23.5547 34.4685 23.512C34.1272 23.4907 33.6258 23.48 32.9645 23.48C32.3032 23.3947 31.6418 23.16 30.9805 22.776C29.9565 21.9653 29.1992 20.8133 28.7085 19.32C28.2178 17.8267 27.9725 16.2053 27.9725 14.456C27.9725 12.6213 28.2285 10.936 28.7405 9.4C29.1672 8.44 29.9565 7.69333 31.1085 7.16C32.2605 6.62667 33.5405 6.36 34.9485 6.36C35.7165 6.36 36.4632 6.44533 37.1885 6.616C38.8312 6.936 40.0258 7.71467 40.7725 8.952C41.5405 10.168 41.9245 11.6293 41.9245 13.336C41.9245 13.6133 41.9032 14.0933 41.8605 14.776C41.4552 14.8827 40.5272 14.9893 39.0765 15.096C37.6258 15.1813 36.2712 15.224 35.0125 15.224H33.2845V15.896ZM36.4205 10.136C36.1005 9.944 35.8125 9.848 35.5565 9.848C34.8098 9.848 34.2765 10.0187 33.9565 10.36C33.6365 10.7013 33.4445 11.1813 33.3805 11.8C33.3592 11.8853 33.3485 11.9813 33.3485 12.088C33.3485 12.216 33.4125 12.2907 33.5405 12.312C33.6685 12.3333 33.9885 12.3333 34.5005 12.312H35.9085L36.8685 12.344H37.2845C37.3485 12.3653 37.3912 12.3653 37.4125 12.344C37.4338 12.3227 37.4445 12.28 37.4445 12.216V12.088C37.4445 11.64 37.3592 11.2453 37.1885 10.904C37.0392 10.5627 36.8258 10.3173 36.5485 10.168L36.4205 10.136ZM48.0473 7.672C48.1539 7.65067 48.2819 7.608 48.4313 7.544C48.6019 7.45867 48.7619 7.39467 48.9113 7.352C49.8073 7.07467 50.9699 6.936 52.3993 6.936C53.4446 6.936 53.9673 6.98933 53.9673 7.096L53.9353 8.76L53.9673 13.08L53.1033 12.792L51.2473 12.344C50.7353 12.28 50.2766 12.248 49.8713 12.248C49.2099 12.248 48.7086 12.408 48.3673 12.728C48.0259 13.048 47.8659 13.6027 47.8873 14.392C47.9726 17.016 48.0153 19.8747 48.0153 22.968C47.4606 23.1173 47.0019 23.2027 46.6393 23.224C46.2766 23.2667 45.8179 23.2773 45.2633 23.256C45.0499 23.2347 44.7086 23.224 44.2393 23.224C43.7273 23.224 43.2366 23.2453 42.7673 23.288C42.7673 20.728 42.7566 18.8293 42.7353 17.592C42.6926 14.8187 42.6713 12.7173 42.6713 11.288C42.6713 10.2427 42.6926 8.76 42.7353 6.84C43.4179 6.92533 43.9513 6.968 44.3353 6.968C44.8899 6.968 45.4339 6.936 45.9673 6.872C46.4793 6.808 46.9806 6.776 47.4713 6.776C47.8339 6.776 48.0153 6.808 48.0153 6.872L48.0473 7.64V7.672ZM68.0205 6.872C68.1058 9.34667 68.1485 12.3013 68.1485 15.736C68.1485 19.0427 68.0952 21.9227 67.9885 24.376V25.304C67.9885 25.752 67.9672 26.1147 67.9245 26.392C67.8818 26.6693 67.7752 26.9573 67.6045 27.256C67.0712 28.088 66.4845 28.664 65.8445 28.984C65.2045 29.304 64.5112 29.496 63.7645 29.56C63.5512 29.6027 63.2632 29.624 62.9005 29.624L62.1325 29.592H61.3645L60.3725 29.56C59.3058 29.56 58.3245 29.3253 57.4285 28.856C56.5325 28.3867 55.7965 27.736 55.2205 26.904C55.0712 26.648 54.9538 26.3067 54.8685 25.88C54.7832 25.4747 54.7405 25.0907 54.7405 24.728C54.7405 24.536 54.7512 24.3973 54.7725 24.312C55.3272 24.0773 56.0632 23.96 56.9805 23.96C57.5778 23.96 58.5272 24.0453 59.8285 24.216C59.8285 24.7707 59.9672 25.208 60.2445 25.528C60.5432 25.8693 60.8845 26.04 61.2685 26.04C61.5458 26.04 61.8232 25.9013 62.1005 25.624C62.3778 25.3467 62.5698 24.9947 62.6765 24.568V24.472L62.7085 24.28C62.7298 24.1947 62.7405 23.896 62.7405 23.384C62.7192 23.2987 62.7085 23.1387 62.7085 22.904C62.2178 23.0533 61.4392 23.1493 60.3725 23.192C60.0525 23.192 59.8072 23.2027 59.6365 23.224C58.5698 23.224 57.6098 23.064 56.7565 22.744C55.9245 22.424 55.3272 21.88 54.9645 21.112H54.9965C54.6978 20.5147 54.4738 19.9173 54.3245 19.32C54.1965 18.7227 54.1005 18.0507 54.0365 17.304C54.0365 15.4267 54.1325 13.8053 54.3245 12.44C54.5378 11.0747 55.0712 9.85867 55.9245 8.792C56.7778 7.704 58.0792 7.08533 59.8285 6.936C61.1085 6.936 62.0578 7.17067 62.6765 7.64C62.6765 7.32 62.7298 7.08533 62.8365 6.936C63.5832 6.85067 64.3405 6.808 65.1085 6.808L65.6525 6.84H66.1965L67.0285 6.872H68.0205ZM62.2605 19.064C62.4312 19 62.5592 18.8187 62.6445 18.52C62.7298 18.2 62.8045 17.7733 62.8685 17.24C62.8685 14.9573 62.7405 13.2613 62.4845 12.152V12.184C62.3565 11.8427 62.1645 11.5973 61.9085 11.448C61.6738 11.2773 61.4072 11.192 61.1085 11.192C60.8952 11.192 60.6712 11.2453 60.4365 11.352C60.2018 11.4373 60.0098 11.5547 59.8605 11.704V11.672C59.2205 12.376 58.8258 13.2187 58.6765 14.2C58.6338 14.4133 58.6125 14.7333 58.6125 15.16V15.704C58.6125 16.792 58.9005 17.688 59.4765 18.392C59.9245 18.9467 60.5325 19.224 61.3005 19.224C61.6418 19.224 61.9618 19.1707 62.2605 19.064ZM74.766 7.672C74.8727 7.65067 75.0007 7.608 75.15 7.544C75.3207 7.45867 75.4807 7.39467 75.63 7.352C76.526 7.07467 77.6887 6.936 79.118 6.936C80.1633 6.936 80.686 6.98933 80.686 7.096L80.654 8.76L80.686 13.08L79.822 12.792L77.966 12.344C77.454 12.28 76.9953 12.248 76.59 12.248C75.9287 12.248 75.4273 12.408 75.086 12.728C74.7447 13.048 74.5847 13.6027 74.606 14.392C74.6913 17.016 74.734 19.8747 74.734 22.968C74.1793 23.1173 73.7207 23.2027 73.358 23.224C72.9953 23.2667 72.5367 23.2773 71.982 23.256C71.7687 23.2347 71.4273 23.224 70.958 23.224C70.446 23.224 69.9553 23.2453 69.486 23.288C69.486 20.728 69.4753 18.8293 69.454 17.592C69.4113 14.8187 69.39 12.7173 69.39 11.288C69.39 10.2427 69.4113 8.76 69.454 6.84C70.1367 6.92533 70.67 6.968 71.054 6.968C71.6087 6.968 72.1527 6.936 72.686 6.872C73.198 6.808 73.6993 6.776 74.19 6.776C74.5527 6.776 74.734 6.808 74.734 6.872L74.766 7.64V7.672ZM86.0033 15.896C86.0246 16.6 86.0566 17.1227 86.0993 17.464C86.1633 17.784 86.3126 18.1253 86.5473 18.488C86.7179 18.808 86.9419 19.0533 87.2193 19.224C87.4966 19.3947 87.7846 19.48 88.0833 19.48C88.5313 19.48 88.8939 19.2453 89.1713 18.776C89.4486 18.2853 89.5659 17.5707 89.5233 16.632C90.1419 16.7173 90.8033 16.7387 91.5073 16.696L94.5153 16.856C94.5153 17.816 94.4406 18.7867 94.2913 19.768C94.1633 20.7493 93.9073 21.496 93.5233 22.008C93.0966 22.6053 92.4779 23.0107 91.6673 23.224C90.8779 23.4587 89.9499 23.576 88.8833 23.576C88.4779 23.576 87.9126 23.5547 87.1873 23.512C86.8459 23.4907 86.3446 23.48 85.6833 23.48C85.0219 23.3947 84.3606 23.16 83.6993 22.776C82.6753 21.9653 81.9179 20.8133 81.4273 19.32C80.9366 17.8267 80.6913 16.2053 80.6913 14.456C80.6913 12.6213 80.9473 10.936 81.4593 9.4C81.8859 8.44 82.6753 7.69333 83.8273 7.16C84.9793 6.62667 86.2593 6.36 87.6673 6.36C88.4353 6.36 89.1819 6.44533 89.9073 6.616C91.5499 6.936 92.7446 7.71467 93.4913 8.952C94.2593 10.168 94.6433 11.6293 94.6433 13.336C94.6433 13.6133 94.6219 14.0933 94.5793 14.776C94.1739 14.8827 93.2459 14.9893 91.7953 15.096C90.3446 15.1813 88.9899 15.224 87.7313 15.224H86.0033V15.896ZM89.1393 10.136C88.8193 9.944 88.5313 9.848 88.2753 9.848C87.5286 9.848 86.9953 10.0187 86.6753 10.36C86.3553 10.7013 86.1633 11.1813 86.0993 11.8C86.0779 11.8853 86.0673 11.9813 86.0673 12.088C86.0673 12.216 86.1313 12.2907 86.2593 12.312C86.3873 12.3333 86.7073 12.3333 87.2193 12.312H88.6273L89.5873 12.344H90.0033C90.0673 12.3653 90.1099 12.3653 90.1313 12.344C90.1526 12.3227 90.1633 12.28 90.1633 12.216V12.088C90.1633 11.64 90.0779 11.2453 89.9073 10.904C89.7579 10.5627 89.5446 10.3173 89.2673 10.168L89.1393 10.136ZM100.222 15.896C100.243 16.6 100.275 17.1227 100.318 17.464C100.382 17.784 100.531 18.1253 100.766 18.488C100.937 18.808 101.161 19.0533 101.438 19.224C101.715 19.3947 102.003 19.48 102.302 19.48C102.75 19.48 103.113 19.2453 103.39 18.776C103.667 18.2853 103.785 17.5707 103.742 16.632C104.361 16.7173 105.022 16.7387 105.726 16.696L108.734 16.856C108.734 17.816 108.659 18.7867 108.51 19.768C108.382 20.7493 108.126 21.496 107.742 22.008C107.315 22.6053 106.697 23.0107 105.886 23.224C105.097 23.4587 104.169 23.576 103.102 23.576C102.697 23.576 102.131 23.5547 101.406 23.512C101.065 23.4907 100.563 23.48 99.902 23.48C99.2407 23.3947 98.5793 23.16 97.918 22.776C96.894 21.9653 96.1367 20.8133 95.646 19.32C95.1553 17.8267 94.91 16.2053 94.91 14.456C94.91 12.6213 95.166 10.936 95.678 9.4C96.1047 8.44 96.894 7.69333 98.046 7.16C99.198 6.62667 100.478 6.36 101.886 6.36C102.654 6.36 103.401 6.44533 104.126 6.616C105.769 6.936 106.963 7.71467 107.71 8.952C108.478 10.168 108.862 11.6293 108.862 13.336C108.862 13.6133 108.841 14.0933 108.798 14.776C108.393 14.8827 107.465 14.9893 106.014 15.096C104.563 15.1813 103.209 15.224 101.95 15.224H100.222V15.896ZM103.358 10.136C103.038 9.944 102.75 9.848 102.494 9.848C101.747 9.848 101.214 10.0187 100.894 10.36C100.574 10.7013 100.382 11.1813 100.318 11.8C100.297 11.8853 100.286 11.9813 100.286 12.088C100.286 12.216 100.35 12.2907 100.478 12.312C100.606 12.3333 100.926 12.3333 101.438 12.312H102.846L103.806 12.344H104.222C104.286 12.3653 104.329 12.3653 104.35 12.344C104.371 12.3227 104.382 12.28 104.382 12.216V12.088C104.382 11.64 104.297 11.2453 104.126 10.904C103.977 10.5627 103.763 10.3173 103.486 10.168L103.358 10.136ZM114.857 8.152C114.878 8.152 114.878 8.152 114.857 8.152C114.857 8.13067 114.867 8.12 114.889 8.12C115.401 7.77867 115.987 7.512 116.649 7.32C117.331 7.10667 118.003 7 118.665 7C120.073 7 121.161 7.34133 121.929 8.024C122.526 8.55733 122.825 10.3173 122.825 13.304C122.825 14.1787 122.803 15.512 122.761 17.304C122.718 18.84 122.697 19.9387 122.697 20.6C122.697 21.3253 122.718 22.136 122.761 23.032C121.587 23.2027 120.435 23.2667 119.305 23.224H117.801C117.758 22.584 117.737 21.3467 117.737 19.512V17.912C117.737 16.8667 117.715 16.1093 117.673 15.64L117.641 15.448V15.224C117.598 14.6267 117.545 14.1573 117.481 13.816C117.438 13.4747 117.299 13.1547 117.065 12.856C116.851 12.5573 116.51 12.408 116.041 12.408C115.699 12.408 115.39 12.5573 115.113 12.856C114.835 13.1547 114.686 13.6027 114.665 14.2C114.643 14.52 114.633 15.0107 114.633 15.672C114.633 16.2053 114.654 16.984 114.697 18.008C114.739 19.0747 114.761 19.8747 114.761 20.408C114.761 21.368 114.718 22.2213 114.633 22.968C114.057 23.1173 113.587 23.2027 113.225 23.224C112.883 23.2667 112.499 23.2773 112.073 23.256C111.881 23.2347 111.571 23.224 111.145 23.224C110.654 23.224 110.174 23.2453 109.705 23.288C109.705 20.728 109.694 18.8293 109.673 17.592C109.63 14.8187 109.609 12.7173 109.609 11.288C109.609 10.2427 109.63 8.76 109.673 6.84C110.355 6.92533 110.889 6.968 111.273 6.968C111.635 6.968 111.987 6.94667 112.329 6.904L112.873 6.84C113.342 6.79733 113.705 6.776 113.961 6.776C114.473 6.776 114.75 6.85067 114.793 7C114.835 7.256 114.857 7.62933 114.857 8.12V8.152ZM145.141 20.152C145.141 21.24 145.024 22.2107 144.789 23.064C143.851 23.064 142.464 23.0853 140.629 23.128L136.437 23.16C134.539 23.16 132.64 23.096 130.741 22.968C130.763 22.2853 130.731 19.6293 130.645 15C130.581 12.376 130.549 10.36 130.549 8.952C130.549 6.02933 130.624 3.30933 130.773 0.792L133.589 0.695999C136.747 0.568 139.157 0.504 140.821 0.504C142.251 0.504 143.637 0.557333 144.981 0.664C145.067 1.112 145.109 1.63467 145.109 2.232C145.109 2.552 145.088 3.07467 145.045 3.8C145.003 4.48267 144.981 5.016 144.981 5.4C143.701 5.67733 142.272 5.816 140.693 5.816L136.533 5.848C136.427 6.85067 136.373 7.68267 136.373 8.344C136.373 8.856 136.437 9.304 136.565 9.688L138.677 9.432C138.976 9.432 139.424 9.45333 140.021 9.496L140.437 9.528C140.544 10.168 140.597 10.8613 140.597 11.608L140.533 14.168C139.851 14.36 138.933 14.456 137.781 14.456L136.949 14.424C136.8 14.424 136.704 14.4453 136.661 14.488L136.533 16.152C136.533 17.0267 136.576 17.752 136.661 18.328C137.771 18.328 138.848 18.36 139.893 18.424C140.256 18.4453 140.704 18.4667 141.237 18.488C141.771 18.5093 142.4 18.52 143.125 18.52L145.077 18.456C145.12 19.4373 145.141 20.0027 145.141 20.152ZM159.108 12.248C158.574 12.3333 157.977 12.376 157.316 12.376C156.313 12.376 155.225 12.2587 154.052 12.024C154.073 11.9387 154.084 11.8 154.084 11.608C154.084 11.16 153.945 10.7867 153.668 10.488C153.39 10.1893 152.985 10.0613 152.452 10.104C152.132 10.2107 151.865 10.392 151.652 10.648C151.46 10.8827 151.364 11.1493 151.364 11.448C151.364 11.7893 151.46 12.1093 151.652 12.408C151.844 12.7067 152.121 12.9307 152.484 13.08H152.452C154.052 13.3147 155.342 13.592 156.324 13.912C157.305 14.232 158.052 14.7227 158.564 15.384C159.14 16.3227 159.428 17.2613 159.428 18.2C159.428 18.904 159.257 19.736 158.916 20.696C158.425 21.72 157.625 22.4773 156.516 22.968C155.428 23.4587 154.169 23.6933 152.74 23.672C150.414 23.7573 148.548 23.288 147.14 22.264C145.753 21.24 145.059 19.7787 145.059 17.88C145.913 17.7733 146.788 17.72 147.684 17.72L150.756 17.784C150.777 18.296 150.98 18.7227 151.364 19.064C151.748 19.384 152.174 19.544 152.644 19.544C152.985 19.544 153.284 19.416 153.54 19.16C153.796 18.8827 153.913 18.52 153.892 18.072C153.956 17.5173 153.785 17.1333 153.38 16.92C152.974 16.6853 152.366 16.4827 151.556 16.312L151.076 16.216C150.201 16.024 149.54 15.832 149.092 15.64C147.918 15.192 147.001 14.552 146.34 13.72C145.7 12.8667 145.38 11.9813 145.38 11.064C145.38 10.0827 145.71 9.16533 146.372 8.312C147.033 7.45867 147.929 6.872 149.06 6.552C149.828 6.33867 150.948 6.232 152.42 6.232C153.977 6.232 155.385 6.38133 156.644 6.68C157.668 7.10667 158.414 7.8 158.884 8.76C159.374 9.69867 159.62 10.808 159.62 12.088L159.108 12.248ZM166.986 7.032C168.095 6.98933 169.076 6.936 169.93 6.872L170.378 6.84C170.527 6.81867 170.676 6.81867 170.826 6.84C170.996 6.84 171.135 6.84 171.242 6.84H171.978C172.063 7.69333 172.106 8.184 172.106 8.312C172.106 8.41867 172.084 8.74933 172.042 9.304L172.01 9.656L171.978 10.36C171.978 10.5093 171.999 10.7547 172.042 11.096H167.05C167.05 14.488 167.039 16.568 167.018 17.336C167.338 17.7413 167.914 18.04 168.746 18.232C169.578 18.424 170.442 18.52 171.338 18.52L172.01 18.488V18.776L172.042 18.904V18.872C172.17 19.768 172.234 20.568 172.234 21.272C172.234 21.9547 172.138 22.5733 171.946 23.128C171.391 23.1707 170.826 23.192 170.25 23.192C168.308 23.192 166.602 22.968 165.13 22.52C163.679 22.0507 162.719 21.2613 162.25 20.152C162.058 19 161.93 17.8587 161.866 16.728C161.802 15.576 161.77 14.264 161.77 12.792V11.192C161.492 11.2133 161.236 11.224 161.002 11.224C160.788 11.2027 160.596 11.192 160.426 11.192H159.466L159.562 6.968C160.138 6.98933 160.895 7 161.834 7L161.866 0.887999C162.335 0.845332 162.74 0.823999 163.082 0.823999C163.423 0.823999 163.828 0.845332 164.298 0.887999L164.522 0.919998C165.034 0.962666 165.428 0.983999 165.706 0.983999C166.111 0.983999 166.527 0.951999 166.954 0.887999V6.712L166.986 7.032ZM186.34 6.904C186.34 7.01067 186.35 7.192 186.372 7.448C186.414 7.704 186.436 7.93867 186.436 8.152C186.414 8.70667 186.404 9.53867 186.404 10.648C186.404 12.1413 186.414 13.2613 186.436 14.008V15.928L186.468 17.848C186.468 19.1067 186.436 20.3973 186.372 21.72V22.04C186.372 22.3813 186.329 22.648 186.244 22.84C186.158 23.0107 185.934 23.128 185.572 23.192H181.508C181.017 23.0427 180.772 22.7547 180.772 22.328V22.104C180.238 22.4453 179.652 22.7227 179.012 22.936C178.372 23.128 177.753 23.224 177.156 23.224C176.025 23.224 175.065 22.7653 174.276 21.848C173.508 20.9307 172.932 19.8 172.548 18.456C172.164 17.0907 171.972 15.768 171.972 14.488C171.972 13.08 172.228 11.8107 172.74 10.68C173.252 9.528 173.956 8.62133 174.852 7.96C175.748 7.29867 176.74 6.95733 177.828 6.936C178.489 6.936 179.108 6.98933 179.684 7.096C180.26 7.20267 180.622 7.33067 180.772 7.48C180.772 7.37333 180.75 7.23467 180.708 7.064C180.665 6.89333 180.676 6.76533 180.74 6.68C180.782 6.63733 180.932 6.616 181.188 6.616C181.572 6.616 182.073 6.648 182.692 6.712C183.332 6.75467 183.737 6.78667 183.908 6.808L185.924 6.904H186.34ZM176.868 15.128C176.868 16.0667 177.081 16.856 177.508 17.496C177.934 18.1147 178.51 18.424 179.236 18.424C179.705 18.424 180.046 18.296 180.26 18.04C180.473 17.784 180.601 17.4427 180.644 17.016C180.708 16.5893 180.74 15.9493 180.74 15.096V14.264C180.74 13.3467 180.718 12.728 180.676 12.408C180.654 12.0667 180.558 11.8427 180.388 11.736C180.238 11.608 179.961 11.544 179.556 11.544C178.873 11.544 178.318 11.736 177.892 12.12C177.465 12.4827 177.188 12.9307 177.06 13.464C176.932 13.8907 176.868 14.4453 176.868 15.128ZM194.455 7.032C195.564 6.98933 196.545 6.936 197.399 6.872L197.847 6.84C197.996 6.81867 198.145 6.81867 198.295 6.84C198.465 6.84 198.604 6.84 198.711 6.84H199.447C199.532 7.69333 199.575 8.184 199.575 8.312C199.575 8.41867 199.553 8.74933 199.511 9.304L199.479 9.656L199.447 10.36C199.447 10.5093 199.468 10.7547 199.511 11.096H194.519C194.519 14.488 194.508 16.568 194.487 17.336C194.807 17.7413 195.383 18.04 196.215 18.232C197.047 18.424 197.911 18.52 198.807 18.52L199.479 18.488V18.776L199.511 18.904V18.872C199.639 19.768 199.703 20.568 199.703 21.272C199.703 21.9547 199.607 22.5733 199.415 23.128C198.86 23.1707 198.295 23.192 197.719 23.192C195.777 23.192 194.071 22.968 192.599 22.52C191.148 22.0507 190.188 21.2613 189.719 20.152C189.527 19 189.399 17.8587 189.335 16.728C189.271 15.576 189.239 14.264 189.239 12.792V11.192C188.961 11.2133 188.705 11.224 188.471 11.224C188.257 11.2027 188.065 11.192 187.895 11.192H186.934L187.03 6.968C187.607 6.98933 188.364 7 189.303 7L189.335 0.887999C189.804 0.845332 190.209 0.823999 190.551 0.823999C190.892 0.823999 191.297 0.845332 191.766 0.887999L191.991 0.919998C192.503 0.962666 192.897 0.983999 193.175 0.983999C193.58 0.983999 193.996 0.951999 194.423 0.887999V6.712L194.455 7.032ZM204.91 15.896C204.931 16.6 204.963 17.1227 205.006 17.464C205.07 17.784 205.219 18.1253 205.454 18.488C205.624 18.808 205.848 19.0533 206.126 19.224C206.403 19.3947 206.691 19.48 206.99 19.48C207.438 19.48 207.8 19.2453 208.078 18.776C208.355 18.2853 208.472 17.5707 208.43 16.632C209.048 16.7173 209.71 16.7387 210.414 16.696L213.422 16.856C213.422 17.816 213.347 18.7867 213.198 19.768C213.07 20.7493 212.814 21.496 212.43 22.008C212.003 22.6053 211.384 23.0107 210.574 23.224C209.784 23.4587 208.856 23.576 207.79 23.576C207.384 23.576 206.819 23.5547 206.094 23.512C205.752 23.4907 205.251 23.48 204.59 23.48C203.928 23.3947 203.267 23.16 202.606 22.776C201.582 21.9653 200.824 20.8133 200.334 19.32C199.843 17.8267 199.598 16.2053 199.598 14.456C199.598 12.6213 199.854 10.936 200.366 9.4C200.792 8.44 201.582 7.69333 202.734 7.16C203.886 6.62667 205.166 6.36 206.574 6.36C207.342 6.36 208.088 6.44533 208.814 6.616C210.456 6.936 211.651 7.71467 212.398 8.952C213.166 10.168 213.55 11.6293 213.55 13.336C213.55 13.6133 213.528 14.0933 213.486 14.776C213.08 14.8827 212.152 14.9893 210.702 15.096C209.251 15.1813 207.896 15.224 206.638 15.224H204.91V15.896ZM208.046 10.136C207.726 9.944 207.438 9.848 207.182 9.848C206.435 9.848 205.902 10.0187 205.582 10.36C205.262 10.7013 205.07 11.1813 205.006 11.8C204.984 11.8853 204.974 11.9813 204.974 12.088C204.974 12.216 205.038 12.2907 205.166 12.312C205.294 12.3333 205.614 12.3333 206.126 12.312H207.534L208.494 12.344H208.91C208.974 12.3653 209.016 12.3653 209.038 12.344C209.059 12.3227 209.07 12.28 209.07 12.216V12.088C209.07 11.64 208.984 11.2453 208.814 10.904C208.664 10.5627 208.451 10.3173 208.174 10.168L208.046 10.136Z" fill="#24B24B"/>
</svg>
