<svg width="33" height="33" viewBox="0 0 33 33" fill="none" xmlns="http://www.w3.org/2000/svg">
<path d="M24.7505 0.675781H7.75049C3.60835 0.675781 0.250488 4.03365 0.250488 8.17578V25.1758C0.250488 29.3179 3.60835 32.6758 7.75049 32.6758H24.7505C28.8926 32.6758 32.2505 29.3179 32.2505 25.1758V8.17578C32.2505 4.03365 28.8926 0.675781 24.7505 0.675781Z" fill="url(#paint0_radial_106_853)"/>
<path d="M24.7505 0.675781H7.75049C3.60835 0.675781 0.250488 4.03365 0.250488 8.17578V25.1758C0.250488 29.3179 3.60835 32.6758 7.75049 32.6758H24.7505C28.8926 32.6758 32.2505 29.3179 32.2505 25.1758V8.17578C32.2505 4.03365 28.8926 0.675781 24.7505 0.675781Z" fill="url(#paint1_radial_106_853)"/>
<path d="M16.2516 4.17578C12.8569 4.17578 12.4307 4.19066 11.0975 4.25128C9.76674 4.31228 8.85836 4.52291 8.06361 4.83203C7.24136 5.15128 6.54399 5.57841 5.84924 6.27341C5.15386 6.96828 4.72674 7.66566 4.40649 8.48753C4.09649 9.28253 3.88561 10.1913 3.82574 11.5214C3.76611 12.8548 3.75049 13.281 3.75049 16.6759C3.75049 20.0708 3.76549 20.4955 3.82599 21.8288C3.88724 23.1595 4.09786 24.0679 4.40674 24.8627C4.72624 25.6849 5.15336 26.3823 5.84836 27.077C6.54299 27.7724 7.24036 28.2005 8.06199 28.5198C8.85736 28.8289 9.76586 29.0395 11.0964 29.1005C12.4297 29.1612 12.8555 29.176 16.2501 29.176C19.6452 29.176 20.07 29.1612 21.4032 29.1005C22.734 29.0395 23.6434 28.8289 24.4387 28.5198C25.2606 28.2005 25.957 27.7724 26.6515 27.077C27.3469 26.3823 27.7739 25.6849 28.0942 24.863C28.4015 24.0679 28.6125 23.1593 28.675 21.829C28.7349 20.4958 28.7505 20.0708 28.7505 16.6759C28.7505 13.281 28.7349 12.855 28.675 11.5217C28.6125 10.1909 28.4015 9.28266 28.0942 8.48791C27.7739 7.66566 27.3469 6.96828 26.6515 6.27341C25.9562 5.57816 25.2609 5.15103 24.438 4.83216C23.6411 4.52291 22.7322 4.31216 21.4015 4.25128C20.0681 4.19066 19.6436 4.17578 16.2477 4.17578H16.2516ZM15.1302 6.42841C15.4631 6.42791 15.8345 6.42841 16.2516 6.42841C19.5892 6.42841 19.9847 6.44041 21.3027 6.50028C22.5215 6.55603 23.183 6.75966 23.6236 6.93078C24.207 7.15728 24.6229 7.42816 25.0601 7.86578C25.4976 8.30328 25.7684 8.71991 25.9955 9.30328C26.1666 9.74328 26.3705 10.4048 26.426 11.6235C26.4859 12.9413 26.4989 13.337 26.4989 16.673C26.4989 20.009 26.4859 20.4049 26.426 21.7225C26.3702 22.9413 26.1666 23.6028 25.9955 24.0429C25.769 24.6263 25.4976 25.0417 25.0601 25.4789C24.6226 25.9164 24.2072 26.1872 23.6236 26.4138C23.1835 26.5857 22.5215 26.7888 21.3027 26.8445C19.985 26.9044 19.5892 26.9174 16.2516 26.9174C12.9139 26.9174 12.5182 26.9044 11.2006 26.8445C9.98186 26.7883 9.32036 26.5847 8.87936 26.4135C8.29611 26.1869 7.87936 25.9162 7.44186 25.4787C7.00436 25.0412 6.73361 24.6255 6.50649 24.0419C6.33536 23.6018 6.13149 22.9403 6.07599 21.7215C6.01611 20.4038 6.00411 20.008 6.00411 16.6699C6.00411 13.3319 6.01611 12.9382 6.07599 11.6204C6.13174 10.4017 6.33536 9.74016 6.50649 9.29953C6.73311 8.71616 7.00436 8.29953 7.44199 7.86203C7.87949 7.42453 8.29611 7.15366 8.87949 6.92666C9.32011 6.75478 9.98186 6.55166 11.2006 6.49566C12.3537 6.44353 12.8006 6.42791 15.1302 6.42528V6.42841ZM22.9241 8.50391C22.096 8.50391 21.4241 9.17516 21.4241 10.0034C21.4241 10.8315 22.096 11.5034 22.9241 11.5034C23.7522 11.5034 24.4241 10.8315 24.4241 10.0034C24.4241 9.17528 23.7522 8.50341 22.9241 8.50341V8.50391ZM16.2516 10.2565C12.7066 10.2565 9.83236 13.1308 9.83236 16.6759C9.83236 20.221 12.7066 23.0939 16.2516 23.0939C19.7967 23.0939 22.67 20.221 22.67 16.6759C22.67 13.1309 19.7965 10.2565 16.2514 10.2565H16.2516ZM16.2516 12.5092C18.5527 12.5092 20.4184 14.3745 20.4184 16.6759C20.4184 18.977 18.5527 20.8427 16.2516 20.8427C13.9504 20.8427 12.085 18.977 12.085 16.6759C12.085 14.3745 13.9504 12.5092 16.2516 12.5092Z" fill="white"/>
<defs>
<radialGradient id="paint0_radial_106_853" cx="0" cy="0" r="1" gradientUnits="userSpaceOnUse" gradientTransform="translate(8.75049 35.1404) rotate(-90) scale(31.7144 29.4969)">
<stop stop-color="#FFDD55"/>
<stop offset="0.1" stop-color="#FFDD55"/>
<stop offset="0.5" stop-color="#FF543E"/>
<stop offset="1" stop-color="#C837AB"/>
</radialGradient>
<radialGradient id="paint1_radial_106_853" cx="0" cy="0" r="1" gradientUnits="userSpaceOnUse" gradientTransform="translate(-5.10964 2.98091) rotate(78.681) scale(14.1765 58.436)">
<stop stop-color="#3771C8"/>
<stop offset="0.128" stop-color="#3771C8"/>
<stop offset="1" stop-color="#6600FF" stop-opacity="0"/>
</radialGradient>
</defs>
</svg>
