<svg width="33" height="33" viewBox="0 0 33 33" fill="none" xmlns="http://www.w3.org/2000/svg">
<path d="M24.7505 0.675781H7.75049C3.60835 0.675781 0.250488 4.03365 0.250488 8.17578V25.1758C0.250488 29.3179 3.60835 32.6758 7.75049 32.6758H24.7505C28.8926 32.6758 32.2505 29.3179 32.2505 25.1758V8.17578C32.2505 4.03365 28.8926 0.675781 24.7505 0.675781Z" fill="white"/>
<path d="M24.7505 0.675781H7.75049C3.60835 0.675781 0.250488 4.03365 0.250488 8.17578V25.1758C0.250488 29.3179 3.60835 32.6758 7.75049 32.6758H24.7505C28.8926 32.6758 32.2505 29.3179 32.2505 25.1758V8.17578C32.2505 4.03365 28.8926 0.675781 24.7505 0.675781Z" fill="#0A66C2"/>
<path d="M23.3399 27.8864H26.9986C27.1312 27.8864 27.2584 27.8337 27.3521 27.74C27.4459 27.6463 27.4986 27.5191 27.4986 27.3865L27.5005 19.6563C27.5005 15.6159 26.6299 12.5103 21.9082 12.5103C20.1134 12.4435 18.4207 13.3688 17.5074 14.9138C17.5029 14.9213 17.4961 14.9271 17.488 14.9304C17.4799 14.9337 17.471 14.9342 17.4625 14.9319C17.4541 14.9297 17.4467 14.9247 17.4413 14.9178C17.436 14.9109 17.4331 14.9024 17.433 14.8937V13.3833C17.433 13.2507 17.3803 13.1235 17.2865 13.0297C17.1928 12.936 17.0656 12.8833 16.933 12.8833H13.4609C13.3283 12.8833 13.2011 12.936 13.1073 13.0297C13.0135 13.1235 12.9609 13.2507 12.9609 13.3833V27.3858C12.9609 27.5184 13.0135 27.6456 13.1073 27.7393C13.2011 27.8331 13.3283 27.8858 13.4609 27.8858H17.1194C17.252 27.8858 17.3791 27.8331 17.4729 27.7393C17.5667 27.6456 17.6194 27.5184 17.6194 27.3858V20.4642C17.6194 18.507 17.9906 16.6117 20.417 16.6117C22.8089 16.6117 22.8399 18.8512 22.8399 20.5909V27.3864C22.8399 27.519 22.8925 27.6462 22.9863 27.74C23.0801 27.8337 23.2073 27.8864 23.3399 27.8864ZM5.00049 8.12916C5.00049 9.61228 6.22136 10.8325 7.70449 10.8325C9.18724 10.8324 10.4074 9.61141 10.4074 8.12866C10.4071 6.64591 9.18686 5.42578 7.70399 5.42578C6.22074 5.42578 5.00049 6.64616 5.00049 8.12916ZM5.87036 27.8864H9.53374C9.66635 27.8864 9.79352 27.8337 9.88729 27.74C9.98106 27.6462 10.0337 27.519 10.0337 27.3864V13.3833C10.0337 13.2507 9.98106 13.1235 9.88729 13.0297C9.79352 12.936 9.66635 12.8833 9.53374 12.8833H5.87036C5.73776 12.8833 5.61058 12.936 5.51681 13.0297C5.42304 13.1235 5.37036 13.2507 5.37036 13.3833V27.3864C5.37036 27.519 5.42304 27.6462 5.51681 27.74C5.61058 27.8337 5.73776 27.8864 5.87036 27.8864Z" fill="white"/>
</svg>
