<svg width="73" height="73" viewBox="0 0 73 73" fill="none" xmlns="http://www.w3.org/2000/svg">
<path d="M4.386 0.550781L0.75 4.18678L7.15523 15.2637L11.3091 14.6545L36.6642 40.0123L34.5014 42.0892C33.3937 43.1969 33.3937 44.8751 34.5014 45.9828L35.6257 47.1099C36.7334 48.2176 38.4282 48.2176 39.2589 47.1099L42.5488 50.3969C42.2718 52.0585 42.5488 54.0329 43.9334 55.4176L58.9038 70.3022C61.95 73.3483 66.9346 73.3483 69.9808 70.3022C73.5808 66.9791 73.5475 62.0111 70.5014 58.9649L55.6168 43.9917C54.2322 42.6071 52.2577 42.0532 50.5962 42.6071L46.9602 39.32C47.7909 38.2123 47.7909 36.5176 46.9602 35.684L45.9217 34.6483C45.67 34.3858 45.3677 34.1769 45.0332 34.0342C44.6986 33.8915 44.3386 33.8179 43.9749 33.8179C43.6112 33.8179 43.2512 33.8915 42.9167 34.0342C42.5821 34.1769 42.2799 34.3858 42.0282 34.6483L40.2115 36.4649L14.8565 11.1099L15.4602 6.95601L4.386 0.550781ZM58.386 0.636627C52.9223 0.182474 45.678 3.80463 42.2885 6.95324C38.118 11.1237 38.7992 16.5763 42.114 21.8406L36.2322 27.7252L40.386 32.3969C42.6014 30.4585 45.8691 30.4585 48.0845 32.3969L49.2115 33.5212L49.4718 33.7816L51.8949 31.3585C56.9017 34.3022 62.1134 34.7259 66.0872 30.752C69.9642 27.152 74.1678 18.2739 72.2294 13.0123L64.4423 21.0597C63.3346 22.1674 61.6565 22.1674 60.5488 21.0597L52.4986 13.0123C52.2361 12.7606 52.0272 12.4583 51.8845 12.1238C51.7418 11.7892 51.6682 11.4293 51.6682 11.0656C51.6682 10.7018 51.7418 10.3419 51.8845 10.0073C52.0272 9.67276 52.2361 9.37052 52.4986 9.11878L60.5515 1.0714C59.8592 0.827704 59.1669 0.703089 58.386 0.636627ZM27.9245 35.1662L17.8832 45.2046C16.8042 44.9649 15.7014 44.8488 14.5962 44.8585C6.84231 44.8585 0.75 50.9508 0.75 58.7046C0.75 66.4585 6.84231 72.5508 14.5962 72.5508C22.35 72.5508 28.4423 66.4585 28.4423 58.7046C28.4423 57.284 28.218 55.9188 27.8358 54.6366L33.7205 48.752L32.8565 47.6277C30.6411 45.4123 30.6577 42.056 32.5962 39.8379L27.9245 35.1662ZM49.386 47.8022C49.7322 47.8022 50.0589 47.8686 50.3358 48.1483L66.6937 64.5034C67.2475 65.0572 67.2475 65.9379 66.6937 66.4917C66.1398 67.0456 65.2537 67.0456 64.6998 66.4917L48.3475 50.1366C47.7937 49.5828 47.7937 48.7022 48.3475 48.1483C48.6245 47.8714 49.0398 47.8022 49.386 47.8022ZM16.5014 51.5185L21.7795 56.7994L19.8743 63.98L12.6937 65.8852L7.41277 60.6043L9.318 53.4237L16.5014 51.5185Z" fill="#323232"/>
</svg>
