<svg width="385" height="562" viewBox="0 0 385 562" fill="none" xmlns="http://www.w3.org/2000/svg">
<rect width="385" height="562" rx="10" fill="white"/>
<rect x="22" y="111" width="44" height="44" rx="22" fill="#C4C4C4"/>
<path d="M49.1888 141H52.0688L46.0928 124.296H42.9248L36.9488 141H39.8048L41.0048 137.592H47.9888L49.1888 141ZM47.2208 135.36H41.7728L44.5088 127.608L47.2208 135.36Z" fill="white"/>
<path d="M85.704 129H87.624L83.64 117.864H81.528L77.544 129H79.448L80.248 126.728H84.904L85.704 129ZM84.392 125.24H80.76L82.584 120.072L84.392 125.24ZM92.8283 126.904L90.3483 120.184H88.3163L91.7883 128.856L89.9963 133.144H91.8843L97.2923 120.184H95.4043L92.8283 126.904ZM107.069 124.584C107.069 121.816 105.085 120.04 102.573 120.04C100.061 120.04 98.0768 121.816 98.0768 124.584C98.0768 127.352 99.9808 129.144 102.493 129.144C105.021 129.144 107.069 127.352 107.069 124.584ZM99.9328 124.584C99.9328 122.584 101.165 121.624 102.541 121.624C103.901 121.624 105.197 122.584 105.197 124.584C105.197 126.584 103.853 127.56 102.493 127.56C101.117 127.56 99.9328 126.584 99.9328 124.584ZM119.3 125.816C119.3 126.888 118.548 127.512 117.316 127.512H114.852V124.04H117.252C118.468 124.04 119.3 124.712 119.3 125.816ZM119.012 120.968C119.012 121.992 118.292 122.552 117.108 122.552H114.852V119.368H117.108C118.292 119.368 119.012 119.96 119.012 120.968ZM121.124 126.008C121.124 124.68 120.164 123.496 118.98 123.288C120.052 122.904 120.868 122.088 120.868 120.744C120.868 119.176 119.62 117.88 117.268 117.88H113.028V129H117.476C119.748 129 121.124 127.704 121.124 126.008ZM122.498 124.552C122.498 127.272 124.338 129.144 126.626 129.144C128.098 129.144 129.154 128.44 129.714 127.688V129H131.554V120.184H129.714V121.464C129.17 120.744 128.146 120.04 126.658 120.04C124.338 120.04 122.498 121.832 122.498 124.552ZM129.714 124.584C129.714 126.488 128.418 127.56 127.042 127.56C125.682 127.56 124.37 126.456 124.37 124.552C124.37 122.648 125.682 121.624 127.042 121.624C128.418 121.624 129.714 122.696 129.714 124.584ZM133.95 129H135.774V117.16H133.95V129ZM146.569 124.584C146.569 121.816 144.585 120.04 142.073 120.04C139.561 120.04 137.577 121.816 137.577 124.584C137.577 127.352 139.481 129.144 141.993 129.144C144.521 129.144 146.569 127.352 146.569 124.584ZM139.433 124.584C139.433 122.584 140.665 121.624 142.041 121.624C143.401 121.624 144.697 122.584 144.697 124.584C144.697 126.584 143.353 127.56 141.993 127.56C140.617 127.56 139.433 126.584 139.433 124.584ZM147.764 124.552C147.764 127.272 149.604 129.144 151.924 129.144C153.364 129.144 154.42 128.424 154.98 127.672V129.144C154.98 130.904 153.924 131.768 152.516 131.768C151.252 131.768 150.276 131.144 150.004 130.232H148.196C148.42 132.184 150.164 133.352 152.516 133.352C155.268 133.352 156.82 131.544 156.82 129.144V120.184H154.98V121.464C154.436 120.712 153.364 120.04 151.924 120.04C149.604 120.04 147.764 121.832 147.764 124.552ZM154.98 124.584C154.98 126.488 153.684 127.56 152.308 127.56C150.948 127.56 149.636 126.456 149.636 124.552C149.636 122.648 150.948 121.624 152.308 121.624C153.684 121.624 154.98 122.696 154.98 124.584ZM167.2 120.184H165.376V125.096C165.376 126.712 164.496 127.544 163.152 127.544C161.824 127.544 160.944 126.712 160.944 125.096V120.184H159.136V125.368C159.136 127.832 160.704 129.128 162.768 129.128C163.808 129.128 164.8 128.696 165.376 127.944V129H167.2V120.184ZM175.862 129H177.67V123.8C177.67 121.336 176.118 120.04 174.054 120.04C172.998 120.04 172.022 120.472 171.43 121.192V120.184H169.606V129H171.43V124.072C171.43 122.456 172.31 121.624 173.654 121.624C174.982 121.624 175.862 122.456 175.862 124.072V129Z" fill="#222025"/>
<path d="M83.622 147.256C83.622 148.32 82.866 148.95 81.606 148.95H79.352V145.506H81.564C82.81 145.506 83.622 146.178 83.622 147.256ZM83.37 142.874C83.37 143.868 82.684 144.456 81.494 144.456H79.352V141.292H81.466C82.712 141.292 83.37 141.908 83.37 142.874ZM84.896 147.382C84.896 146.178 84.028 145.156 82.964 144.974C83.902 144.666 84.672 143.952 84.672 142.72C84.672 141.362 83.636 140.242 81.578 140.242H78.078V150H81.718C83.734 150 84.896 148.852 84.896 147.382ZM86.6639 150H87.9379V139.64H86.6639V150ZM97.3893 146.15C97.3893 143.728 95.6953 142.202 93.5113 142.202C91.3413 142.202 89.6333 143.728 89.6333 146.15C89.6333 148.586 91.2853 150.126 93.4553 150.126C95.6393 150.126 97.3893 148.586 97.3893 146.15ZM90.9353 146.15C90.9353 144.218 92.1533 143.308 93.4973 143.308C94.8133 143.308 96.0873 144.218 96.0873 146.15C96.0873 148.096 94.7853 149.006 93.4553 149.006C92.1253 149.006 90.9353 148.096 90.9353 146.15ZM98.5883 146.15C98.5883 148.586 100.142 150.126 102.326 150.126C104.23 150.126 105.476 149.062 105.868 147.536H104.496C104.216 148.502 103.46 149.048 102.326 149.048C100.926 149.048 99.8903 148.054 99.8903 146.15C99.8903 144.274 100.926 143.28 102.326 143.28C103.46 143.28 104.23 143.868 104.496 144.792H105.868C105.476 143.182 104.23 142.202 102.326 142.202C100.142 142.202 98.5883 143.742 98.5883 146.15ZM107.568 150H108.842V146.612L111.852 150H113.588L109.962 146.15L113.574 142.328H111.796L108.842 145.73V139.64H107.568V150ZM125.058 150H126.402L122.888 140.298H121.418L117.89 150H119.234L120.018 147.83H124.274L125.058 150ZM123.91 146.794H120.382L122.146 141.866L123.91 146.794ZM131.91 150H133.184V143.378H134.794V142.328H133.184V141.782C133.184 140.788 133.562 140.368 134.71 140.368V139.304C132.75 139.304 131.91 140.074 131.91 141.782V142.328H130.916V143.378H131.91V150ZM136.279 150H137.553V139.64H136.279V150ZM139.248 146.136C139.248 148.516 140.83 150.126 142.874 150.126C144.288 150.126 145.282 149.398 145.744 148.572V150H147.032V142.328H145.744V143.728C145.296 142.93 144.316 142.202 142.888 142.202C140.83 142.202 139.248 143.742 139.248 146.136ZM145.744 146.15C145.744 147.956 144.54 149.006 143.14 149.006C141.74 149.006 140.55 147.942 140.55 146.136C140.55 144.33 141.74 143.308 143.14 143.308C144.54 143.308 145.744 144.372 145.744 146.15ZM149.465 147.9C149.465 149.44 150.235 150 151.593 150H152.741V148.922H151.803C151.019 148.922 150.739 148.656 150.739 147.9V143.378H152.741V142.328H150.739V140.396H149.465V142.328H148.471V143.378H149.465V147.9ZM157.401 139.906V140.998H162.805L158.857 150H160.145L164.037 140.872V139.906H157.401Z" fill="#847F8A"/>
<path d="M30.04 212.008C30.04 213.328 29.416 214.168 28.168 214.168C26.896 214.168 26.248 213.304 26.224 211.888H22.864C22.864 215.272 25.072 217.168 28.216 217.168C31.312 217.168 33.424 215.32 33.424 212.008V200.248H30.04V212.008ZM50.1835 210.352C50.1835 206.152 47.1835 203.488 43.3435 203.488C39.5035 203.488 36.5035 206.152 36.5035 210.352C36.5035 214.528 39.4075 217.216 43.2475 217.216C47.1115 217.216 50.1835 214.528 50.1835 210.352ZM39.9115 210.352C39.9115 207.688 41.5195 206.416 43.2955 206.416C45.0715 206.416 46.7275 207.688 46.7275 210.352C46.7275 212.992 45.0235 214.288 43.2475 214.288C41.4475 214.288 39.9115 212.992 39.9115 210.352ZM62.9682 213.208C62.8722 208.336 55.5042 209.848 55.5042 207.424C55.5042 206.656 56.1522 206.152 57.4002 206.152C58.7202 206.152 59.5362 206.848 59.6322 207.88H62.8482C62.6562 205.24 60.7122 203.488 57.4962 203.488C54.2082 203.488 52.2402 205.264 52.2402 207.472C52.2402 212.344 59.7522 210.832 59.7522 213.208C59.7522 213.976 59.0322 214.576 57.7122 214.576C56.3682 214.576 55.4322 213.808 55.3122 212.8H51.9282C52.0722 215.272 54.4002 217.216 57.7362 217.216C60.9762 217.216 62.9682 215.488 62.9682 213.208ZM71.4383 206.248C73.1663 206.248 74.5583 207.352 74.6063 209.104H68.2943C68.5583 207.28 69.8303 206.248 71.4383 206.248ZM77.7503 212.824H74.1263C73.6943 213.712 72.9023 214.432 71.4623 214.432C69.7823 214.432 68.4383 213.328 68.2703 211.36H77.9903C78.0623 210.928 78.0863 210.496 78.0863 210.064C78.0863 206.104 75.3743 203.488 71.5343 203.488C67.5983 203.488 64.8623 206.152 64.8623 210.352C64.8623 214.528 67.6703 217.216 71.5343 217.216C74.8223 217.216 77.0303 215.272 77.7503 212.824ZM83.8988 205.624V203.704H80.5388V223.336H83.8988V215.104C84.7148 216.184 86.2028 217.216 88.2908 217.216C91.6988 217.216 94.3628 214.456 94.3628 210.304C94.3628 206.152 91.6988 203.488 88.2908 203.488C86.2268 203.488 84.6908 204.496 83.8988 205.624ZM90.9308 210.304C90.9308 212.824 89.2268 214.264 87.4028 214.264C85.6028 214.264 83.8988 212.872 83.8988 210.352C83.8988 207.832 85.6028 206.44 87.4028 206.44C89.2268 206.44 90.9308 207.784 90.9308 210.304ZM96.8044 217H100.164V209.656C100.164 207.52 101.34 206.368 103.164 206.368C104.94 206.368 106.116 207.52 106.116 209.656V217H109.476V209.2C109.476 205.528 107.292 203.512 104.292 203.512C102.516 203.512 101.028 204.232 100.164 205.36V199.24H96.8044V217ZM129.766 217H133.318L127.294 200.224H123.382L117.358 217H120.886L121.99 213.808H128.662L129.766 217ZM127.75 211.12H122.902L125.326 204.112L127.75 211.12ZM154.17 217H157.53V209.2C157.53 205.528 155.274 203.512 152.082 203.512C150.138 203.512 148.386 204.544 147.522 206.056C146.61 204.4 144.906 203.512 142.842 203.512C141.186 203.512 139.77 204.208 138.93 205.312V203.704H135.57V217H138.93V209.656C138.93 207.544 140.106 206.44 141.93 206.44C143.706 206.44 144.882 207.544 144.882 209.656V217H148.242V209.656C148.242 207.544 149.418 206.44 151.218 206.44C152.994 206.44 154.17 207.544 154.17 209.656V217ZM173.559 210.352C173.559 206.152 170.559 203.488 166.719 203.488C162.879 203.488 159.879 206.152 159.879 210.352C159.879 214.528 162.783 217.216 166.623 217.216C170.487 217.216 173.559 214.528 173.559 210.352ZM163.287 210.352C163.287 207.688 164.895 206.416 166.671 206.416C168.447 206.416 170.103 207.688 170.103 210.352C170.103 212.992 168.399 214.288 166.623 214.288C164.823 214.288 163.287 212.992 163.287 210.352ZM186.343 213.208C186.247 208.336 178.879 209.848 178.879 207.424C178.879 206.656 179.527 206.152 180.775 206.152C182.095 206.152 182.911 206.848 183.007 207.88H186.223C186.031 205.24 184.087 203.488 180.871 203.488C177.583 203.488 175.615 205.264 175.615 207.472C175.615 212.344 183.127 210.832 183.127 213.208C183.127 213.976 182.407 214.576 181.087 214.576C179.743 214.576 178.807 213.808 178.687 212.8H175.303C175.447 215.272 177.775 217.216 181.111 217.216C184.351 217.216 186.343 215.488 186.343 213.208Z" fill="#222025"/>
<rect x="22" y="232" width="118" height="29" rx="14.5" fill="#F4F4F4"/>
<path d="M35.756 246.114C35.238 249.04 37.016 251.084 39.746 251.084C41.86 251.084 43.722 250.034 44.786 248.158H43.26C42.532 249.278 41.37 249.936 39.942 249.936C37.912 249.936 36.652 248.452 37.058 246.114C37.478 243.762 39.256 242.278 41.3 242.278C42.728 242.278 43.652 242.936 43.988 244.07H45.514C45.108 242.18 43.61 241.116 41.496 241.116C38.78 241.116 36.274 243.188 35.756 246.114ZM46.1785 251H47.4525L48.2085 246.73V246.758C48.5025 245.106 49.5385 244.294 50.8405 244.294C52.1285 244.294 52.8285 245.092 52.5625 246.66L51.7925 251H53.0525L53.8505 246.478C54.2425 244.28 53.0805 243.188 51.3725 243.188C50.2945 243.188 49.2585 243.636 48.6145 244.434L49.2865 240.64H48.0125L46.1785 251ZM59.5855 244.28C60.9015 244.28 61.8675 245.106 61.5875 246.674H56.7295C57.1215 245.134 58.3255 244.28 59.5855 244.28ZM62.3995 248.634H61.0275C60.6075 249.46 59.7815 250.048 58.6335 250.048C57.3035 250.048 56.3655 249.166 56.5615 247.598H62.6935C62.7775 247.332 62.8335 247.108 62.8755 246.842C63.2395 244.77 62.0495 243.202 59.8235 243.202C57.5975 243.202 55.7635 244.728 55.3295 247.15C54.8955 249.586 56.2535 251.126 58.4375 251.126C60.3415 251.126 61.7555 250.034 62.3995 248.634ZM64.0112 247.15C63.5772 249.586 64.8792 251.126 67.0632 251.126C68.9672 251.126 70.3952 250.062 71.0532 248.536H69.6812C69.2332 249.502 68.3792 250.048 67.2592 250.048C65.8592 250.048 64.9912 249.054 65.3272 247.15C65.6492 245.274 66.8672 244.28 68.2672 244.28C69.4012 244.28 70.0732 244.868 70.1712 245.792H71.5432C71.4312 244.182 70.3672 243.202 68.4632 243.202C66.2792 243.202 64.4452 244.742 64.0112 247.15ZM72.3191 251H73.5931L74.1951 247.626L76.6031 251H78.3391L75.3991 247.164L79.6691 243.328H77.9051L74.3491 246.716L75.4271 240.64H74.1531L72.3191 251ZM83.9762 244.28C85.2922 244.28 86.2582 245.106 85.9782 246.674H81.1202C81.5122 245.134 82.7162 244.28 83.9762 244.28ZM86.7902 248.634H85.4182C84.9982 249.46 84.1722 250.048 83.0242 250.048C81.6942 250.048 80.7562 249.166 80.9522 247.598H87.0842C87.1682 247.332 87.2242 247.108 87.2662 246.842C87.6302 244.77 86.4402 243.202 84.2142 243.202C81.9882 243.202 80.1542 244.728 79.7202 247.15C79.2862 249.586 80.6442 251.126 82.8282 251.126C84.7322 251.126 86.1462 250.034 86.7902 248.634ZM88.4018 247.136C87.9818 249.516 89.2978 251.126 91.3558 251.126C92.7558 251.126 93.8758 250.412 94.4918 249.558L94.2258 251H95.5138L97.3478 240.64H96.0598L95.3458 244.7C94.9538 243.818 93.9738 243.202 92.7698 243.202C90.6838 243.202 88.8218 244.742 88.4018 247.136ZM94.9118 247.15C94.5898 248.956 93.2038 250.006 91.8038 250.006C90.4038 250.006 89.3958 248.942 89.7178 247.136C90.0258 245.33 91.4118 244.308 92.8118 244.308C94.2118 244.308 95.2338 245.372 94.9118 247.15ZM112.057 245.176C112.057 242.796 110.447 241.13 107.955 241.13C104.665 241.13 102.201 243.692 102.201 247.038C102.201 249.432 103.825 251.098 106.289 251.098C109.607 251.098 112.057 248.536 112.057 245.176ZM103.517 246.954C103.517 244.448 105.239 242.278 107.773 242.278C109.607 242.278 110.741 243.412 110.741 245.26C110.741 247.78 108.991 249.95 106.471 249.95C104.651 249.95 103.517 248.802 103.517 246.954ZM121.005 243.328H119.731L118.975 247.584V247.542C118.709 249.194 117.659 250.006 116.357 250.006C115.069 250.006 114.369 249.208 114.635 247.654L115.391 243.328H114.131L113.333 247.822C112.955 250.02 114.145 251.112 115.909 251.112C116.917 251.112 117.939 250.678 118.569 249.88L118.373 251H119.647L121.005 243.328ZM122.442 248.9C122.176 250.44 122.848 251 124.206 251H125.354L125.55 249.922H124.612C123.828 249.922 123.59 249.656 123.73 248.9L124.528 244.378H126.53L126.712 243.328H124.724L125.06 241.396H123.772L123.436 243.328H122.442L122.26 244.378H123.24L122.442 248.9Z" fill="#514C58"/>
<path d="M29.2489 59.14L25.4089 48.04H22.4089L27.5289 62H30.9289L36.0489 48.04H33.0689L29.2489 59.14ZM37.7277 62H40.5277V50.92H37.7277V62ZM39.1477 49.6C40.1277 49.6 40.8677 48.88 40.8677 47.96C40.8677 47.04 40.1277 46.32 39.1477 46.32C38.1477 46.32 37.4277 47.04 37.4277 47.96C37.4277 48.88 38.1477 49.6 39.1477 49.6ZM51.8941 58.84C51.8141 54.78 45.6741 56.04 45.6741 54.02C45.6741 53.38 46.2141 52.96 47.2541 52.96C48.3541 52.96 49.0341 53.54 49.1141 54.4H51.7941C51.6341 52.2 50.0141 50.74 47.3341 50.74C44.5941 50.74 42.9541 52.22 42.9541 54.06C42.9541 58.12 49.2141 56.86 49.2141 58.84C49.2141 59.48 48.6141 59.98 47.5141 59.98C46.3941 59.98 45.6141 59.34 45.5141 58.5H42.6941C42.8141 60.56 44.7541 62.18 47.5341 62.18C50.2341 62.18 51.8941 60.74 51.8941 58.84ZM54.1925 62H56.9925V50.92H54.1925V62ZM55.6125 49.6C56.5925 49.6 57.3325 48.88 57.3325 47.96C57.3325 47.04 56.5925 46.32 55.6125 46.32C54.6125 46.32 53.8925 47.04 53.8925 47.96C53.8925 48.88 54.6125 49.6 55.6125 49.6ZM60.1989 58.56C60.1989 61.1 61.6189 62 63.7389 62H65.4989V59.64H64.1989C63.3189 59.64 63.0189 59.32 63.0189 58.58V53.22H65.4989V50.92H63.0189V48.18H60.1989V50.92H58.8789V53.22H60.1989V58.56ZM78.2128 56.46C78.2128 52.96 75.7128 50.74 72.5128 50.74C69.3128 50.74 66.8128 52.96 66.8128 56.46C66.8128 59.94 69.2328 62.18 72.4328 62.18C75.6528 62.18 78.2128 59.94 78.2128 56.46ZM69.6528 56.46C69.6528 54.24 70.9928 53.18 72.4728 53.18C73.9528 53.18 75.3328 54.24 75.3328 56.46C75.3328 58.66 73.9128 59.74 72.4328 59.74C70.9328 59.74 69.6528 58.66 69.6528 56.46ZM83.0667 56.48C83.0667 54.34 84.0667 53.7 85.7267 53.7H86.4667V50.76C84.9267 50.76 83.7667 51.5 83.0667 52.64V50.92H80.2667V62H83.0667V56.48ZM96.9527 58.84C96.8727 54.78 90.7327 56.04 90.7327 54.02C90.7327 53.38 91.2727 52.96 92.3127 52.96C93.4127 52.96 94.0927 53.54 94.1727 54.4H96.8527C96.6927 52.2 95.0727 50.74 92.3927 50.74C89.6527 50.74 88.0127 52.22 88.0127 54.06C88.0127 58.12 94.2727 56.86 94.2727 58.84C94.2727 59.48 93.6727 59.98 92.5727 59.98C91.4527 59.98 90.6727 59.34 90.5727 58.5H87.7527C87.8727 60.56 89.8127 62.18 92.5927 62.18C95.2927 62.18 96.9527 60.74 96.9527 58.84Z" fill="#2D164E"/>
<rect x="319" y="33" width="44" height="44" rx="22" fill="#F4F4F4"/>
<path d="M349 47L333 63" stroke="#78698D" stroke-width="3" stroke-linecap="round" stroke-linejoin="round"/>
<path d="M333 47L349 63" stroke="#78698D" stroke-width="3" stroke-linecap="round" stroke-linejoin="round"/>
<path d="M33 316L33 401" stroke="#E5E5E5" stroke-width="3"/>
<path d="M33 326L33 391" stroke="#DF8F35" stroke-width="3"/>
<rect x="20.5" y="307.5" width="25" height="25" rx="12.5" fill="#DF8F35" stroke="white" stroke-width="3"/>
<path d="M29 321.364L30.7515 322.528C31.1606 322.8 31.7067 322.734 32.0399 322.373L37 317" stroke="white" stroke-width="2" stroke-linecap="round"/>
<rect x="20.5" y="381.5" width="25" height="25" rx="12.5" fill="#DF8F35" stroke="white" stroke-width="3"/>
<path d="M29 395.364L30.7515 396.528C31.1606 396.8 31.7067 396.734 32.0399 396.373L37 391" stroke="white" stroke-width="2" stroke-linecap="round"/>
<path d="M72.984 321.998L70.296 314.228H68.196L71.78 324H74.16L77.744 314.228H75.658L72.984 321.998ZM78.9191 324H80.8791V316.244H78.9191V324ZM79.9131 315.32C80.5991 315.32 81.1171 314.816 81.1171 314.172C81.1171 313.528 80.5991 313.024 79.9131 313.024C79.2131 313.024 78.7091 313.528 78.7091 314.172C78.7091 314.816 79.2131 315.32 79.9131 315.32ZM88.8356 321.788C88.7796 318.946 84.4816 319.828 84.4816 318.414C84.4816 317.966 84.8596 317.672 85.5876 317.672C86.3576 317.672 86.8336 318.078 86.8896 318.68H88.7656C88.6536 317.14 87.5196 316.118 85.6436 316.118C83.7256 316.118 82.5776 317.154 82.5776 318.442C82.5776 321.284 86.9596 320.402 86.9596 321.788C86.9596 322.236 86.5396 322.586 85.7696 322.586C84.9856 322.586 84.4396 322.138 84.3696 321.55H82.3956C82.4796 322.992 83.8376 324.126 85.7836 324.126C87.6736 324.126 88.8356 323.118 88.8356 321.788ZM90.4445 324H92.4045V316.244H90.4445V324ZM91.4385 315.32C92.1245 315.32 92.6425 314.816 92.6425 314.172C92.6425 313.528 92.1245 313.024 91.4385 313.024C90.7385 313.024 90.2345 313.528 90.2345 314.172C90.2345 314.816 90.7385 315.32 91.4385 315.32ZM94.649 321.592C94.649 323.37 95.643 324 97.127 324H98.359V322.348H97.449C96.833 322.348 96.623 322.124 96.623 321.606V317.854H98.359V316.244H96.623V314.326H94.649V316.244H93.725V317.854H94.649V321.592ZM107.259 320.122C107.259 317.672 105.509 316.118 103.269 316.118C101.029 316.118 99.2787 317.672 99.2787 320.122C99.2787 322.558 100.973 324.126 103.213 324.126C105.467 324.126 107.259 322.558 107.259 320.122ZM101.267 320.122C101.267 318.568 102.205 317.826 103.241 317.826C104.277 317.826 105.243 318.568 105.243 320.122C105.243 321.662 104.249 322.418 103.213 322.418C102.163 322.418 101.267 321.662 101.267 320.122ZM110.656 320.136C110.656 318.638 111.356 318.19 112.518 318.19H113.036V316.132C111.958 316.132 111.146 316.65 110.656 317.448V316.244H108.696V324H110.656V320.136ZM117.189 320.122C117.189 322.558 118.785 324.126 121.025 324.126C122.957 324.126 124.259 323.034 124.679 321.382H122.565C122.327 322.082 121.823 322.446 121.011 322.446C119.919 322.446 119.191 321.634 119.191 320.122C119.191 318.61 119.919 317.784 121.011 317.784C121.823 317.784 122.341 318.204 122.565 318.862H124.679C124.259 317.126 122.957 316.118 121.025 316.118C118.785 316.118 117.189 317.686 117.189 320.122ZM126.114 324H128.074V319.716C128.074 318.47 128.76 317.798 129.824 317.798C130.86 317.798 131.546 318.47 131.546 319.716V324H133.506V319.45C133.506 317.308 132.232 316.132 130.482 316.132C129.446 316.132 128.578 316.552 128.074 317.21V313.64H126.114V324ZM138.702 317.728C139.71 317.728 140.522 318.372 140.55 319.394H136.868C137.022 318.33 137.764 317.728 138.702 317.728ZM142.384 321.564H140.27C140.018 322.082 139.556 322.502 138.716 322.502C137.736 322.502 136.952 321.858 136.854 320.71H142.524C142.566 320.458 142.58 320.206 142.58 319.954C142.58 317.644 140.998 316.118 138.758 316.118C136.462 316.118 134.866 317.672 134.866 320.122C134.866 322.558 136.504 324.126 138.758 324.126C140.676 324.126 141.964 322.992 142.384 321.564ZM143.507 320.122C143.507 322.558 145.103 324.126 147.343 324.126C149.275 324.126 150.577 323.034 150.997 321.382H148.883C148.645 322.082 148.141 322.446 147.329 322.446C146.237 322.446 145.509 321.634 145.509 320.122C145.509 318.61 146.237 317.784 147.329 317.784C148.141 317.784 148.659 318.204 148.883 318.862H150.997C150.577 317.126 149.275 316.118 147.343 316.118C145.103 316.118 143.507 317.686 143.507 320.122ZM152.433 324H154.393V320.696L157.025 324H159.573L156.129 320.136L159.545 316.244H156.997L154.393 319.534V313.64H152.433V324ZM163.941 317.728C164.949 317.728 165.761 318.372 165.789 319.394H162.107C162.261 318.33 163.003 317.728 163.941 317.728ZM167.623 321.564H165.509C165.257 322.082 164.795 322.502 163.955 322.502C162.975 322.502 162.191 321.858 162.093 320.71H167.763C167.805 320.458 167.819 320.206 167.819 319.954C167.819 317.644 166.237 316.118 163.997 316.118C161.701 316.118 160.105 317.672 160.105 320.122C160.105 322.558 161.743 324.126 163.997 324.126C165.915 324.126 167.203 322.992 167.623 321.564ZM168.745 320.094C168.745 322.516 170.313 324.126 172.287 324.126C173.505 324.126 174.373 323.566 174.835 322.852V324H176.823V313.64H174.835V317.322C174.303 316.594 173.323 316.118 172.301 316.118C170.313 316.118 168.745 317.672 168.745 320.094ZM174.849 320.122C174.849 321.592 173.869 322.404 172.791 322.404C171.741 322.404 170.747 321.564 170.747 320.094C170.747 318.624 171.741 317.84 172.791 317.84C173.869 317.84 174.849 318.652 174.849 320.122ZM182.073 324H184.033V316.244H182.073V324ZM183.067 315.32C183.753 315.32 184.271 314.816 184.271 314.172C184.271 313.528 183.753 313.024 183.067 313.024C182.367 313.024 181.863 313.528 181.863 314.172C181.863 314.816 182.367 315.32 183.067 315.32ZM191.402 324H193.362V319.45C193.362 317.308 192.074 316.132 190.268 316.132C189.274 316.132 188.434 316.552 187.93 317.21V316.244H185.97V324H187.93V319.716C187.93 318.47 188.616 317.798 189.68 317.798C190.716 317.798 191.402 318.47 191.402 319.716V324Z" fill="#222025"/>
<path d="M72.056 342.848L69.428 335.636H68.264L71.42 344H72.68L75.836 335.636H74.684L72.056 342.848ZM77.0334 344H78.1254V337.424H77.0334V344ZM77.5974 336.356C77.9934 336.356 78.3174 336.032 78.3174 335.612C78.3174 335.192 77.9934 334.868 77.5974 334.868C77.1774 334.868 76.8534 335.192 76.8534 335.612C76.8534 336.032 77.1774 336.356 77.5974 336.356ZM84.7145 342.212C84.6665 339.86 80.8505 340.712 80.8505 339.152C80.8505 338.624 81.3305 338.24 82.1345 338.24C83.0105 338.24 83.5145 338.72 83.5625 339.38H84.6545C84.5825 338.096 83.6225 337.316 82.1705 337.316C80.7065 337.316 79.7585 338.144 79.7585 339.152C79.7585 341.6 83.6465 340.748 83.6465 342.212C83.6465 342.752 83.1665 343.184 82.3025 343.184C81.3785 343.184 80.8145 342.704 80.7545 342.068H79.6265C79.6985 343.268 80.7785 344.108 82.3145 344.108C83.7665 344.108 84.7145 343.292 84.7145 342.212ZM86.256 344H87.348V337.424H86.256V344ZM86.82 336.356C87.216 336.356 87.54 336.032 87.54 335.612C87.54 335.192 87.216 334.868 86.82 334.868C86.4 334.868 86.076 335.192 86.076 335.612C86.076 336.032 86.4 336.356 86.82 336.356ZM89.4492 342.2C89.4492 343.52 90.1092 344 91.2732 344H92.2572V343.076H91.4532C90.7812 343.076 90.5412 342.848 90.5412 342.2V338.324H92.2572V337.424H90.5412V335.768H89.4492V337.424H88.5972V338.324H89.4492V342.2ZM99.8203 340.7C99.8203 338.624 98.3683 337.316 96.4963 337.316C94.6363 337.316 93.1723 338.624 93.1723 340.7C93.1723 342.788 94.5883 344.108 96.4483 344.108C98.3203 344.108 99.8203 342.788 99.8203 340.7ZM94.2883 340.7C94.2883 339.044 95.3323 338.264 96.4843 338.264C97.6123 338.264 98.7043 339.044 98.7043 340.7C98.7043 342.368 97.5883 343.148 96.4483 343.148C95.3083 343.148 94.2883 342.368 94.2883 340.7ZM102.348 340.424C102.348 338.9 103.14 338.432 104.184 338.432H104.472V337.304C103.428 337.304 102.72 337.76 102.348 338.492V337.424H101.256V344H102.348V340.424ZM108.932 344H110.024V340.364C110.024 338.948 110.792 338.252 111.908 338.252C113.012 338.252 113.744 338.936 113.744 340.28V344H114.824V340.124C114.824 338.24 113.66 337.304 112.196 337.304C111.272 337.304 110.456 337.676 110.024 338.372V335.12H108.932V344ZM116.2 340.688C116.2 342.728 117.556 344.108 119.308 344.108C120.52 344.108 121.372 343.484 121.768 342.776V344H122.872V337.424H121.768V338.624C121.384 337.94 120.544 337.316 119.32 337.316C117.556 337.316 116.2 338.636 116.2 340.688ZM121.768 340.7C121.768 342.248 120.736 343.148 119.536 343.148C118.336 343.148 117.316 342.236 117.316 340.688C117.316 339.14 118.336 338.264 119.536 338.264C120.736 338.264 121.768 339.176 121.768 340.7ZM129.445 342.212C129.397 339.86 125.581 340.712 125.581 339.152C125.581 338.624 126.061 338.24 126.865 338.24C127.741 338.24 128.245 338.72 128.293 339.38H129.385C129.313 338.096 128.353 337.316 126.901 337.316C125.437 337.316 124.489 338.144 124.489 339.152C124.489 341.6 128.377 340.748 128.377 342.212C128.377 342.752 127.897 343.184 127.033 343.184C126.109 343.184 125.545 342.704 125.485 342.068H124.357C124.429 343.268 125.509 344.108 127.045 344.108C128.497 344.108 129.445 343.292 129.445 342.212ZM133.778 340.7C133.778 342.788 135.11 344.108 136.982 344.108C138.614 344.108 139.682 343.196 140.018 341.888H138.842C138.602 342.716 137.954 343.184 136.982 343.184C135.782 343.184 134.894 342.332 134.894 340.7C134.894 339.092 135.782 338.24 136.982 338.24C137.954 338.24 138.614 338.744 138.842 339.536H140.018C139.682 338.156 138.614 337.316 136.982 337.316C135.11 337.316 133.778 338.636 133.778 340.7ZM141.475 344H142.567V340.364C142.567 338.948 143.335 338.252 144.451 338.252C145.555 338.252 146.287 338.936 146.287 340.28V344H147.367V340.124C147.367 338.24 146.203 337.304 144.739 337.304C143.815 337.304 142.999 337.676 142.567 338.372V335.12H141.475V344ZM151.947 338.24C153.075 338.24 154.035 338.948 154.023 340.232H149.871C149.991 338.948 150.879 338.24 151.947 338.24ZM155.019 341.972H153.843C153.603 342.68 152.979 343.184 151.995 343.184C150.879 343.184 149.943 342.452 149.859 341.12H155.115C155.139 340.892 155.151 340.7 155.151 340.46C155.151 338.66 153.903 337.316 151.995 337.316C150.075 337.316 148.743 338.624 148.743 340.7C148.743 342.788 150.123 344.108 151.995 344.108C153.627 344.108 154.683 343.172 155.019 341.972ZM156.184 340.7C156.184 342.788 157.516 344.108 159.388 344.108C161.02 344.108 162.088 343.196 162.424 341.888H161.248C161.008 342.716 160.36 343.184 159.388 343.184C158.188 343.184 157.3 342.332 157.3 340.7C157.3 339.092 158.188 338.24 159.388 338.24C160.36 338.24 161.02 338.744 161.248 339.536H162.424C162.088 338.156 161.02 337.316 159.388 337.316C157.516 337.316 156.184 338.636 156.184 340.7ZM163.881 344H164.973V341.096L167.553 344H169.041L165.933 340.7L169.029 337.424H167.505L164.973 340.34V335.12H163.881V344ZM173.256 344H174.348V337.424H173.256V344ZM173.82 336.356C174.216 336.356 174.54 336.032 174.54 335.612C174.54 335.192 174.216 334.868 173.82 334.868C173.4 334.868 173.076 335.192 173.076 335.612C173.076 336.032 173.4 336.356 173.82 336.356ZM181.021 344H182.101V340.124C182.101 338.24 180.937 337.304 179.413 337.304C178.525 337.304 177.733 337.676 177.301 338.36V337.424H176.209V344H177.301V340.364C177.301 338.948 178.069 338.252 179.185 338.252C180.289 338.252 181.021 338.936 181.021 340.28V344ZM184.125 342.2C184.125 343.52 184.785 344 185.949 344H186.933V343.076H186.129C185.457 343.076 185.217 342.848 185.217 342.2V338.324H186.933V337.424H185.217V335.768H184.125V337.424H183.273V338.324H184.125V342.2ZM194.496 340.7C194.496 338.624 193.044 337.316 191.172 337.316C189.312 337.316 187.848 338.624 187.848 340.7C187.848 342.788 189.264 344.108 191.124 344.108C192.996 344.108 194.496 342.788 194.496 340.7ZM188.964 340.7C188.964 339.044 190.008 338.264 191.16 338.264C192.288 338.264 193.38 339.044 193.38 340.7C193.38 342.368 192.264 343.148 191.124 343.148C189.984 343.148 188.964 342.368 188.964 340.7ZM199.371 342.2C199.371 343.52 200.031 344 201.195 344H202.179V343.076H201.375C200.703 343.076 200.463 342.848 200.463 342.2V338.324H202.179V337.424H200.463V335.768H199.371V337.424H198.519V338.324H199.371V342.2ZM203.502 344H204.594V340.364C204.594 338.948 205.362 338.252 206.478 338.252C207.582 338.252 208.314 338.936 208.314 340.28V344H209.394V340.124C209.394 338.24 208.23 337.304 206.766 337.304C205.842 337.304 205.026 337.676 204.594 338.372V335.12H203.502V344ZM213.974 338.24C215.102 338.24 216.062 338.948 216.05 340.232H211.898C212.018 338.948 212.906 338.24 213.974 338.24ZM217.046 341.972H215.87C215.63 342.68 215.006 343.184 214.022 343.184C212.906 343.184 211.97 342.452 211.886 341.12H217.142C217.166 340.892 217.178 340.7 217.178 340.46C217.178 338.66 215.93 337.316 214.022 337.316C212.102 337.316 210.77 338.624 210.77 340.7C210.77 342.788 212.15 344.108 214.022 344.108C215.654 344.108 216.71 343.172 217.046 341.972ZM222.911 338.636V337.424H221.819V347.12H222.911V342.788C223.319 343.46 224.171 344.108 225.371 344.108C227.135 344.108 228.491 342.728 228.491 340.688C228.491 338.636 227.135 337.316 225.371 337.316C224.171 337.316 223.307 337.94 222.911 338.636ZM227.375 340.688C227.375 342.236 226.355 343.148 225.143 343.148C223.955 343.148 222.911 342.248 222.911 340.7C222.911 339.176 223.955 338.264 225.143 338.264C226.355 338.264 227.375 339.14 227.375 340.688ZM231.02 340.424C231.02 338.9 231.812 338.432 232.856 338.432H233.144V337.304C232.1 337.304 231.392 337.76 231.02 338.492V337.424H229.928V344H231.02V340.424ZM237.2 338.24C238.328 338.24 239.288 338.948 239.276 340.232H235.124C235.244 338.948 236.132 338.24 237.2 338.24ZM240.272 341.972H239.096C238.856 342.68 238.232 343.184 237.248 343.184C236.132 343.184 235.196 342.452 235.112 341.12H240.368C240.392 340.892 240.404 340.7 240.404 340.46C240.404 338.66 239.156 337.316 237.248 337.316C235.328 337.316 233.996 338.624 233.996 340.7C233.996 342.788 235.376 344.108 237.248 344.108C238.88 344.108 239.936 343.172 240.272 341.972ZM251.338 344H252.418V340.124C252.418 338.24 251.254 337.304 249.754 337.304C248.746 337.304 247.81 337.82 247.426 338.768C246.994 337.784 246.094 337.304 245.014 337.304C244.15 337.304 243.37 337.676 242.938 338.372V337.424H241.846V344H242.938V340.376C242.938 338.96 243.694 338.252 244.798 338.252C245.878 338.252 246.598 338.936 246.598 340.28V344H247.678V340.376C247.678 338.96 248.434 338.252 249.538 338.252C250.618 338.252 251.338 338.936 251.338 340.28V344ZM254.209 344H255.301V337.424H254.209V344ZM254.773 336.356C255.169 336.356 255.493 336.032 255.493 335.612C255.493 335.192 255.169 334.868 254.773 334.868C254.353 334.868 254.029 335.192 254.029 335.612C254.029 336.032 254.353 336.356 254.773 336.356ZM261.89 342.212C261.842 339.86 258.026 340.712 258.026 339.152C258.026 338.624 258.506 338.24 259.31 338.24C260.186 338.24 260.69 338.72 260.738 339.38H261.83C261.758 338.096 260.798 337.316 259.346 337.316C257.882 337.316 256.934 338.144 256.934 339.152C256.934 341.6 260.822 340.748 260.822 342.212C260.822 342.752 260.342 343.184 259.478 343.184C258.554 343.184 257.99 342.704 257.93 342.068H256.802C256.874 343.268 257.954 344.108 259.49 344.108C260.942 344.108 261.89 343.292 261.89 342.212ZM266.228 338.24C267.356 338.24 268.316 338.948 268.304 340.232H264.152C264.272 338.948 265.16 338.24 266.228 338.24ZM269.3 341.972H268.124C267.884 342.68 267.26 343.184 266.276 343.184C265.16 343.184 264.224 342.452 264.14 341.12H269.396C269.42 340.892 269.432 340.7 269.432 340.46C269.432 338.66 268.184 337.316 266.276 337.316C264.356 337.316 263.024 338.624 263.024 340.7C263.024 342.788 264.404 344.108 266.276 344.108C267.908 344.108 268.964 343.172 269.3 341.972ZM275.601 342.212C275.553 339.86 271.737 340.712 271.737 339.152C271.737 338.624 272.217 338.24 273.021 338.24C273.897 338.24 274.401 338.72 274.449 339.38H275.541C275.469 338.096 274.509 337.316 273.057 337.316C271.593 337.316 270.645 338.144 270.645 339.152C270.645 341.6 274.533 340.748 274.533 342.212C274.533 342.752 274.053 343.184 273.189 343.184C272.265 343.184 271.701 342.704 271.641 342.068H270.513C270.585 343.268 271.665 344.108 273.201 344.108C274.653 344.108 275.601 343.292 275.601 342.212Z" fill="#847F8A"/>
<path d="M69.34 360H70.26V352.77H68.38V353.6H69.34V360ZM71.8231 356.31C71.8231 358.41 72.3431 360 74.3431 360C76.3331 360 76.8531 358.41 76.8531 356.31C76.8531 354.24 76.3331 352.66 74.3431 352.66C72.3431 352.66 71.8231 354.24 71.8231 356.31ZM75.9531 356.31C75.9531 357.87 75.7631 359.17 74.3431 359.17C72.9131 359.17 72.7231 357.87 72.7231 356.31C72.7231 354.81 72.9131 353.49 74.3431 353.49C75.7631 353.49 75.9531 354.81 75.9531 356.31ZM80.5784 357.24C80.5784 358.94 81.7084 360.09 83.1784 360.09C84.1784 360.09 84.8884 359.58 85.2184 358.97V360H86.1384V352.6H85.2184V355.5C84.8384 354.87 84.0484 354.43 83.1884 354.43C81.7084 354.43 80.5784 355.53 80.5784 357.24ZM85.2184 357.25C85.2184 358.54 84.3584 359.29 83.3584 359.29C82.3584 359.29 81.5084 358.53 81.5084 357.24C81.5084 355.95 82.3584 355.22 83.3584 355.22C84.3584 355.22 85.2184 355.98 85.2184 357.25ZM87.3363 357.24C87.3363 358.94 88.4663 360.09 89.9263 360.09C90.9363 360.09 91.6463 359.57 91.9763 358.98V360H92.8963V354.52H91.9763V355.52C91.6563 354.95 90.9563 354.43 89.9363 354.43C88.4663 354.43 87.3363 355.53 87.3363 357.24ZM91.9763 357.25C91.9763 358.54 91.1163 359.29 90.1163 359.29C89.1163 359.29 88.2663 358.53 88.2663 357.24C88.2663 355.95 89.1163 355.22 90.1163 355.22C91.1163 355.22 91.9763 355.98 91.9763 357.25ZM96.5141 358.96L94.7941 354.52H93.7841L95.9941 359.94L94.9141 362.58H95.8541L99.1541 354.52H98.2141L96.5141 358.96ZM104.009 358.51C103.969 356.55 100.789 357.26 100.789 355.96C100.789 355.52 101.189 355.2 101.859 355.2C102.589 355.2 103.009 355.6 103.049 356.15H103.959C103.899 355.08 103.099 354.43 101.889 354.43C100.669 354.43 99.8788 355.12 99.8788 355.96C99.8788 358 103.119 357.29 103.119 358.51C103.119 358.96 102.719 359.32 101.999 359.32C101.229 359.32 100.759 358.92 100.709 358.39H99.7688C99.8288 359.39 100.729 360.09 102.009 360.09C103.219 360.09 104.009 359.41 104.009 358.51ZM107.619 357.24C107.619 358.94 108.749 360.09 110.209 360.09C111.219 360.09 111.929 359.57 112.259 358.98V360H113.179V354.52H112.259V355.52C111.939 354.95 111.239 354.43 110.219 354.43C108.749 354.43 107.619 355.53 107.619 357.24ZM112.259 357.25C112.259 358.54 111.399 359.29 110.399 359.29C109.399 359.29 108.549 358.53 108.549 357.24C108.549 355.95 109.399 355.22 110.399 355.22C111.399 355.22 112.259 355.98 112.259 357.25ZM114.377 357.24C114.377 358.94 115.507 360.09 116.977 360.09C117.977 360.09 118.687 359.56 119.017 358.97V360.12C119.017 361.29 118.287 361.91 117.317 361.91C116.417 361.91 115.767 361.46 115.567 360.8H114.667C114.847 361.97 115.877 362.7 117.317 362.7C118.927 362.7 119.937 361.63 119.937 360.12V354.52H119.017V355.52C118.697 354.93 117.977 354.43 116.977 354.43C115.507 354.43 114.377 355.53 114.377 357.24ZM119.017 357.25C119.017 358.54 118.157 359.29 117.157 359.29C116.157 359.29 115.307 358.53 115.307 357.24C115.307 355.95 116.157 355.22 117.157 355.22C118.157 355.22 119.017 355.98 119.017 357.25ZM126.675 357.25C126.675 355.52 125.465 354.43 123.905 354.43C122.355 354.43 121.135 355.52 121.135 357.25C121.135 358.99 122.315 360.09 123.865 360.09C125.425 360.09 126.675 358.99 126.675 357.25ZM122.065 357.25C122.065 355.87 122.935 355.22 123.895 355.22C124.835 355.22 125.745 355.87 125.745 357.25C125.745 358.64 124.815 359.29 123.865 359.29C122.915 359.29 122.065 358.64 122.065 357.25Z" fill="#847F8A"/>
<path d="M72.984 396.998L70.296 389.228H68.196L71.78 399H74.16L77.744 389.228H75.658L72.984 396.998ZM78.9191 399H80.8791V391.244H78.9191V399ZM79.9131 390.32C80.5991 390.32 81.1171 389.816 81.1171 389.172C81.1171 388.528 80.5991 388.024 79.9131 388.024C79.2131 388.024 78.7091 388.528 78.7091 389.172C78.7091 389.816 79.2131 390.32 79.9131 390.32ZM88.8356 396.788C88.7796 393.946 84.4816 394.828 84.4816 393.414C84.4816 392.966 84.8596 392.672 85.5876 392.672C86.3576 392.672 86.8336 393.078 86.8896 393.68H88.7656C88.6536 392.14 87.5196 391.118 85.6436 391.118C83.7256 391.118 82.5776 392.154 82.5776 393.442C82.5776 396.284 86.9596 395.402 86.9596 396.788C86.9596 397.236 86.5396 397.586 85.7696 397.586C84.9856 397.586 84.4396 397.138 84.3696 396.55H82.3956C82.4796 397.992 83.8376 399.126 85.7836 399.126C87.6736 399.126 88.8356 398.118 88.8356 396.788ZM90.4445 399H92.4045V391.244H90.4445V399ZM91.4385 390.32C92.1245 390.32 92.6425 389.816 92.6425 389.172C92.6425 388.528 92.1245 388.024 91.4385 388.024C90.7385 388.024 90.2345 388.528 90.2345 389.172C90.2345 389.816 90.7385 390.32 91.4385 390.32ZM94.649 396.592C94.649 398.37 95.643 399 97.127 399H98.359V397.348H97.449C96.833 397.348 96.623 397.124 96.623 396.606V392.854H98.359V391.244H96.623V389.326H94.649V391.244H93.725V392.854H94.649V396.592ZM107.259 395.122C107.259 392.672 105.509 391.118 103.269 391.118C101.029 391.118 99.2787 392.672 99.2787 395.122C99.2787 397.558 100.973 399.126 103.213 399.126C105.467 399.126 107.259 397.558 107.259 395.122ZM101.267 395.122C101.267 393.568 102.205 392.826 103.241 392.826C104.277 392.826 105.243 393.568 105.243 395.122C105.243 396.662 104.249 397.418 103.213 397.418C102.163 397.418 101.267 396.662 101.267 395.122ZM110.656 395.136C110.656 393.638 111.356 393.19 112.518 393.19H113.036V391.132C111.958 391.132 111.146 391.65 110.656 392.448V391.244H108.696V399H110.656V395.136ZM117.189 395.122C117.189 397.558 118.785 399.126 121.025 399.126C122.957 399.126 124.259 398.034 124.679 396.382H122.565C122.327 397.082 121.823 397.446 121.011 397.446C119.919 397.446 119.191 396.634 119.191 395.122C119.191 393.61 119.919 392.784 121.011 392.784C121.823 392.784 122.341 393.204 122.565 393.862H124.679C124.259 392.126 122.957 391.118 121.025 391.118C118.785 391.118 117.189 392.686 117.189 395.122ZM126.114 399H128.074V394.716C128.074 393.47 128.76 392.798 129.824 392.798C130.86 392.798 131.546 393.47 131.546 394.716V399H133.506V394.45C133.506 392.308 132.232 391.132 130.482 391.132C129.446 391.132 128.578 391.552 128.074 392.21V388.64H126.114V399ZM138.702 392.728C139.71 392.728 140.522 393.372 140.55 394.394H136.868C137.022 393.33 137.764 392.728 138.702 392.728ZM142.384 396.564H140.27C140.018 397.082 139.556 397.502 138.716 397.502C137.736 397.502 136.952 396.858 136.854 395.71H142.524C142.566 395.458 142.58 395.206 142.58 394.954C142.58 392.644 140.998 391.118 138.758 391.118C136.462 391.118 134.866 392.672 134.866 395.122C134.866 397.558 136.504 399.126 138.758 399.126C140.676 399.126 141.964 397.992 142.384 396.564ZM143.507 395.122C143.507 397.558 145.103 399.126 147.343 399.126C149.275 399.126 150.577 398.034 150.997 396.382H148.883C148.645 397.082 148.141 397.446 147.329 397.446C146.237 397.446 145.509 396.634 145.509 395.122C145.509 393.61 146.237 392.784 147.329 392.784C148.141 392.784 148.659 393.204 148.883 393.862H150.997C150.577 392.126 149.275 391.118 147.343 391.118C145.103 391.118 143.507 392.686 143.507 395.122ZM152.433 399H154.393V395.696L157.025 399H159.573L156.129 395.136L159.545 391.244H156.997L154.393 394.534V388.64H152.433V399ZM163.941 392.728C164.949 392.728 165.761 393.372 165.789 394.394H162.107C162.261 393.33 163.003 392.728 163.941 392.728ZM167.623 396.564H165.509C165.257 397.082 164.795 397.502 163.955 397.502C162.975 397.502 162.191 396.858 162.093 395.71H167.763C167.805 395.458 167.819 395.206 167.819 394.954C167.819 392.644 166.237 391.118 163.997 391.118C161.701 391.118 160.105 392.672 160.105 395.122C160.105 397.558 161.743 399.126 163.997 399.126C165.915 399.126 167.203 397.992 167.623 396.564ZM168.745 395.094C168.745 397.516 170.313 399.126 172.287 399.126C173.505 399.126 174.373 398.566 174.835 397.852V399H176.823V388.64H174.835V392.322C174.303 391.594 173.323 391.118 172.301 391.118C170.313 391.118 168.745 392.672 168.745 395.094ZM174.849 395.122C174.849 396.592 173.869 397.404 172.791 397.404C171.741 397.404 170.747 396.564 170.747 395.094C170.747 393.624 171.741 392.84 172.791 392.84C173.869 392.84 174.849 393.652 174.849 395.122ZM189.563 395.122C189.563 392.672 187.813 391.118 185.573 391.118C183.333 391.118 181.583 392.672 181.583 395.122C181.583 397.558 183.277 399.126 185.517 399.126C187.771 399.126 189.563 397.558 189.563 395.122ZM183.571 395.122C183.571 393.568 184.509 392.826 185.545 392.826C186.581 392.826 187.547 393.568 187.547 395.122C187.547 396.662 186.553 397.418 185.517 397.418C184.467 397.418 183.571 396.662 183.571 395.122ZM198.323 391.244H196.349V395.514C196.349 396.76 195.677 397.432 194.613 397.432C193.577 397.432 192.891 396.76 192.891 395.514V391.244H190.931V395.794C190.931 397.922 192.233 399.098 194.039 399.098C195.005 399.098 195.859 398.678 196.349 398.02V399H198.323V391.244ZM200.565 396.592C200.565 398.37 201.559 399 203.043 399H204.275V397.348H203.365C202.749 397.348 202.539 397.124 202.539 396.606V392.854H204.275V391.244H202.539V389.326H200.565V391.244H199.641V392.854H200.565V396.592Z" fill="#222025"/>
<path d="M72.056 417.848L69.428 410.636H68.264L71.42 419H72.68L75.836 410.636H74.684L72.056 417.848ZM77.0334 419H78.1254V412.424H77.0334V419ZM77.5974 411.356C77.9934 411.356 78.3174 411.032 78.3174 410.612C78.3174 410.192 77.9934 409.868 77.5974 409.868C77.1774 409.868 76.8534 410.192 76.8534 410.612C76.8534 411.032 77.1774 411.356 77.5974 411.356ZM84.7145 417.212C84.6665 414.86 80.8505 415.712 80.8505 414.152C80.8505 413.624 81.3305 413.24 82.1345 413.24C83.0105 413.24 83.5145 413.72 83.5625 414.38H84.6545C84.5825 413.096 83.6225 412.316 82.1705 412.316C80.7065 412.316 79.7585 413.144 79.7585 414.152C79.7585 416.6 83.6465 415.748 83.6465 417.212C83.6465 417.752 83.1665 418.184 82.3025 418.184C81.3785 418.184 80.8145 417.704 80.7545 417.068H79.6265C79.6985 418.268 80.7785 419.108 82.3145 419.108C83.7665 419.108 84.7145 418.292 84.7145 417.212ZM86.496 417.2C86.496 418.52 87.156 419 88.32 419H89.304V418.076H88.5C87.828 418.076 87.588 417.848 87.588 417.2V413.324H89.304V412.424H87.588V410.768H86.496V412.424H85.644V413.324H86.496V417.2ZM96.8671 415.7C96.8671 413.624 95.4151 412.316 93.5431 412.316C91.6831 412.316 90.2191 413.624 90.2191 415.7C90.2191 417.788 91.6351 419.108 93.4951 419.108C95.3671 419.108 96.8671 417.788 96.8671 415.7ZM91.3351 415.7C91.3351 414.044 92.3791 413.264 93.5311 413.264C94.6591 413.264 95.7511 414.044 95.7511 415.7C95.7511 417.368 94.6351 418.148 93.4951 418.148C92.3551 418.148 91.3351 417.368 91.3351 415.7ZM99.3949 415.424C99.3949 413.9 100.187 413.432 101.231 413.432H101.519V412.304C100.475 412.304 99.7669 412.76 99.3949 413.492V412.424H98.3029V419H99.3949V415.424ZM105.979 419H107.071V415.364C107.071 413.948 107.839 413.252 108.955 413.252C110.059 413.252 110.791 413.936 110.791 415.28V419H111.871V415.124C111.871 413.24 110.707 412.304 109.243 412.304C108.319 412.304 107.503 412.676 107.071 413.372V410.12H105.979V419ZM113.246 415.688C113.246 417.728 114.602 419.108 116.354 419.108C117.566 419.108 118.418 418.484 118.814 417.776V419H119.918V412.424H118.814V413.624C118.43 412.94 117.59 412.316 116.366 412.316C114.602 412.316 113.246 413.636 113.246 415.688ZM118.814 415.7C118.814 417.248 117.782 418.148 116.582 418.148C115.382 418.148 114.362 417.236 114.362 415.688C114.362 414.14 115.382 413.264 116.582 413.264C117.782 413.264 118.814 414.176 118.814 415.7ZM126.492 417.212C126.444 414.86 122.628 415.712 122.628 414.152C122.628 413.624 123.108 413.24 123.912 413.24C124.788 413.24 125.292 413.72 125.34 414.38H126.432C126.36 413.096 125.4 412.316 123.948 412.316C122.484 412.316 121.536 413.144 121.536 414.152C121.536 416.6 125.424 415.748 125.424 417.212C125.424 417.752 124.944 418.184 124.08 418.184C123.156 418.184 122.592 417.704 122.532 417.068H121.404C121.476 418.268 122.556 419.108 124.092 419.108C125.544 419.108 126.492 418.292 126.492 417.212ZM130.825 415.7C130.825 417.788 132.157 419.108 134.029 419.108C135.661 419.108 136.729 418.196 137.065 416.888H135.889C135.649 417.716 135.001 418.184 134.029 418.184C132.829 418.184 131.941 417.332 131.941 415.7C131.941 414.092 132.829 413.24 134.029 413.24C135.001 413.24 135.661 413.744 135.889 414.536H137.065C136.729 413.156 135.661 412.316 134.029 412.316C132.157 412.316 130.825 413.636 130.825 415.7ZM138.522 419H139.614V415.364C139.614 413.948 140.382 413.252 141.498 413.252C142.602 413.252 143.334 413.936 143.334 415.28V419H144.414V415.124C144.414 413.24 143.25 412.304 141.786 412.304C140.862 412.304 140.046 412.676 139.614 413.372V410.12H138.522V419ZM148.993 413.24C150.121 413.24 151.081 413.948 151.069 415.232H146.917C147.037 413.948 147.925 413.24 148.993 413.24ZM152.065 416.972H150.889C150.649 417.68 150.025 418.184 149.041 418.184C147.925 418.184 146.989 417.452 146.905 416.12H152.161C152.185 415.892 152.197 415.7 152.197 415.46C152.197 413.66 150.949 412.316 149.041 412.316C147.121 412.316 145.789 413.624 145.789 415.7C145.789 417.788 147.169 419.108 149.041 419.108C150.673 419.108 151.729 418.172 152.065 416.972ZM153.231 415.7C153.231 417.788 154.563 419.108 156.435 419.108C158.067 419.108 159.135 418.196 159.471 416.888H158.295C158.055 417.716 157.407 418.184 156.435 418.184C155.235 418.184 154.347 417.332 154.347 415.7C154.347 414.092 155.235 413.24 156.435 413.24C157.407 413.24 158.067 413.744 158.295 414.536H159.471C159.135 413.156 158.067 412.316 156.435 412.316C154.563 412.316 153.231 413.636 153.231 415.7ZM160.928 419H162.02V416.096L164.6 419H166.088L162.98 415.7L166.076 412.424H164.552L162.02 415.34V410.12H160.928V419ZM176.543 415.7C176.543 413.624 175.091 412.316 173.219 412.316C171.359 412.316 169.895 413.624 169.895 415.7C169.895 417.788 171.311 419.108 173.171 419.108C175.043 419.108 176.543 417.788 176.543 415.7ZM171.011 415.7C171.011 414.044 172.055 413.264 173.207 413.264C174.335 413.264 175.427 414.044 175.427 415.7C175.427 417.368 174.311 418.148 173.171 418.148C172.031 418.148 171.011 417.368 171.011 415.7ZM183.811 412.424H182.719V416.036C182.719 417.452 181.963 418.148 180.835 418.148C179.731 418.148 178.999 417.464 178.999 416.132V412.424H177.919V416.276C177.919 418.16 179.107 419.096 180.619 419.096C181.495 419.096 182.299 418.712 182.719 418.028V419H183.811V412.424ZM185.894 417.2C185.894 418.52 186.554 419 187.718 419H188.702V418.076H187.898C187.226 418.076 186.986 417.848 186.986 417.2V413.324H188.702V412.424H186.986V410.768H185.894V412.424H185.042V413.324H185.894V417.2ZM199.465 415.7C199.465 413.624 198.013 412.316 196.141 412.316C194.281 412.316 192.817 413.624 192.817 415.7C192.817 417.788 194.233 419.108 196.093 419.108C197.965 419.108 199.465 417.788 199.465 415.7ZM193.933 415.7C193.933 414.044 194.977 413.264 196.129 413.264C197.257 413.264 198.349 414.044 198.349 415.7C198.349 417.368 197.233 418.148 196.093 418.148C194.953 418.148 193.933 417.368 193.933 415.7ZM201.105 419H202.197V413.324H203.577V412.424H202.197V411.956C202.197 411.104 202.521 410.744 203.505 410.744V409.832C201.825 409.832 201.105 410.492 201.105 411.956V412.424H200.253V413.324H201.105V419ZM208.289 417.2C208.289 418.52 208.949 419 210.113 419H211.097V418.076H210.293C209.621 418.076 209.381 417.848 209.381 417.2V413.324H211.097V412.424H209.381V410.768H208.289V412.424H207.437V413.324H208.289V417.2ZM212.42 419H213.512V415.364C213.512 413.948 214.28 413.252 215.396 413.252C216.5 413.252 217.232 413.936 217.232 415.28V419H218.312V415.124C218.312 413.24 217.148 412.304 215.684 412.304C214.76 412.304 213.944 412.676 213.512 413.372V410.12H212.42V419ZM222.892 413.24C224.02 413.24 224.98 413.948 224.968 415.232H220.816C220.936 413.948 221.824 413.24 222.892 413.24ZM225.964 416.972H224.788C224.548 417.68 223.924 418.184 222.94 418.184C221.824 418.184 220.888 417.452 220.804 416.12H226.06C226.084 415.892 226.096 415.7 226.096 415.46C226.096 413.66 224.848 412.316 222.94 412.316C221.02 412.316 219.688 413.624 219.688 415.7C219.688 417.788 221.068 419.108 222.94 419.108C224.572 419.108 225.628 418.172 225.964 416.972ZM231.829 413.636V412.424H230.737V422.12H231.829V417.788C232.237 418.46 233.089 419.108 234.289 419.108C236.053 419.108 237.409 417.728 237.409 415.688C237.409 413.636 236.053 412.316 234.289 412.316C233.089 412.316 232.225 412.94 231.829 413.636ZM236.293 415.688C236.293 417.236 235.273 418.148 234.061 418.148C232.873 418.148 231.829 417.248 231.829 415.7C231.829 414.176 232.873 413.264 234.061 413.264C235.273 413.264 236.293 414.14 236.293 415.688ZM239.938 415.424C239.938 413.9 240.73 413.432 241.774 413.432H242.062V412.304C241.018 412.304 240.31 412.76 239.938 413.492V412.424H238.846V419H239.938V415.424ZM246.118 413.24C247.246 413.24 248.206 413.948 248.194 415.232H244.042C244.162 413.948 245.05 413.24 246.118 413.24ZM249.19 416.972H248.014C247.774 417.68 247.15 418.184 246.166 418.184C245.05 418.184 244.114 417.452 244.03 416.12H249.286C249.31 415.892 249.322 415.7 249.322 415.46C249.322 413.66 248.074 412.316 246.166 412.316C244.246 412.316 242.914 413.624 242.914 415.7C242.914 417.788 244.294 419.108 246.166 419.108C247.798 419.108 248.854 418.172 249.19 416.972ZM260.256 419H261.336V415.124C261.336 413.24 260.172 412.304 258.672 412.304C257.664 412.304 256.728 412.82 256.344 413.768C255.912 412.784 255.012 412.304 253.932 412.304C253.068 412.304 252.288 412.676 251.856 413.372V412.424H250.764V419H251.856V415.376C251.856 413.96 252.612 413.252 253.716 413.252C254.796 413.252 255.516 413.936 255.516 415.28V419H256.596V415.376C256.596 413.96 257.352 413.252 258.456 413.252C259.536 413.252 260.256 413.936 260.256 415.28V419ZM263.127 419H264.219V412.424H263.127V419ZM263.691 411.356C264.087 411.356 264.411 411.032 264.411 410.612C264.411 410.192 264.087 409.868 263.691 409.868C263.271 409.868 262.947 410.192 262.947 410.612C262.947 411.032 263.271 411.356 263.691 411.356ZM270.808 417.212C270.76 414.86 266.944 415.712 266.944 414.152C266.944 413.624 267.424 413.24 268.228 413.24C269.104 413.24 269.608 413.72 269.656 414.38H270.748C270.676 413.096 269.716 412.316 268.264 412.316C266.8 412.316 265.852 413.144 265.852 414.152C265.852 416.6 269.74 415.748 269.74 417.212C269.74 417.752 269.26 418.184 268.396 418.184C267.472 418.184 266.908 417.704 266.848 417.068H265.72C265.792 418.268 266.872 419.108 268.408 419.108C269.86 419.108 270.808 418.292 270.808 417.212ZM275.146 413.24C276.274 413.24 277.234 413.948 277.222 415.232H273.07C273.19 413.948 274.078 413.24 275.146 413.24ZM278.218 416.972H277.042C276.802 417.68 276.178 418.184 275.194 418.184C274.078 418.184 273.142 417.452 273.058 416.12H278.314C278.338 415.892 278.35 415.7 278.35 415.46C278.35 413.66 277.102 412.316 275.194 412.316C273.274 412.316 271.942 413.624 271.942 415.7C271.942 417.788 273.322 419.108 275.194 419.108C276.826 419.108 277.882 418.172 278.218 416.972ZM284.519 417.212C284.471 414.86 280.655 415.712 280.655 414.152C280.655 413.624 281.135 413.24 281.939 413.24C282.815 413.24 283.319 413.72 283.367 414.38H284.459C284.387 413.096 283.427 412.316 281.975 412.316C280.511 412.316 279.563 413.144 279.563 414.152C279.563 416.6 283.451 415.748 283.451 417.212C283.451 417.752 282.971 418.184 282.107 418.184C281.183 418.184 280.619 417.704 280.559 417.068H279.431C279.503 418.268 280.583 419.108 282.119 419.108C283.571 419.108 284.519 418.292 284.519 417.212Z" fill="#847F8A"/>
<path d="M69.34 435H70.26V427.77H68.38V428.6H69.34V435ZM71.8231 431.31C71.8231 433.41 72.3431 435 74.3431 435C76.3331 435 76.8531 433.41 76.8531 431.31C76.8531 429.24 76.3331 427.66 74.3431 427.66C72.3431 427.66 71.8231 429.24 71.8231 431.31ZM75.9531 431.31C75.9531 432.87 75.7631 434.17 74.3431 434.17C72.9131 434.17 72.7231 432.87 72.7231 431.31C72.7231 429.81 72.9131 428.49 74.3431 428.49C75.7631 428.49 75.9531 429.81 75.9531 431.31ZM80.5784 432.24C80.5784 433.94 81.7084 435.09 83.1784 435.09C84.1784 435.09 84.8884 434.58 85.2184 433.97V435H86.1384V427.6H85.2184V430.5C84.8384 429.87 84.0484 429.43 83.1884 429.43C81.7084 429.43 80.5784 430.53 80.5784 432.24ZM85.2184 432.25C85.2184 433.54 84.3584 434.29 83.3584 434.29C82.3584 434.29 81.5084 433.53 81.5084 432.24C81.5084 430.95 82.3584 430.22 83.3584 430.22C84.3584 430.22 85.2184 430.98 85.2184 432.25ZM87.3363 432.24C87.3363 433.94 88.4663 435.09 89.9263 435.09C90.9363 435.09 91.6463 434.57 91.9763 433.98V435H92.8963V429.52H91.9763V430.52C91.6563 429.95 90.9563 429.43 89.9363 429.43C88.4663 429.43 87.3363 430.53 87.3363 432.24ZM91.9763 432.25C91.9763 433.54 91.1163 434.29 90.1163 434.29C89.1163 434.29 88.2663 433.53 88.2663 432.24C88.2663 430.95 89.1163 430.22 90.1163 430.22C91.1163 430.22 91.9763 430.98 91.9763 432.25ZM96.5141 433.96L94.7941 429.52H93.7841L95.9941 434.94L94.9141 437.58H95.8541L99.1541 429.52H98.2141L96.5141 433.96ZM104.009 433.51C103.969 431.55 100.789 432.26 100.789 430.96C100.789 430.52 101.189 430.2 101.859 430.2C102.589 430.2 103.009 430.6 103.049 431.15H103.959C103.899 430.08 103.099 429.43 101.889 429.43C100.669 429.43 99.8788 430.12 99.8788 430.96C99.8788 433 103.119 432.29 103.119 433.51C103.119 433.96 102.719 434.32 101.999 434.32C101.229 434.32 100.759 433.92 100.709 433.39H99.7688C99.8288 434.39 100.729 435.09 102.009 435.09C103.219 435.09 104.009 434.41 104.009 433.51ZM107.619 432.24C107.619 433.94 108.749 435.09 110.209 435.09C111.219 435.09 111.929 434.57 112.259 433.98V435H113.179V429.52H112.259V430.52C111.939 429.95 111.239 429.43 110.219 429.43C108.749 429.43 107.619 430.53 107.619 432.24ZM112.259 432.25C112.259 433.54 111.399 434.29 110.399 434.29C109.399 434.29 108.549 433.53 108.549 432.24C108.549 430.95 109.399 430.22 110.399 430.22C111.399 430.22 112.259 430.98 112.259 432.25ZM114.377 432.24C114.377 433.94 115.507 435.09 116.977 435.09C117.977 435.09 118.687 434.56 119.017 433.97V435.12C119.017 436.29 118.287 436.91 117.317 436.91C116.417 436.91 115.767 436.46 115.567 435.8H114.667C114.847 436.97 115.877 437.7 117.317 437.7C118.927 437.7 119.937 436.63 119.937 435.12V429.52H119.017V430.52C118.697 429.93 117.977 429.43 116.977 429.43C115.507 429.43 114.377 430.53 114.377 432.24ZM119.017 432.25C119.017 433.54 118.157 434.29 117.157 434.29C116.157 434.29 115.307 433.53 115.307 432.24C115.307 430.95 116.157 430.22 117.157 430.22C118.157 430.22 119.017 430.98 119.017 432.25ZM126.675 432.25C126.675 430.52 125.465 429.43 123.905 429.43C122.355 429.43 121.135 430.52 121.135 432.25C121.135 433.99 122.315 435.09 123.865 435.09C125.425 435.09 126.675 433.99 126.675 432.25ZM122.065 432.25C122.065 430.87 122.935 430.22 123.895 430.22C124.835 430.22 125.745 430.87 125.745 432.25C125.745 433.64 124.815 434.29 123.865 434.29C122.915 434.29 122.065 433.64 122.065 432.25Z" fill="#847F8A"/>
<circle cx="283" cy="250" r="9" stroke="#574571" stroke-width="2"/>
<path d="M287.5 250H283.25C283.112 250 283 249.888 283 249.75V246.5" stroke="#574571" stroke-width="2" stroke-linecap="round"/>
<path d="M304.47 241.83L302.41 236.05H301.19L303.81 243H305.13L307.74 236.05H306.54L304.47 241.83ZM308.693 243H309.833V237.49H308.693V243ZM309.273 236.76C309.673 236.76 309.993 236.44 309.993 236.03C309.993 235.62 309.673 235.3 309.273 235.3C308.863 235.3 308.543 235.62 308.543 236.03C308.543 236.44 308.863 236.76 309.273 236.76ZM315.44 241.46C315.38 239.47 312.27 240.09 312.27 238.98C312.27 238.61 312.59 238.36 313.2 238.36C313.82 238.36 314.19 238.69 314.23 239.17H315.37C315.31 238.07 314.49 237.4 313.24 237.4C311.94 237.4 311.12 238.11 311.12 238.99C311.12 241.01 314.32 240.39 314.32 241.47C314.32 241.85 313.97 242.13 313.31 242.13C312.68 242.13 312.25 241.76 312.21 241.31H311.03C311.08 242.31 312.01 243.09 313.33 243.09C314.63 243.09 315.44 242.39 315.44 241.46ZM316.672 243H317.812V237.49H316.672V243ZM317.252 236.76C317.652 236.76 317.972 236.44 317.972 236.03C317.972 235.62 317.652 235.3 317.252 235.3C316.842 235.3 316.522 235.62 316.522 236.03C316.522 236.44 316.842 236.76 317.252 236.76ZM319.489 241.47C319.489 242.59 320.099 243 321.079 243H321.979V242.05H321.279C320.799 242.05 320.639 241.88 320.639 241.47V238.42H321.979V237.49H320.639V236.12H319.489V237.49H318.839V238.42H319.489V241.47ZM325.247 240.22C325.247 241.92 326.397 243.09 327.847 243.09C328.747 243.09 329.407 242.67 329.757 242.17V243H330.907V235.6H329.757V238.26C329.337 237.74 328.577 237.4 327.857 237.4C326.397 237.4 325.247 238.52 325.247 240.22ZM329.757 240.24C329.757 241.43 328.947 242.1 328.087 242.1C327.237 242.1 326.417 241.41 326.417 240.22C326.417 239.03 327.237 238.39 328.087 238.39C328.947 238.39 329.757 239.06 329.757 240.24ZM337.394 237.49H336.254V240.56C336.254 241.57 335.704 242.09 334.864 242.09C334.034 242.09 333.484 241.57 333.484 240.56V237.49H332.354V240.73C332.354 242.27 333.334 243.08 334.624 243.08C335.274 243.08 335.894 242.81 336.254 242.34V243H337.394V237.49ZM340.038 240.1C340.038 238.93 340.558 238.58 341.398 238.58H341.688V237.4C340.908 237.4 340.358 237.74 340.038 238.29V237.49H338.898V243H340.038V240.1ZM342.356 240.22C342.356 241.92 343.506 243.09 344.936 243.09C345.856 243.09 346.516 242.65 346.866 242.18V243H348.016V237.49H346.866V238.29C346.526 237.84 345.886 237.4 344.956 237.4C343.506 237.4 342.356 238.52 342.356 240.22ZM346.866 240.24C346.866 241.43 346.056 242.1 345.196 242.1C344.346 242.1 343.526 241.41 343.526 240.22C343.526 239.03 344.346 238.39 345.196 238.39C346.056 238.39 346.866 239.06 346.866 240.24ZM349.694 241.47C349.694 242.59 350.304 243 351.284 243H352.184V242.05H351.484C351.004 242.05 350.844 241.88 350.844 241.47V238.42H352.184V237.49H350.844V236.12H349.694V237.49H349.044V238.42H349.694V241.47ZM353.234 243H354.374V237.49H353.234V243ZM353.814 236.76C354.214 236.76 354.534 236.44 354.534 236.03C354.534 235.62 354.214 235.3 353.814 235.3C353.404 235.3 353.084 235.62 353.084 236.03C353.084 236.44 353.404 236.76 353.814 236.76ZM361.121 240.24C361.121 238.51 359.881 237.4 358.311 237.4C356.741 237.4 355.501 238.51 355.501 240.24C355.501 241.97 356.691 243.09 358.261 243.09C359.841 243.09 361.121 241.97 361.121 240.24ZM356.661 240.24C356.661 238.99 357.431 238.39 358.291 238.39C359.141 238.39 359.951 238.99 359.951 240.24C359.951 241.49 359.111 242.1 358.261 242.1C357.401 242.1 356.661 241.49 356.661 240.24ZM366.158 243H367.288V239.75C367.288 238.21 366.318 237.4 365.028 237.4C364.368 237.4 363.758 237.67 363.388 238.12V237.49H362.248V243H363.388V239.92C363.388 238.91 363.938 238.39 364.778 238.39C365.608 238.39 366.158 238.91 366.158 239.92V243Z" fill="#847F8A"/>
<path d="M307.407 262H308.975V259.872H310.277V258.486H308.975V251.92H307.043L302.339 258.668V259.872H307.407V262ZM304.173 258.486L307.477 253.544V258.486H304.173ZM314.914 258.108C314.914 260.488 316.524 262.126 318.554 262.126C319.814 262.126 320.738 261.538 321.228 260.838V262H322.838V251.64H321.228V255.364C320.64 254.636 319.576 254.16 318.568 254.16C316.524 254.16 314.914 255.728 314.914 258.108ZM321.228 258.136C321.228 259.802 320.094 260.74 318.89 260.74C317.7 260.74 316.552 259.774 316.552 258.108C316.552 256.442 317.7 255.546 318.89 255.546C320.094 255.546 321.228 256.484 321.228 258.136ZM324.403 258.108C324.403 260.488 326.013 262.126 328.015 262.126C329.303 262.126 330.227 261.51 330.717 260.852V262H332.327V254.286H330.717V255.406C330.241 254.776 329.345 254.16 328.043 254.16C326.013 254.16 324.403 255.728 324.403 258.108ZM330.717 258.136C330.717 259.802 329.583 260.74 328.379 260.74C327.189 260.74 326.041 259.774 326.041 258.108C326.041 256.442 327.189 255.546 328.379 255.546C329.583 255.546 330.717 256.484 330.717 258.136ZM337.461 260.166L335.291 254.286H333.513L336.551 261.874L334.983 265.626H336.635L341.367 254.286H339.715L337.461 260.166ZM348.325 259.844C348.241 257.058 343.887 257.926 343.887 256.372C343.887 255.854 344.335 255.504 345.189 255.504C346.057 255.504 346.575 255.966 346.631 256.638H348.227C348.143 255.098 346.995 254.16 345.245 254.16C343.425 254.16 342.277 255.154 342.277 256.386C342.277 259.214 346.757 258.346 346.757 259.858C346.757 260.39 346.267 260.782 345.343 260.782C344.461 260.782 343.859 260.264 343.803 259.634H342.151C342.221 261.034 343.523 262.126 345.371 262.126C347.191 262.126 348.325 261.146 348.325 259.844Z" fill="#574571"/>
<path opacity="0.1" d="M22 177L363 177" stroke="#514C58"/>
<path opacity="0.1" d="M22 286L363 286" stroke="#514C58"/>
<path opacity="0.1" d="M22 462L363 462" stroke="#514C58"/>
<path opacity="0.1" d="M1 89H385" stroke="#514C58" stroke-width="2"/>
<rect x="22" y="484" width="341" height="55" rx="27.5" fill="#2D164E"/>
<rect x="124" y="495" width="33" height="33" rx="16.5" fill="#574571"/>
<path d="M133.68 503.32L134.293 502.707C134.683 502.317 135.317 502.317 135.707 502.707L138.293 505.293C138.683 505.683 138.683 506.317 138.293 506.707L136.5 508.5C136.202 508.798 136.128 509.255 136.317 509.633C137.409 511.819 139.181 513.591 141.367 514.683C141.745 514.872 142.202 514.798 142.5 514.5L144.293 512.707C144.683 512.317 145.317 512.317 145.707 512.707L148.293 515.293C148.683 515.683 148.683 516.317 148.293 516.707L147.68 517.32C145.568 519.432 142.226 519.669 139.837 517.878L138.629 516.971C136.885 515.664 135.336 514.115 134.029 512.371L133.122 511.163C131.331 508.774 131.568 505.432 133.68 503.32Z" fill="white"/>
<path d="M167.49 511.1C167.49 514.026 169.632 516.084 172.446 516.084C174.616 516.084 176.38 514.936 177.038 512.92H174.784C174.322 513.872 173.482 514.334 172.432 514.334C170.724 514.334 169.506 513.074 169.506 511.1C169.506 509.112 170.724 507.866 172.432 507.866C173.482 507.866 174.322 508.328 174.784 509.266H177.038C176.38 507.264 174.616 506.102 172.446 506.102C169.632 506.102 167.49 508.174 167.49 511.1ZM178.208 512.094C178.208 514.516 179.776 516.126 181.736 516.126C182.968 516.126 183.85 515.538 184.312 514.866V516H186.286V508.244H184.312V509.35C183.85 508.706 182.996 508.118 181.75 508.118C179.776 508.118 178.208 509.672 178.208 512.094ZM184.312 512.122C184.312 513.592 183.332 514.404 182.254 514.404C181.204 514.404 180.21 513.564 180.21 512.094C180.21 510.624 181.204 509.84 182.254 509.84C183.332 509.84 184.312 510.652 184.312 512.122ZM188.2 516H190.16V505.64H188.2V516ZM192.097 516H194.057V505.64H192.097V516ZM204.509 509.266C204.509 510.148 204.019 510.722 202.927 510.722H201.289V507.852H202.927C204.019 507.852 204.509 508.398 204.509 509.266ZM199.329 506.228V516H201.289V512.192H202.213L204.369 516H206.637L204.299 512.038C205.867 511.618 206.525 510.414 206.525 509.224C206.525 507.586 205.349 506.228 202.997 506.228H199.329ZM211.63 509.728C212.638 509.728 213.45 510.372 213.478 511.394H209.796C209.95 510.33 210.692 509.728 211.63 509.728ZM215.312 513.564H213.198C212.946 514.082 212.484 514.502 211.644 514.502C210.664 514.502 209.88 513.858 209.782 512.71H215.452C215.494 512.458 215.508 512.206 215.508 511.954C215.508 509.644 213.926 508.118 211.686 508.118C209.39 508.118 207.794 509.672 207.794 512.122C207.794 514.558 209.432 516.126 211.686 516.126C213.604 516.126 214.892 514.992 215.312 513.564ZM222.959 513.788C222.903 510.946 218.605 511.828 218.605 510.414C218.605 509.966 218.983 509.672 219.711 509.672C220.481 509.672 220.957 510.078 221.013 510.68H222.889C222.777 509.14 221.643 508.118 219.767 508.118C217.849 508.118 216.701 509.154 216.701 510.442C216.701 513.284 221.083 512.402 221.083 513.788C221.083 514.236 220.663 514.586 219.893 514.586C219.109 514.586 218.563 514.138 218.493 513.55H216.519C216.603 514.992 217.961 516.126 219.907 516.126C221.797 516.126 222.959 515.118 222.959 513.788ZM224.568 516H226.528V508.244H224.568V516ZM225.562 507.32C226.248 507.32 226.766 506.816 226.766 506.172C226.766 505.528 226.248 505.024 225.562 505.024C224.862 505.024 224.358 505.528 224.358 506.172C224.358 506.816 224.862 507.32 225.562 507.32ZM227.96 512.094C227.96 514.516 229.528 516.126 231.502 516.126C232.72 516.126 233.588 515.566 234.05 514.852V516H236.038V505.64H234.05V509.322C233.518 508.594 232.538 508.118 231.516 508.118C229.528 508.118 227.96 509.672 227.96 512.094ZM234.064 512.122C234.064 513.592 233.084 514.404 232.006 514.404C230.956 514.404 229.962 513.564 229.962 512.094C229.962 510.624 230.956 509.84 232.006 509.84C233.084 509.84 234.064 510.652 234.064 512.122ZM241.284 509.728C242.292 509.728 243.104 510.372 243.132 511.394H239.45C239.604 510.33 240.346 509.728 241.284 509.728ZM244.966 513.564H242.852C242.6 514.082 242.138 514.502 241.298 514.502C240.318 514.502 239.534 513.858 239.436 512.71H245.106C245.148 512.458 245.162 512.206 245.162 511.954C245.162 509.644 243.58 508.118 241.34 508.118C239.044 508.118 237.448 509.672 237.448 512.122C237.448 514.558 239.086 516.126 241.34 516.126C243.258 516.126 244.546 514.992 244.966 513.564ZM252.025 516H253.985V511.45C253.985 509.308 252.697 508.132 250.891 508.132C249.897 508.132 249.057 508.552 248.553 509.21V508.244H246.593V516H248.553V511.716C248.553 510.47 249.239 509.798 250.303 509.798C251.339 509.798 252.025 510.47 252.025 511.716V516ZM256.157 513.592C256.157 515.37 257.151 516 258.635 516H259.867V514.348H258.957C258.341 514.348 258.131 514.124 258.131 513.606V509.854H259.867V508.244H258.131V506.326H256.157V508.244H255.233V509.854H256.157V513.592Z" fill="white"/>
</svg>
