<svg width="327" height="27" viewBox="0 0 327 27" fill="none" xmlns="http://www.w3.org/2000/svg">
<path d="M21.7969 11.875C21.7969 13.4583 21.5 14.9688 20.9062 16.4062C20.3229 17.8438 19.4427 19.1042 18.2656 20.1875L20.4219 22.75L14.7031 26.4375L13.3594 22.75C12.9635 22.8333 12.5625 22.8958 12.1562 22.9375C11.7604 22.9792 11.3594 23 10.9531 23C9.95312 23 8.99479 22.875 8.07812 22.625C7.16146 22.375 6.30208 22.026 5.5 21.5781C4.69792 21.1198 3.96875 20.5677 3.3125 19.9219C2.65625 19.276 2.08854 18.5573 1.60938 17.7656C1.14062 16.974 0.776042 16.1198 0.515625 15.2031C0.265625 14.276 0.140625 13.3125 0.140625 12.3125C0.140625 11.3229 0.260417 10.3646 0.5 9.4375C0.75 8.5 1.09896 7.61979 1.54688 6.79688C2.00521 5.97396 2.55208 5.22396 3.1875 4.54688C3.83333 3.85938 4.55208 3.27083 5.34375 2.78125C6.13542 2.28125 6.98958 1.89583 7.90625 1.625C8.82292 1.35417 9.78646 1.21875 10.7969 1.21875C12.4115 1.21875 13.8906 1.46354 15.2344 1.95312C16.5885 2.44271 17.75 3.14583 18.7188 4.0625C19.6875 4.97917 20.4427 6.09896 20.9844 7.42188C21.526 8.73438 21.7969 10.2188 21.7969 11.875ZM14.2031 12.3125C14.2031 11.8333 14.1302 11.3698 13.9844 10.9219C13.849 10.4635 13.6458 10.0625 13.375 9.71875C13.1042 9.36458 12.7656 9.08333 12.3594 8.875C11.9531 8.66667 11.4844 8.5625 10.9531 8.5625C10.4323 8.5625 9.96354 8.65625 9.54688 8.84375C9.13021 9.02083 8.77083 9.27083 8.46875 9.59375C8.17708 9.91667 7.94792 10.2969 7.78125 10.7344C7.625 11.1719 7.54688 11.6458 7.54688 12.1562C7.54688 12.6354 7.61458 13.1094 7.75 13.5781C7.89583 14.0365 8.10417 14.4531 8.375 14.8281C8.64583 15.1927 8.98438 15.4896 9.39062 15.7188C9.79688 15.9479 10.2656 16.0625 10.7969 16.0625C11.3073 16.0625 11.7708 15.9635 12.1875 15.7656C12.6146 15.5573 12.974 15.2812 13.2656 14.9375C13.5677 14.5938 13.7969 14.1979 13.9531 13.75C14.1198 13.2917 14.2031 12.8125 14.2031 12.3125ZM42.2344 11.5312C42.2344 12.4792 42.125 13.3958 41.9062 14.2812C41.6875 15.1562 41.3698 15.9792 40.9531 16.75C40.5469 17.5208 40.0469 18.2292 39.4531 18.875C38.8698 19.5104 38.2083 20.0573 37.4688 20.5156C36.7396 20.974 35.9427 21.3333 35.0781 21.5938C34.2135 21.8438 33.2969 21.9688 32.3281 21.9688C31.3906 21.9688 30.4948 21.849 29.6406 21.6094C28.7969 21.3698 28.0052 21.0365 27.2656 20.6094C26.526 20.1719 25.8542 19.651 25.25 19.0469C24.6562 18.4323 24.1458 17.7552 23.7188 17.0156C23.3021 16.2656 22.974 15.4635 22.7344 14.6094C22.5052 13.7552 22.3906 12.8646 22.3906 11.9375C22.3906 11.0312 22.5 10.1458 22.7188 9.28125C22.9375 8.40625 23.25 7.58333 23.6562 6.8125C24.0729 6.04167 24.5729 5.33333 25.1562 4.6875C25.7396 4.04167 26.3906 3.48438 27.1094 3.01562C27.8385 2.54688 28.625 2.18229 29.4688 1.92188C30.3125 1.66146 31.2031 1.53125 32.1406 1.53125C33.651 1.53125 35.026 1.76562 36.2656 2.23438C37.5156 2.70312 38.5781 3.375 39.4531 4.25C40.3385 5.11458 41.0208 6.16667 41.5 7.40625C41.9896 8.63542 42.2344 10.0104 42.2344 11.5312ZM35.2969 11.9375C35.2969 11.4896 35.2292 11.0573 35.0938 10.6406C34.9688 10.2135 34.7812 9.83854 34.5312 9.51562C34.2812 9.18229 33.9688 8.91667 33.5938 8.71875C33.2292 8.51042 32.8073 8.40625 32.3281 8.40625C31.8385 8.40625 31.401 8.49479 31.0156 8.67188C30.6302 8.84896 30.2969 9.09375 30.0156 9.40625C29.7448 9.70833 29.5365 10.0677 29.3906 10.4844C29.2448 10.8906 29.1719 11.3229 29.1719 11.7812C29.1719 12.2188 29.2344 12.6562 29.3594 13.0938C29.4844 13.5312 29.6719 13.9271 29.9219 14.2812C30.1719 14.6354 30.4792 14.9219 30.8438 15.1406C31.2188 15.3594 31.651 15.4688 32.1406 15.4688C32.6302 15.4688 33.0677 15.375 33.4531 15.1875C33.849 14.9896 34.1823 14.7292 34.4531 14.4062C34.724 14.0729 34.9323 13.6927 35.0781 13.2656C35.224 12.8385 35.2969 12.3958 35.2969 11.9375ZM61.6406 8.4375C61.6406 9.25 61.5677 9.98958 61.4219 10.6562C61.2865 11.3125 61.0677 11.9167 60.7656 12.4688C60.4635 13.0208 60.0729 13.5312 59.5938 14C59.1146 14.4688 58.5365 14.9167 57.8594 15.3438L61.5781 21.9688L54.5469 23.3438L52.1406 16.6875L50.2031 16.75L49.9219 23.25H43.2031C43.2552 20.875 43.3021 18.5104 43.3438 16.1562C43.3958 13.8021 43.4531 11.4375 43.5156 9.0625C43.5365 7.86458 43.5573 6.67708 43.5781 5.5C43.599 4.32292 43.6406 3.13542 43.7031 1.9375C44.4323 1.66667 45.151 1.44271 45.8594 1.26562C46.5677 1.08854 47.276 0.953125 47.9844 0.859375C48.7031 0.755208 49.4271 0.6875 50.1562 0.65625C50.8958 0.614583 51.651 0.59375 52.4219 0.59375C53.6094 0.59375 54.7552 0.760417 55.8594 1.09375C56.974 1.41667 57.9583 1.90625 58.8125 2.5625C59.6667 3.21875 60.349 4.03646 60.8594 5.01562C61.3802 5.99479 61.6406 7.13542 61.6406 8.4375ZM54.6406 8.9375C54.6406 8.5 54.5781 8.09896 54.4531 7.73438C54.3385 7.36979 54.1615 7.05729 53.9219 6.79688C53.6927 6.52604 53.401 6.31771 53.0469 6.17188C52.7031 6.01562 52.2969 5.9375 51.8281 5.9375C51.6198 5.9375 51.4167 5.95312 51.2188 5.98438C51.0208 6.00521 50.8281 6.04167 50.6406 6.09375L50.3906 11.9062H50.7656C51.2135 11.9062 51.6667 11.849 52.125 11.7344C52.5938 11.6198 53.0104 11.4427 53.375 11.2031C53.75 10.9635 54.0521 10.6562 54.2812 10.2812C54.5208 9.90625 54.6406 9.45833 54.6406 8.9375ZM82.4375 22.1562L74.6875 23.1562L73.75 19.625H70.1875L69.4062 23.1562L61.4375 22.375L67.6562 1.5625L76.3438 1.125L82.4375 22.1562ZM73.1875 14.8438L72 9.40625L70.8438 14.8438H73.1875ZM96.4688 15.2188L95.8125 22.1562L82.6562 23.1875L83.1562 0.875H91.2812L90.125 15.2188H96.4688ZM241.5 0.96875C241.438 1.94792 241.38 2.91667 241.328 3.875C241.276 4.83333 241.208 5.80208 241.125 6.78125L234.5 7.125L234.344 9.09375H239L238.656 13.9375L233.969 14.0938L233.812 16.375H237.688H240.438C240.375 17.5208 240.307 18.6615 240.234 19.7969C240.172 20.9219 240.115 22.0521 240.062 23.1875L226.594 23.5L227.094 0.96875H241.5ZM257.875 15.5C257.875 16.9271 257.625 18.1615 257.125 19.2031C256.635 20.2344 255.958 21.0885 255.094 21.7656C254.24 22.4323 253.234 22.9271 252.078 23.25C250.932 23.5625 249.698 23.7188 248.375 23.7188C247.865 23.7188 247.302 23.651 246.688 23.5156C246.083 23.3802 245.469 23.2135 244.844 23.0156C244.219 22.8073 243.615 22.5885 243.031 22.3594C242.458 22.1198 241.948 21.8958 241.5 21.6875L242.188 15.5625C243.073 16.0938 244.052 16.5 245.125 16.7812C246.208 17.0521 247.271 17.1875 248.312 17.1875C248.51 17.1875 248.75 17.1823 249.031 17.1719C249.312 17.151 249.578 17.1042 249.828 17.0312C250.089 16.9479 250.307 16.8281 250.484 16.6719C250.661 16.5156 250.75 16.2917 250.75 16C250.75 15.8021 250.688 15.6354 250.562 15.5C250.438 15.3542 250.276 15.2396 250.078 15.1562C249.88 15.0625 249.656 14.9948 249.406 14.9531C249.156 14.901 248.911 14.8646 248.672 14.8438C248.432 14.8229 248.208 14.8125 248 14.8125C247.792 14.8125 247.625 14.8125 247.5 14.8125C246.604 14.8125 245.786 14.6719 245.047 14.3906C244.318 14.1094 243.688 13.7135 243.156 13.2031C242.635 12.6823 242.229 12.0573 241.938 11.3281C241.646 10.5885 241.5 9.77083 241.5 8.875C241.5 7.64583 241.745 6.54688 242.234 5.57812C242.734 4.59896 243.396 3.77083 244.219 3.09375C245.052 2.40625 246.005 1.88021 247.078 1.51562C248.151 1.15104 249.26 0.96875 250.406 0.96875C250.917 0.96875 251.443 0.989583 251.984 1.03125C252.526 1.0625 253.062 1.125 253.594 1.21875C254.135 1.3125 254.661 1.43229 255.172 1.57812C255.682 1.72396 256.167 1.90625 256.625 2.125L256.031 8.46875C255.323 8.22917 254.578 8.03125 253.797 7.875C253.026 7.70833 252.271 7.625 251.531 7.625C251.396 7.625 251.219 7.63021 251 7.64062C250.792 7.64062 250.568 7.65625 250.328 7.6875C250.099 7.70833 249.865 7.74479 249.625 7.79688C249.385 7.84896 249.172 7.92188 248.984 8.01562C248.797 8.09896 248.646 8.21354 248.531 8.35938C248.417 8.50521 248.365 8.67708 248.375 8.875C248.385 9.10417 248.469 9.28125 248.625 9.40625C248.792 9.53125 249 9.625 249.25 9.6875C249.51 9.73958 249.792 9.76562 250.094 9.76562C250.406 9.76562 250.714 9.76042 251.016 9.75C251.318 9.72917 251.599 9.71354 251.859 9.70312C252.12 9.68229 252.333 9.67708 252.5 9.6875C253.333 9.73958 254.083 9.91667 254.75 10.2188C255.417 10.5208 255.979 10.9219 256.438 11.4219C256.906 11.9219 257.26 12.5208 257.5 13.2188C257.75 13.9062 257.875 14.6667 257.875 15.5ZM275.062 1.46875L274.906 8.09375L270.25 8.28125L269.688 22.7812L263.094 23.125L262.5 8.625L257.844 8.875L258.031 1.5L275.062 1.46875ZM293.625 22.1562L285.875 23.1562L284.938 19.625H281.375L280.594 23.1562L272.625 22.375L278.844 1.5625L287.531 1.125L293.625 22.1562ZM284.375 14.8438L283.188 9.40625L282.031 14.8438H284.375ZM308.562 1.46875L308.406 8.09375L303.75 8.28125L303.188 22.7812L296.594 23.125L296 8.625L291.344 8.875L291.531 1.5L308.562 1.46875ZM326.578 10.875C326.578 11.7812 326.516 12.6875 326.391 13.5938C324.609 13.7083 322.839 13.8958 321.078 14.1562C319.318 14.4062 317.557 14.6562 315.797 14.9062C316.068 15.6562 316.49 16.2552 317.062 16.7031C317.646 17.151 318.339 17.375 319.141 17.375C319.557 17.375 320.01 17.2969 320.5 17.1406C321 16.9844 321.495 16.7917 321.984 16.5625C322.474 16.3229 322.943 16.0677 323.391 15.7969C323.839 15.526 324.224 15.2812 324.547 15.0625L323.797 22.1562C323.391 22.4688 322.948 22.7344 322.469 22.9531C322 23.1719 321.51 23.349 321 23.4844C320.49 23.6198 319.974 23.7188 319.453 23.7812C318.932 23.8438 318.422 23.875 317.922 23.875C316.891 23.875 315.948 23.7344 315.094 23.4531C314.24 23.1719 313.464 22.7812 312.766 22.2812C312.078 21.7708 311.474 21.1719 310.953 20.4844C310.432 19.7969 310 19.0469 309.656 18.2344C309.312 17.4219 309.052 16.5625 308.875 15.6562C308.698 14.75 308.609 13.8333 308.609 12.9062C308.609 11.9375 308.698 10.9688 308.875 10C309.052 9.03125 309.318 8.09896 309.672 7.20312C310.036 6.30729 310.49 5.47917 311.031 4.71875C311.583 3.94792 312.224 3.27604 312.953 2.70312C313.682 2.13021 314.505 1.68229 315.422 1.35938C316.349 1.03646 317.37 0.875 318.484 0.875C319.411 0.875 320.255 1.00521 321.016 1.26562C321.786 1.51562 322.469 1.86979 323.062 2.32812C323.667 2.77604 324.188 3.3125 324.625 3.9375C325.073 4.5625 325.438 5.25 325.719 6C326.01 6.73958 326.224 7.52604 326.359 8.35938C326.505 9.18229 326.578 10.0208 326.578 10.875ZM320.328 10.0625C320.328 9.77083 320.297 9.47396 320.234 9.17188C320.172 8.85938 320.068 8.57812 319.922 8.32812C319.786 8.07812 319.604 7.875 319.375 7.71875C319.146 7.55208 318.859 7.46875 318.516 7.46875C318.099 7.46875 317.729 7.58333 317.406 7.8125C317.094 8.03125 316.823 8.3125 316.594 8.65625C316.365 8.98958 316.177 9.35417 316.031 9.75C315.885 10.1458 315.776 10.5104 315.703 10.8438L320.328 10.4062V10.0625Z" fill="#545454"/>
<path d="M122.312 20.3125C121.823 20.9271 121.219 21.4635 120.5 21.9219C119.781 22.3802 119.01 22.7604 118.188 23.0625C117.365 23.3646 116.521 23.5885 115.656 23.7344C114.792 23.8906 113.969 23.9688 113.188 23.9688C111.677 23.9688 110.286 23.6979 109.016 23.1562C107.745 22.6146 106.646 21.8698 105.719 20.9219C104.802 19.9635 104.083 18.8385 103.562 17.5469C103.042 16.2552 102.781 14.8646 102.781 13.375C102.781 12.2396 102.911 11.1302 103.172 10.0469C103.432 8.95312 103.802 7.92708 104.281 6.96875C104.771 6 105.365 5.11458 106.062 4.3125C106.76 3.5 107.552 2.80208 108.438 2.21875C109.323 1.63542 110.292 1.18229 111.344 0.859375C112.396 0.536458 113.521 0.375 114.719 0.375C115.167 0.375 115.646 0.395833 116.156 0.4375C116.667 0.46875 117.172 0.53125 117.672 0.625C118.182 0.708333 118.677 0.828125 119.156 0.984375C119.635 1.14062 120.073 1.33333 120.469 1.5625L120.031 7.53125C119.448 7.3125 118.844 7.16667 118.219 7.09375C117.604 7.01042 117 6.96875 116.406 6.96875C115.573 6.96875 114.792 7.09896 114.062 7.35938C113.344 7.60938 112.714 7.97396 112.172 8.45312C111.641 8.93229 111.219 9.51562 110.906 10.2031C110.594 10.8906 110.438 11.6667 110.438 12.5312C110.438 13.0729 110.51 13.599 110.656 14.1094C110.802 14.6094 111.021 15.0573 111.312 15.4531C111.615 15.8385 111.984 16.151 112.422 16.3906C112.87 16.6302 113.385 16.75 113.969 16.75C114.365 16.75 114.771 16.6979 115.188 16.5938C115.615 16.4896 115.979 16.3125 116.281 16.0625L116.344 14.8438L112.594 14.7812L112.781 10.0938C114.333 10.0417 115.885 10 117.438 9.96875C118.99 9.92708 120.552 9.875 122.125 9.8125L122.312 20.3125ZM141.828 8.4375C141.828 9.25 141.755 9.98958 141.609 10.6562C141.474 11.3125 141.255 11.9167 140.953 12.4688C140.651 13.0208 140.26 13.5312 139.781 14C139.302 14.4688 138.724 14.9167 138.047 15.3438L141.766 21.9688L134.734 23.3438L132.328 16.6875L130.391 16.75L130.109 23.25H123.391C123.443 20.875 123.49 18.5104 123.531 16.1562C123.583 13.8021 123.641 11.4375 123.703 9.0625C123.724 7.86458 123.745 6.67708 123.766 5.5C123.786 4.32292 123.828 3.13542 123.891 1.9375C124.62 1.66667 125.339 1.44271 126.047 1.26562C126.755 1.08854 127.464 0.953125 128.172 0.859375C128.891 0.755208 129.615 0.6875 130.344 0.65625C131.083 0.614583 131.839 0.59375 132.609 0.59375C133.797 0.59375 134.943 0.760417 136.047 1.09375C137.161 1.41667 138.146 1.90625 139 2.5625C139.854 3.21875 140.536 4.03646 141.047 5.01562C141.568 5.99479 141.828 7.13542 141.828 8.4375ZM134.828 8.9375C134.828 8.5 134.766 8.09896 134.641 7.73438C134.526 7.36979 134.349 7.05729 134.109 6.79688C133.88 6.52604 133.589 6.31771 133.234 6.17188C132.891 6.01562 132.484 5.9375 132.016 5.9375C131.807 5.9375 131.604 5.95312 131.406 5.98438C131.208 6.00521 131.016 6.04167 130.828 6.09375L130.578 11.9062H130.953C131.401 11.9062 131.854 11.849 132.312 11.7344C132.781 11.6198 133.198 11.4427 133.562 11.2031C133.938 10.9635 134.24 10.6562 134.469 10.2812C134.708 9.90625 134.828 9.45833 134.828 8.9375ZM162.234 11.5312C162.234 12.4792 162.125 13.3958 161.906 14.2812C161.688 15.1562 161.37 15.9792 160.953 16.75C160.547 17.5208 160.047 18.2292 159.453 18.875C158.87 19.5104 158.208 20.0573 157.469 20.5156C156.74 20.974 155.943 21.3333 155.078 21.5938C154.214 21.8438 153.297 21.9688 152.328 21.9688C151.391 21.9688 150.495 21.849 149.641 21.6094C148.797 21.3698 148.005 21.0365 147.266 20.6094C146.526 20.1719 145.854 19.651 145.25 19.0469C144.656 18.4323 144.146 17.7552 143.719 17.0156C143.302 16.2656 142.974 15.4635 142.734 14.6094C142.505 13.7552 142.391 12.8646 142.391 11.9375C142.391 11.0312 142.5 10.1458 142.719 9.28125C142.938 8.40625 143.25 7.58333 143.656 6.8125C144.073 6.04167 144.573 5.33333 145.156 4.6875C145.74 4.04167 146.391 3.48438 147.109 3.01562C147.839 2.54688 148.625 2.18229 149.469 1.92188C150.312 1.66146 151.203 1.53125 152.141 1.53125C153.651 1.53125 155.026 1.76562 156.266 2.23438C157.516 2.70312 158.578 3.375 159.453 4.25C160.339 5.11458 161.021 6.16667 161.5 7.40625C161.99 8.63542 162.234 10.0104 162.234 11.5312ZM155.297 11.9375C155.297 11.4896 155.229 11.0573 155.094 10.6406C154.969 10.2135 154.781 9.83854 154.531 9.51562C154.281 9.18229 153.969 8.91667 153.594 8.71875C153.229 8.51042 152.807 8.40625 152.328 8.40625C151.839 8.40625 151.401 8.49479 151.016 8.67188C150.63 8.84896 150.297 9.09375 150.016 9.40625C149.745 9.70833 149.536 10.0677 149.391 10.4844C149.245 10.8906 149.172 11.3229 149.172 11.7812C149.172 12.2188 149.234 12.6562 149.359 13.0938C149.484 13.5312 149.672 13.9271 149.922 14.2812C150.172 14.6354 150.479 14.9219 150.844 15.1406C151.219 15.3594 151.651 15.4688 152.141 15.4688C152.63 15.4688 153.068 15.375 153.453 15.1875C153.849 14.9896 154.182 14.7292 154.453 14.4062C154.724 14.0729 154.932 13.6927 155.078 13.2656C155.224 12.8385 155.297 12.3958 155.297 11.9375ZM182.641 11.5312C182.641 12.4792 182.531 13.3958 182.312 14.2812C182.094 15.1562 181.776 15.9792 181.359 16.75C180.953 17.5208 180.453 18.2292 179.859 18.875C179.276 19.5104 178.615 20.0573 177.875 20.5156C177.146 20.974 176.349 21.3333 175.484 21.5938C174.62 21.8438 173.703 21.9688 172.734 21.9688C171.797 21.9688 170.901 21.849 170.047 21.6094C169.203 21.3698 168.411 21.0365 167.672 20.6094C166.932 20.1719 166.26 19.651 165.656 19.0469C165.062 18.4323 164.552 17.7552 164.125 17.0156C163.708 16.2656 163.38 15.4635 163.141 14.6094C162.911 13.7552 162.797 12.8646 162.797 11.9375C162.797 11.0312 162.906 10.1458 163.125 9.28125C163.344 8.40625 163.656 7.58333 164.062 6.8125C164.479 6.04167 164.979 5.33333 165.562 4.6875C166.146 4.04167 166.797 3.48438 167.516 3.01562C168.245 2.54688 169.031 2.18229 169.875 1.92188C170.719 1.66146 171.609 1.53125 172.547 1.53125C174.057 1.53125 175.432 1.76562 176.672 2.23438C177.922 2.70312 178.984 3.375 179.859 4.25C180.745 5.11458 181.427 6.16667 181.906 7.40625C182.396 8.63542 182.641 10.0104 182.641 11.5312ZM175.703 11.9375C175.703 11.4896 175.635 11.0573 175.5 10.6406C175.375 10.2135 175.188 9.83854 174.938 9.51562C174.688 9.18229 174.375 8.91667 174 8.71875C173.635 8.51042 173.214 8.40625 172.734 8.40625C172.245 8.40625 171.807 8.49479 171.422 8.67188C171.036 8.84896 170.703 9.09375 170.422 9.40625C170.151 9.70833 169.943 10.0677 169.797 10.4844C169.651 10.8906 169.578 11.3229 169.578 11.7812C169.578 12.2188 169.641 12.6562 169.766 13.0938C169.891 13.5312 170.078 13.9271 170.328 14.2812C170.578 14.6354 170.885 14.9219 171.25 15.1406C171.625 15.3594 172.057 15.4688 172.547 15.4688C173.036 15.4688 173.474 15.375 173.859 15.1875C174.255 14.9896 174.589 14.7292 174.859 14.4062C175.13 14.0729 175.339 13.6927 175.484 13.2656C175.63 12.8385 175.703 12.3958 175.703 11.9375ZM202.312 1.59375L196.594 22.7188L188.844 23.1562L181.812 2.75L189.219 2.0625L192.219 13.9375L195.125 1.125L202.312 1.59375ZM219.422 10.875C219.422 11.7812 219.359 12.6875 219.234 13.5938C217.453 13.7083 215.682 13.8958 213.922 14.1562C212.161 14.4062 210.401 14.6562 208.641 14.9062C208.911 15.6562 209.333 16.2552 209.906 16.7031C210.49 17.151 211.182 17.375 211.984 17.375C212.401 17.375 212.854 17.2969 213.344 17.1406C213.844 16.9844 214.339 16.7917 214.828 16.5625C215.318 16.3229 215.786 16.0677 216.234 15.7969C216.682 15.526 217.068 15.2812 217.391 15.0625L216.641 22.1562C216.234 22.4688 215.792 22.7344 215.312 22.9531C214.844 23.1719 214.354 23.349 213.844 23.4844C213.333 23.6198 212.818 23.7188 212.297 23.7812C211.776 23.8438 211.266 23.875 210.766 23.875C209.734 23.875 208.792 23.7344 207.938 23.4531C207.083 23.1719 206.307 22.7812 205.609 22.2812C204.922 21.7708 204.318 21.1719 203.797 20.4844C203.276 19.7969 202.844 19.0469 202.5 18.2344C202.156 17.4219 201.896 16.5625 201.719 15.6562C201.542 14.75 201.453 13.8333 201.453 12.9062C201.453 11.9375 201.542 10.9688 201.719 10C201.896 9.03125 202.161 8.09896 202.516 7.20312C202.88 6.30729 203.333 5.47917 203.875 4.71875C204.427 3.94792 205.068 3.27604 205.797 2.70312C206.526 2.13021 207.349 1.68229 208.266 1.35938C209.193 1.03646 210.214 0.875 211.328 0.875C212.255 0.875 213.099 1.00521 213.859 1.26562C214.63 1.51562 215.312 1.86979 215.906 2.32812C216.51 2.77604 217.031 3.3125 217.469 3.9375C217.917 4.5625 218.281 5.25 218.562 6C218.854 6.73958 219.068 7.52604 219.203 8.35938C219.349 9.18229 219.422 10.0208 219.422 10.875ZM213.172 10.0625C213.172 9.77083 213.141 9.47396 213.078 9.17188C213.016 8.85938 212.911 8.57812 212.766 8.32812C212.63 8.07812 212.448 7.875 212.219 7.71875C211.99 7.55208 211.703 7.46875 211.359 7.46875C210.943 7.46875 210.573 7.58333 210.25 7.8125C209.938 8.03125 209.667 8.3125 209.438 8.65625C209.208 8.98958 209.021 9.35417 208.875 9.75C208.729 10.1458 208.62 10.5104 208.547 10.8438L213.172 10.4062V10.0625Z" fill="#DB503D"/>
</svg>
