<svg width="232" height="20" viewBox="0 0 232 20" fill="none" xmlns="http://www.w3.org/2000/svg">
<path d="M12.5938 8.875C13.8281 8.875 14.8867 8.92578 15.7695 9.02734C16.6523 9.12891 17.3945 9.28125 17.9961 9.48438C18.6055 9.67969 19.0898 9.92578 19.4492 10.2227C19.8086 10.5195 20.0859 10.8594 20.2812 11.2422C20.4766 11.6172 20.6016 12.0391 20.6562 12.5078C20.7188 12.9766 20.75 13.4844 20.75 14.0312C20.75 14.5781 20.6992 15.0938 20.5977 15.5781C20.5039 16.0547 20.332 16.4922 20.082 16.8906C19.832 17.2891 19.4922 17.6445 19.0625 17.957C18.6328 18.2695 18.0859 18.5352 17.4219 18.7539C16.7578 18.9727 15.957 19.1367 15.0195 19.2461C14.0898 19.3633 13 19.4219 11.75 19.4219H8.75C7.625 19.4219 6.64062 19.3789 5.79688 19.293C4.95312 19.207 4.22656 19.0781 3.61719 18.9062C3.00781 18.7266 2.50391 18.5039 2.10547 18.2383C1.70703 17.9648 1.38672 17.6484 1.14453 17.2891C0.910156 16.9219 0.746094 16.5078 0.652344 16.0469C0.558594 15.5781 0.511719 15.0625 0.511719 14.5H2.76172C2.76172 15.2031 2.86328 15.7539 3.06641 16.1523C3.26953 16.5508 3.60547 16.8516 4.07422 17.0547C4.54297 17.25 5.15625 17.375 5.91406 17.4297C6.67969 17.4766 7.625 17.5 8.75 17.5H11.75C13.0625 17.5 14.1523 17.4375 15.0195 17.3125C15.8867 17.1875 16.5781 16.9883 17.0938 16.7148C17.6094 16.4414 17.9727 16.0859 18.1836 15.6484C18.3945 15.2031 18.5 14.6641 18.5 14.0312C18.5 13.3984 18.4258 12.8711 18.2773 12.4492C18.1367 12.0273 17.8516 11.6914 17.4219 11.4414C17 11.1914 16.4023 11.0156 15.6289 10.9141C14.8555 10.8047 13.8438 10.75 12.5938 10.75H9.5C8.125 10.75 6.94531 10.6992 5.96094 10.5977C4.98438 10.4961 4.16406 10.3516 3.5 10.1641C2.83594 9.96875 2.30469 9.73047 1.90625 9.44922C1.50781 9.16016 1.20312 8.83203 0.992188 8.46484C0.789062 8.09766 0.65625 7.69141 0.59375 7.24609C0.53125 6.79297 0.5 6.30469 0.5 5.78125C0.5 5.23438 0.546875 4.72656 0.640625 4.25781C0.742188 3.78906 0.925781 3.36719 1.19141 2.99219C1.45703 2.60938 1.82031 2.26953 2.28125 1.97266C2.74219 1.67578 3.33203 1.42969 4.05078 1.23438C4.77734 1.03125 5.64844 0.878906 6.66406 0.777344C7.67969 0.675781 8.875 0.625 10.25 0.625H12.5C13.625 0.625 14.6094 0.667969 15.4531 0.753906C16.2969 0.832031 17.0234 0.960938 17.6328 1.14062C18.2422 1.3125 18.7461 1.53125 19.1445 1.79688C19.5508 2.05469 19.8711 2.36719 20.1055 2.73438C20.3477 3.09375 20.5156 3.50391 20.6094 3.96484C20.7031 4.42578 20.75 4.9375 20.75 5.5H18.5C18.5 4.79688 18.3984 4.24609 18.1953 3.84766C17.9922 3.44922 17.6562 3.15234 17.1875 2.95703C16.7188 2.75391 16.1016 2.62891 15.3359 2.58203C14.5703 2.52734 13.625 2.5 12.5 2.5H10.25C8.75 2.5 7.51562 2.55469 6.54688 2.66406C5.57812 2.76562 4.8125 2.94141 4.25 3.19141C3.6875 3.44141 3.29688 3.77734 3.07812 4.19922C2.85938 4.62109 2.75 5.14844 2.75 5.78125C2.75 6.17188 2.77734 6.51953 2.83203 6.82422C2.88672 7.12891 2.99609 7.39844 3.16016 7.63281C3.33203 7.85938 3.57031 8.05078 3.875 8.20703C4.17969 8.36328 4.58203 8.49219 5.08203 8.59375C5.58203 8.69531 6.19141 8.76953 6.91016 8.81641C7.63672 8.85547 8.5 8.875 9.5 8.875H12.5938ZM37.25 19V11.3828C37.25 10.5703 37.1875 9.88672 37.0625 9.33203C36.9375 8.76953 36.6875 8.31641 36.3125 7.97266C35.9375 7.62891 35.4062 7.38281 34.7188 7.23438C34.0312 7.07812 33.125 7 32 7C30.7812 7 29.7812 7.08984 29 7.26953C28.2266 7.44141 27.6172 7.6875 27.1719 8.00781C26.7266 8.32031 26.418 8.69922 26.2461 9.14453C26.082 9.58984 26 10.0859 26 10.6328V19H23.75V1H26V7.63281C26.1562 7.26562 26.3789 6.94922 26.668 6.68359C26.957 6.41797 27.2891 6.19141 27.6641 6.00391C28.0469 5.81641 28.457 5.66797 28.8945 5.55859C29.332 5.44141 29.7734 5.35156 30.2188 5.28906C30.6719 5.22656 31.1133 5.18359 31.543 5.16016C31.9805 5.13672 32.3828 5.125 32.75 5.125C33.75 5.125 34.6094 5.1875 35.3281 5.3125C36.0547 5.42969 36.668 5.60938 37.168 5.85156C37.6758 6.08594 38.082 6.37891 38.3867 6.73047C38.6914 7.08203 38.9258 7.49219 39.0898 7.96094C39.2617 8.42188 39.375 8.94141 39.4297 9.51953C39.4844 10.0898 39.5117 10.7109 39.5117 11.3828L39.5 19H37.25ZM50.3984 19.2578C48.8984 19.2578 47.625 19.1562 46.5781 18.9531C45.5312 18.7422 44.6797 18.3828 44.0234 17.875C43.3672 17.3672 42.8906 16.6875 42.5938 15.8359C42.2969 14.9844 42.1484 13.9141 42.1484 12.625C42.1484 11.1484 42.2969 9.92969 42.5938 8.96875C42.8906 8 43.3672 7.23047 44.0234 6.66016C44.6797 6.08984 45.5312 5.69141 46.5781 5.46484C47.625 5.23828 48.8984 5.125 50.3984 5.125C51.4688 5.125 52.3945 5.20312 53.1758 5.35938C53.9648 5.51562 54.6367 5.74219 55.1914 6.03906C55.7539 6.33594 56.207 6.69531 56.5508 7.11719C56.9023 7.53906 57.1758 7.98438 57.3711 8.45312C57.5742 8.91406 57.7109 9.45703 57.7812 10.082C57.8594 10.707 57.8984 11.3672 57.8984 12.0625L57.7109 12.8125H44.3984C44.3984 13.8438 44.5 14.6914 44.7031 15.3555C44.9062 16.0117 45.2422 16.4922 45.7109 16.7969C46.1797 17.1016 46.7969 17.2969 47.5625 17.3828C48.3281 17.4609 49.2734 17.5 50.3984 17.5C51.4297 17.5 52.2812 17.4727 52.9531 17.418C53.6328 17.3555 54.1719 17.2422 54.5703 17.0781C54.9688 16.9141 55.2461 16.6875 55.4023 16.3984C55.5664 16.1016 55.6484 15.7188 55.6484 15.25H57.8984C57.8984 15.9766 57.7695 16.5977 57.5117 17.1133C57.2617 17.6211 56.8438 18.0352 56.2578 18.3555C55.6719 18.668 54.8984 18.8945 53.9375 19.0352C52.9844 19.1836 51.8047 19.2578 50.3984 19.2578ZM50.3984 7C49.6484 7 48.9766 7.01562 48.3828 7.04688C47.7969 7.07812 47.2812 7.14844 46.8359 7.25781C46.3984 7.35938 46.0234 7.51172 45.7109 7.71484C45.3984 7.91016 45.1445 8.14453 44.9492 8.41797C44.7617 8.68359 44.6211 9.0625 44.5273 9.55469C44.4414 10.0391 44.3984 10.625 44.3984 11.3125H55.6484C55.6484 10.3984 55.5508 9.68359 55.3555 9.16797C55.1602 8.64453 54.8516 8.21484 54.4297 7.87891C54.0078 7.54297 53.4648 7.3125 52.8008 7.1875C52.1367 7.0625 51.3359 7 50.3984 7ZM60.8984 1H63.1484V10.8438H63.8984L72.1484 5.5H75.5234L65.9609 11.7812L75.8984 19H72.5234L63.8984 12.5312H63.1484V19H60.8984V1ZM78.1484 5.5H80.3984V19H78.1484V5.5ZM80.3984 3.25H78.1484V1H80.3984V3.25ZM97.6484 19V11.5C97.6484 10.6641 97.5859 9.96094 97.4609 9.39062C97.3359 8.8125 97.0859 8.34766 96.7109 7.99609C96.3359 7.64453 95.8047 7.39062 95.1172 7.23438C94.4297 7.07812 93.5234 7 92.3984 7C91.1797 7 90.1797 7.08984 89.3984 7.26953C88.625 7.44922 88.0156 7.70312 87.5703 8.03125C87.125 8.35938 86.8164 8.75391 86.6445 9.21484C86.4805 9.67578 86.3984 10.1875 86.3984 10.75V19H84.1484V5.5H86.3984V7.75C86.5625 7.36719 86.7969 7.03906 87.1016 6.76562C87.4062 6.48438 87.75 6.24609 88.1328 6.05078C88.5156 5.85547 88.9297 5.69922 89.375 5.58203C89.8203 5.45703 90.2656 5.36328 90.7109 5.30078C91.1562 5.23047 91.5859 5.18359 92 5.16016C92.4219 5.13672 92.8047 5.125 93.1484 5.125C94.1484 5.125 95.0078 5.1875 95.7266 5.3125C96.4531 5.4375 97.0664 5.62109 97.5664 5.86328C98.0742 6.10547 98.4805 6.40625 98.7852 6.76562C99.0898 7.125 99.3242 7.54297 99.4883 8.01953C99.6602 8.48828 99.7734 9.01562 99.8281 9.60156C99.8828 10.1797 99.9102 10.8125 99.9102 11.5L99.8984 19H97.6484ZM116.363 17.1484C116.34 17.2422 116.164 17.4766 115.836 17.8516C115.602 18.1328 115.289 18.3828 114.898 18.6016C114.508 18.8125 113.984 18.9766 113.328 19.0938C112.68 19.2188 111.824 19.2812 110.762 19.2812C109.348 19.2812 108.141 19.207 107.141 19.0586C106.141 18.918 105.324 18.6992 104.691 18.4023C104.059 18.0977 103.594 17.7109 103.297 17.2422C103.008 16.7734 102.863 16.2148 102.863 15.5664C102.863 14.8867 102.941 14.3125 103.098 13.8438C103.262 13.3672 103.496 12.9688 103.801 12.6484C104.113 12.3281 104.488 12.0781 104.926 11.8984C105.363 11.7188 105.859 11.582 106.414 11.4883C106.977 11.3945 107.59 11.3359 108.254 11.3125C108.918 11.2891 109.625 11.2773 110.375 11.2773C111.445 11.2773 112.34 11.3242 113.059 11.418C113.777 11.5039 114.363 11.6172 114.816 11.7578C115.277 11.8906 115.625 12.0352 115.859 12.1914C116.094 12.3477 116.262 12.4922 116.363 12.625C116.363 11.75 116.324 11.0039 116.246 10.3867C116.176 9.76953 116.055 9.25391 115.883 8.83984C115.719 8.42578 115.504 8.09766 115.238 7.85547C114.973 7.60547 114.645 7.41797 114.254 7.29297C113.871 7.16797 113.422 7.08984 112.906 7.05859C112.391 7.01953 111.801 7 111.137 7C110.105 7 109.25 7.02734 108.57 7.08203C107.891 7.12891 107.352 7.22656 106.953 7.375C106.555 7.52344 106.273 7.73047 106.109 7.99609C105.945 8.25391 105.863 8.59375 105.863 9.01562H103.613C103.613 8.30469 103.738 7.70312 103.988 7.21094C104.246 6.71875 104.668 6.32031 105.254 6.01562C105.848 5.70312 106.625 5.47656 107.586 5.33594C108.547 5.19531 109.73 5.125 111.137 5.125C112.512 5.125 113.676 5.23828 114.629 5.46484C115.582 5.69141 116.352 6.08984 116.938 6.66016C117.531 7.23047 117.957 8 118.215 8.96875C118.48 9.92969 118.613 11.1484 118.613 12.625V19H116.363V17.1484ZM111.137 17.5C112.129 17.5 112.957 17.4531 113.621 17.3594C114.293 17.2656 114.832 17.125 115.238 16.9375C115.645 16.75 115.934 16.5156 116.105 16.2344C116.277 15.9531 116.363 15.625 116.363 15.25C116.363 14.875 116.262 14.5586 116.059 14.3008C115.863 14.0352 115.531 13.8203 115.062 13.6562C114.602 13.4922 113.988 13.375 113.223 13.3047C112.457 13.2266 111.512 13.1875 110.387 13.1875C109.262 13.1875 108.352 13.207 107.656 13.2461C106.969 13.2852 106.438 13.375 106.062 13.5156C105.688 13.6562 105.434 13.8633 105.301 14.1367C105.176 14.4102 105.113 14.7812 105.113 15.25C105.113 15.7188 105.18 16.1016 105.312 16.3984C105.453 16.6875 105.734 16.9141 106.156 17.0781C106.578 17.2422 107.184 17.3555 107.973 17.418C108.77 17.4727 109.824 17.5 111.137 17.5ZM127.625 19V1H145.625V2.875H129.875V8.875H144.875V10.75H129.875V17.125H145.625V19H127.625ZM155.75 12.8477C154.688 12.8477 153.754 12.832 152.949 12.8008C152.145 12.7695 151.449 12.707 150.863 12.6133C150.285 12.5117 149.801 12.3711 149.41 12.1914C149.027 12.0117 148.723 11.7734 148.496 11.4766C148.27 11.1719 148.109 10.8008 148.016 10.3633C147.922 9.91797 147.875 9.4375 147.875 8.92188C147.875 8.21875 148.023 7.62891 148.32 7.15234C148.617 6.66797 149.094 6.27734 149.75 5.98047C150.406 5.67578 151.258 5.45703 152.305 5.32422C153.352 5.19141 154.625 5.125 156.125 5.125C157.609 5.125 158.832 5.20312 159.793 5.35938C160.762 5.51562 161.527 5.75781 162.09 6.08594C162.66 6.40625 163.059 6.8125 163.285 7.30469C163.512 7.79688 163.625 8.38281 163.625 9.0625H161.375C161.375 8.64062 161.293 8.29688 161.129 8.03125C160.973 7.76562 160.695 7.55859 160.297 7.41016C159.898 7.25391 159.359 7.14844 158.68 7.09375C158.008 7.03125 157.156 7 156.125 7C155 7 154.055 7.01562 153.289 7.04688C152.523 7.07812 151.906 7.15625 151.438 7.28125C150.969 7.40625 150.633 7.59766 150.43 7.85547C150.227 8.11328 150.125 8.46875 150.125 8.92188C150.125 9.1875 150.141 9.44922 150.172 9.70703C150.211 9.95703 150.293 10.1641 150.418 10.3281C150.543 10.4922 150.727 10.6172 150.969 10.7031C151.211 10.7891 151.539 10.8555 151.953 10.9023C152.375 10.9414 152.895 10.9648 153.512 10.9727C154.129 10.9727 154.875 10.9727 155.75 10.9727C156.812 10.9727 157.742 10.9961 158.539 11.043C159.344 11.0898 160.039 11.1719 160.625 11.2891C161.211 11.4062 161.695 11.5859 162.078 11.8281C162.461 12.0703 162.766 12.3359 162.992 12.625C163.227 12.9062 163.391 13.2422 163.484 13.6328C163.578 14.0156 163.625 14.4609 163.625 14.9688C163.625 15.4766 163.578 15.9336 163.484 16.3398C163.391 16.7383 163.227 17.0938 162.992 17.4062C162.758 17.7109 162.438 17.9766 162.031 18.2031C161.633 18.4219 161.129 18.6016 160.52 18.7422C159.91 18.875 159.18 18.9727 158.328 19.0352C157.484 19.1055 156.5 19.1406 155.375 19.1406C153.969 19.1406 152.785 19.0703 151.824 18.9297C150.871 18.7891 150.102 18.5664 149.516 18.2617C148.93 17.9492 148.508 17.5469 148.25 17.0547C148 16.5625 147.875 15.9609 147.875 15.25H150.125C150.125 15.7188 150.203 16.1016 150.359 16.3984C150.523 16.6875 150.805 16.9141 151.203 17.0781C151.602 17.2422 152.137 17.3555 152.809 17.418C153.488 17.4727 154.344 17.5 155.375 17.5C156.312 17.5 157.109 17.4805 157.766 17.4414C158.43 17.3945 158.984 17.3242 159.43 17.2305C159.875 17.1367 160.227 17.0234 160.484 16.8906C160.742 16.7578 160.938 16.5977 161.07 16.4102C161.203 16.2227 161.285 16.0156 161.316 15.7891C161.355 15.5547 161.375 15.2969 161.375 15.0156C161.375 14.7578 161.355 14.5312 161.316 14.3359C161.285 14.1328 161.207 13.9336 161.082 13.7383C160.957 13.5352 160.773 13.3828 160.531 13.2812C160.289 13.1797 159.957 13.0977 159.535 13.0352C159.121 12.9648 158.605 12.918 157.988 12.8945C157.371 12.8633 156.625 12.8477 155.75 12.8477ZM179.75 13C179.75 14.1484 179.656 15.1094 179.469 15.8828C179.281 16.6484 178.965 17.2617 178.52 17.7227C178.082 18.1836 177.504 18.5117 176.785 18.707C176.066 18.9023 175.18 19 174.125 19C173.102 19 172.242 18.9219 171.547 18.7656C170.852 18.6094 170.289 18.3438 169.859 17.9688C169.43 17.5938 169.121 17.0938 168.934 16.4688C168.746 15.8438 168.652 15.0625 168.652 14.125V7.35156H165.875V5.5H168.652V1.80859H170.902V5.5H179.375V7.35156H170.902V14.125C170.902 14.875 170.957 15.4531 171.066 15.8594C171.184 16.2656 171.367 16.5625 171.617 16.75C171.867 16.9375 172.195 17.0469 172.602 17.0781C173.016 17.1094 173.52 17.125 174.113 17.125C174.582 17.125 175 17.1172 175.367 17.1016C175.742 17.0859 176.066 17.0391 176.34 16.9609C176.621 16.875 176.859 16.75 177.055 16.5859C177.25 16.4141 177.406 16.1758 177.523 15.8711C177.648 15.5664 177.738 15.1836 177.793 14.7227C177.848 14.2539 177.875 13.6797 177.875 13H179.75ZM195.441 17.1484C195.418 17.2422 195.242 17.4766 194.914 17.8516C194.68 18.1328 194.367 18.3828 193.977 18.6016C193.586 18.8125 193.062 18.9766 192.406 19.0938C191.758 19.2188 190.902 19.2812 189.84 19.2812C188.426 19.2812 187.219 19.207 186.219 19.0586C185.219 18.918 184.402 18.6992 183.77 18.4023C183.137 18.0977 182.672 17.7109 182.375 17.2422C182.086 16.7734 181.941 16.2148 181.941 15.5664C181.941 14.8867 182.02 14.3125 182.176 13.8438C182.34 13.3672 182.574 12.9688 182.879 12.6484C183.191 12.3281 183.566 12.0781 184.004 11.8984C184.441 11.7188 184.938 11.582 185.492 11.4883C186.055 11.3945 186.668 11.3359 187.332 11.3125C187.996 11.2891 188.703 11.2773 189.453 11.2773C190.523 11.2773 191.418 11.3242 192.137 11.418C192.855 11.5039 193.441 11.6172 193.895 11.7578C194.355 11.8906 194.703 12.0352 194.938 12.1914C195.172 12.3477 195.34 12.4922 195.441 12.625C195.441 11.75 195.402 11.0039 195.324 10.3867C195.254 9.76953 195.133 9.25391 194.961 8.83984C194.797 8.42578 194.582 8.09766 194.316 7.85547C194.051 7.60547 193.723 7.41797 193.332 7.29297C192.949 7.16797 192.5 7.08984 191.984 7.05859C191.469 7.01953 190.879 7 190.215 7C189.184 7 188.328 7.02734 187.648 7.08203C186.969 7.12891 186.43 7.22656 186.031 7.375C185.633 7.52344 185.352 7.73047 185.188 7.99609C185.023 8.25391 184.941 8.59375 184.941 9.01562H182.691C182.691 8.30469 182.816 7.70312 183.066 7.21094C183.324 6.71875 183.746 6.32031 184.332 6.01562C184.926 5.70312 185.703 5.47656 186.664 5.33594C187.625 5.19531 188.809 5.125 190.215 5.125C191.59 5.125 192.754 5.23828 193.707 5.46484C194.66 5.69141 195.43 6.08984 196.016 6.66016C196.609 7.23047 197.035 8 197.293 8.96875C197.559 9.92969 197.691 11.1484 197.691 12.625V19H195.441V17.1484ZM190.215 17.5C191.207 17.5 192.035 17.4531 192.699 17.3594C193.371 17.2656 193.91 17.125 194.316 16.9375C194.723 16.75 195.012 16.5156 195.184 16.2344C195.355 15.9531 195.441 15.625 195.441 15.25C195.441 14.875 195.34 14.5586 195.137 14.3008C194.941 14.0352 194.609 13.8203 194.141 13.6562C193.68 13.4922 193.066 13.375 192.301 13.3047C191.535 13.2266 190.59 13.1875 189.465 13.1875C188.34 13.1875 187.43 13.207 186.734 13.2461C186.047 13.2852 185.516 13.375 185.141 13.5156C184.766 13.6562 184.512 13.8633 184.379 14.1367C184.254 14.4102 184.191 14.7812 184.191 15.25C184.191 15.7188 184.258 16.1016 184.391 16.3984C184.531 16.6875 184.812 16.9141 185.234 17.0781C185.656 17.2422 186.262 17.3555 187.051 17.418C187.848 17.4727 188.902 17.5 190.215 17.5ZM213.828 13C213.828 14.1484 213.734 15.1094 213.547 15.8828C213.359 16.6484 213.043 17.2617 212.598 17.7227C212.16 18.1836 211.582 18.5117 210.863 18.707C210.145 18.9023 209.258 19 208.203 19C207.18 19 206.32 18.9219 205.625 18.7656C204.93 18.6094 204.367 18.3438 203.938 17.9688C203.508 17.5938 203.199 17.0938 203.012 16.4688C202.824 15.8438 202.73 15.0625 202.73 14.125V7.35156H199.953V5.5H202.73V1.80859H204.98V5.5H213.453V7.35156H204.98V14.125C204.98 14.875 205.035 15.4531 205.145 15.8594C205.262 16.2656 205.445 16.5625 205.695 16.75C205.945 16.9375 206.273 17.0469 206.68 17.0781C207.094 17.1094 207.598 17.125 208.191 17.125C208.66 17.125 209.078 17.1172 209.445 17.1016C209.82 17.0859 210.145 17.0391 210.418 16.9609C210.699 16.875 210.938 16.75 211.133 16.5859C211.328 16.4141 211.484 16.1758 211.602 15.8711C211.727 15.5664 211.816 15.1836 211.871 14.7227C211.926 14.2539 211.953 13.6797 211.953 13H213.828ZM223.953 19.2578C222.453 19.2578 221.18 19.1562 220.133 18.9531C219.086 18.7422 218.234 18.3828 217.578 17.875C216.922 17.3672 216.445 16.6875 216.148 15.8359C215.852 14.9844 215.703 13.9141 215.703 12.625C215.703 11.1484 215.852 9.92969 216.148 8.96875C216.445 8 216.922 7.23047 217.578 6.66016C218.234 6.08984 219.086 5.69141 220.133 5.46484C221.18 5.23828 222.453 5.125 223.953 5.125C225.023 5.125 225.949 5.20312 226.73 5.35938C227.52 5.51562 228.191 5.74219 228.746 6.03906C229.309 6.33594 229.762 6.69531 230.105 7.11719C230.457 7.53906 230.73 7.98438 230.926 8.45312C231.129 8.91406 231.266 9.45703 231.336 10.082C231.414 10.707 231.453 11.3672 231.453 12.0625L231.266 12.8125H217.953C217.953 13.8438 218.055 14.6914 218.258 15.3555C218.461 16.0117 218.797 16.4922 219.266 16.7969C219.734 17.1016 220.352 17.2969 221.117 17.3828C221.883 17.4609 222.828 17.5 223.953 17.5C224.984 17.5 225.836 17.4727 226.508 17.418C227.188 17.3555 227.727 17.2422 228.125 17.0781C228.523 16.9141 228.801 16.6875 228.957 16.3984C229.121 16.1016 229.203 15.7188 229.203 15.25H231.453C231.453 15.9766 231.324 16.5977 231.066 17.1133C230.816 17.6211 230.398 18.0352 229.812 18.3555C229.227 18.668 228.453 18.8945 227.492 19.0352C226.539 19.1836 225.359 19.2578 223.953 19.2578ZM223.953 7C223.203 7 222.531 7.01562 221.938 7.04688C221.352 7.07812 220.836 7.14844 220.391 7.25781C219.953 7.35938 219.578 7.51172 219.266 7.71484C218.953 7.91016 218.699 8.14453 218.504 8.41797C218.316 8.68359 218.176 9.0625 218.082 9.55469C217.996 10.0391 217.953 10.625 217.953 11.3125H229.203C229.203 10.3984 229.105 9.68359 228.91 9.16797C228.715 8.64453 228.406 8.21484 227.984 7.87891C227.562 7.54297 227.02 7.3125 226.355 7.1875C225.691 7.0625 224.891 7 223.953 7Z" fill="#B4A200"/>
</svg>
