<svg width="33" height="33" viewBox="0 0 33 33" fill="none" xmlns="http://www.w3.org/2000/svg">
<path d="M24.7505 0.675781H7.75049C3.60835 0.675781 0.250488 4.03365 0.250488 8.17578V25.1758C0.250488 29.3179 3.60835 32.6758 7.75049 32.6758H24.7505C28.8926 32.6758 32.2505 29.3179 32.2505 25.1758V8.17578C32.2505 4.03365 28.8926 0.675781 24.7505 0.675781Z" fill="white"/>
<path d="M24.7505 0.675781H7.75049C3.60835 0.675781 0.250488 4.03365 0.250488 8.17578V25.1758C0.250488 29.3179 3.60835 32.6758 7.75049 32.6758H24.7505C28.8926 32.6758 32.2505 29.3179 32.2505 25.1758V8.17578C32.2505 4.03365 28.8926 0.675781 24.7505 0.675781Z" fill="#1D9BF0"/>
<path d="M25.197 12.1022C25.2107 12.3005 25.2107 12.4989 25.2107 12.6992C25.2107 18.7988 20.5672 25.8335 12.0764 25.8335V25.8298C9.56801 25.8334 7.11162 25.115 5.00049 23.7604C5.36524 23.8043 5.73174 23.8262 6.09924 23.827C8.17819 23.8287 10.1973 23.1313 11.8322 21.8472C10.869 21.8289 9.9355 21.5102 9.16229 20.9354C8.38908 20.3607 7.8148 19.5587 7.51974 18.6415C8.21133 18.7749 8.92431 18.7477 9.60374 18.562C7.45024 18.1269 5.90086 16.2348 5.90086 14.0373V13.9788C6.54285 14.3364 7.26134 14.5345 7.99586 14.5565C5.96761 13.2009 5.34236 10.5025 6.56711 8.39278C7.72603 9.8189 9.17198 10.9853 10.811 11.8162C12.4501 12.647 14.2456 13.1238 16.081 13.2155C15.898 12.4278 15.925 11.6059 16.1594 10.8319C16.3937 10.0579 16.8272 9.35905 17.4164 8.80515C19.2756 7.0574 22.1997 7.14703 23.9475 9.00528C24.9812 8.80118 25.9726 8.4222 26.8789 7.88465C26.5342 8.95348 25.8131 9.86074 24.8496 10.4377C25.7647 10.3298 26.6583 10.0849 27.5005 9.71103C26.881 10.6388 26.1009 11.4484 25.197 12.1022Z" fill="white"/>
</svg>
