<svg width="46" height="61" viewBox="0 0 46 61" fill="none" xmlns="http://www.w3.org/2000/svg">
<path d="M33.75 48.5508C32.1 48.5508 30.687 47.9628 29.511 46.7868C28.335 45.6108 27.748 44.1988 27.75 42.5508C27.75 40.9008 28.338 39.4878 29.514 38.3118C30.69 37.1358 32.102 36.5488 33.75 36.5508C35.4 36.5508 36.813 37.1388 37.989 38.3148C39.165 39.4908 39.752 40.9028 39.75 42.5508C39.75 44.2008 39.162 45.6138 37.986 46.7898C36.81 47.9658 35.398 48.5528 33.75 48.5508ZM21.75 60.5508V58.8258C21.75 56.6258 22.85 54.8628 25.05 53.5368C27.25 52.2108 30.15 51.5488 33.75 51.5508C37.35 51.5508 40.25 52.2138 42.45 53.5398C44.65 54.8658 45.75 56.6278 45.75 58.8258V60.5508H21.75ZM15.75 24.5508C17.4 24.5508 18.813 23.9628 19.989 22.7868C21.165 21.6108 21.752 20.1988 21.75 18.5508C21.75 16.9008 21.162 15.4878 19.986 14.3118C18.81 13.1358 17.398 12.5488 15.75 12.5508C14.1 12.5508 12.687 13.1388 11.511 14.3148C10.335 15.4908 9.748 16.9028 9.75 18.5508C9.75 20.2008 10.338 21.6138 11.514 22.7898C12.69 23.9658 14.102 24.5528 15.75 24.5508ZM9.75 42.5508C9.75 44.2008 10.338 45.6138 11.514 46.7898C12.69 47.9658 14.102 48.5528 15.75 48.5508C17.4 48.5508 18.813 47.9628 19.989 46.7868C21.165 45.6108 21.752 44.1988 21.75 42.5508C21.75 40.9008 21.162 39.4878 19.986 38.3118C18.81 37.1358 17.398 36.5488 15.75 36.5508C14.1 36.5508 12.687 37.1388 11.511 38.3148C10.335 39.4908 9.748 40.9028 9.75 42.5508ZM15.75 45.5508C14.9 45.5508 14.187 45.2628 13.611 44.6868C13.035 44.1108 12.748 43.3988 12.75 42.5508C12.75 41.7008 13.038 40.9878 13.614 40.4118C14.19 39.8358 14.902 39.5488 15.75 39.5508C16.6 39.5508 17.313 39.8388 17.889 40.4148C18.465 40.9908 18.752 41.7028 18.75 42.5508C18.75 43.4008 18.462 44.1138 17.886 44.6898C17.31 45.2658 16.598 45.5528 15.75 45.5508ZM0.75 15.5508C0.75 11.3008 2.188 7.73778 5.064 4.86178C7.94 1.98578 11.502 0.548783 15.75 0.550783C20 0.550783 23.563 1.98878 26.439 4.86478C29.315 7.74078 30.752 11.3028 30.75 15.5508V27.5508C30.75 28.4008 30.462 29.1138 29.886 29.6898C29.31 30.2658 28.598 30.5528 27.75 30.5508C26.9 30.5508 26.187 30.2628 25.611 29.6868C25.035 29.1108 24.748 28.3988 24.75 27.5508V15.5508C24.75 13.0008 23.85 10.8628 22.05 9.13678C20.25 7.41078 18.15 6.54878 15.75 6.55078C13.35 6.55078 11.25 7.41378 9.45 9.13978C7.65 10.8658 6.75 13.0028 6.75 15.5508V45.5508C6.75 47.6508 7.425 49.5258 8.775 51.1758C10.125 52.8258 11.775 53.8758 13.725 54.3258C14.425 54.4758 15.013 54.8258 15.489 55.3758C15.965 55.9258 16.202 56.5508 16.2 57.2508C16.2 58.2508 15.825 59.0508 15.075 59.6508C14.325 60.2508 13.45 60.4258 12.45 60.1758C9.05 59.4258 6.25 57.7138 4.05 55.0398C1.85 52.3658 0.75 49.2028 0.75 45.5508V15.5508Z" fill="#323232"/>
</svg>
