<svg width="46" height="48" viewBox="0 0 46 48" fill="none" xmlns="http://www.w3.org/2000/svg">
<path d="M28.1852 4.3291C28.2568 4.23856 28.3456 4.16308 28.4465 4.107C28.5473 4.05092 28.6583 4.01535 28.773 4.00234C28.8877 3.98933 29.0038 3.99913 29.1147 4.03118C29.2255 4.06323 29.329 4.1169 29.419 4.18909L31.309 5.7046L24.3983 14.5001H28.8503L34.0443 7.89209L38.4263 11.4026C38.5181 11.4761 38.5941 11.5674 38.6499 11.671C38.7056 11.7745 38.7399 11.8883 38.7507 12.0054C38.7615 12.1226 38.7485 12.2407 38.7126 12.3527C38.6767 12.4647 38.6186 12.5683 38.5418 12.6573L36.9528 14.5001H41.5272C42.1298 13.5897 42.3701 12.4869 42.2011 11.4083C42.0321 10.3297 41.4659 9.35332 40.6138 8.67085L31.6065 1.45734C31.1565 1.09709 30.6398 0.829293 30.0861 0.669354C29.5323 0.509414 28.9524 0.460481 28.3796 0.525366C27.8069 0.590251 27.2526 0.767675 26.7486 1.04744C26.2447 1.32721 25.801 1.70381 25.443 2.1556L15.6658 14.5001H20.13L28.1852 4.3291ZM31.75 30.2501C31.2859 30.2501 30.8407 30.4345 30.5126 30.7627C30.1844 31.0908 30 31.536 30 32.0001C30 32.4642 30.1844 32.9093 30.5126 33.2375C30.8407 33.5657 31.2859 33.7501 31.75 33.7501H37C37.4641 33.7501 37.9092 33.5657 38.2374 33.2375C38.5656 32.9093 38.75 32.4642 38.75 32.0001C38.75 31.536 38.5656 31.0908 38.2374 30.7627C37.9092 30.4345 37.4641 30.2501 37 30.2501H31.75ZM5.5 9.25009C4.10761 9.25009 2.77226 9.80322 1.78769 10.7878C0.803124 11.7724 0.25 13.1077 0.25 14.5001V39.8751C0.25 41.9637 1.07968 43.9667 2.55653 45.4436C4.03338 46.9204 6.03642 47.7501 8.125 47.7501H37.875C39.9636 47.7501 41.9666 46.9204 43.4435 45.4436C44.9203 43.9667 45.75 41.9637 45.75 39.8751V24.1251C45.75 22.0365 44.9203 20.0335 43.4435 18.5566C41.9666 17.0798 39.9636 16.2501 37.875 16.2501H5.5C5.03587 16.2501 4.59075 16.0657 4.26256 15.7375C3.93438 15.4093 3.75 14.9642 3.75 14.5001C3.75 14.036 3.93438 13.5908 4.26256 13.2627C4.59075 12.9345 5.03587 12.7501 5.5 12.7501H13.515L16.308 9.25009H5.5ZM3.75 39.8751V19.4526C4.29775 19.6451 4.8875 19.7501 5.5 19.7501H37.875C39.0353 19.7501 40.1481 20.211 40.9686 21.0315C41.7891 21.852 42.25 22.9648 42.25 24.1251V39.8751C42.25 41.0354 41.7891 42.1482 40.9686 42.9687C40.1481 43.7892 39.0353 44.2501 37.875 44.2501H8.125C6.96468 44.2501 5.85188 43.7892 5.03141 42.9687C4.21094 42.1482 3.75 41.0354 3.75 39.8751Z" fill="#928FFF"/>
</svg>
